<svg width="79" height="103" viewBox="0 0 79 103" fill="none" xmlns="http://www.w3.org/2000/svg">
<g filter="url(#filter0_d_402_359)">
<rect x="4" width="71" height="71" rx="5" fill="#A49CA7"/>
</g>
<path d="M39 6C22.425 6 9 19.5352 9 36.2462C9 49.6301 17.5875 60.9346 29.5125 64.9422C31.0125 65.2069 31.575 64.2995 31.575 63.5055C31.575 62.7872 31.5375 60.4053 31.5375 57.8722C24 59.2711 22.05 56.0196 21.45 54.3183C21.1125 53.4487 19.65 50.7643 18.375 50.046C17.325 49.4789 15.825 48.08 18.3375 48.0422C20.7 48.0044 22.3875 50.235 22.95 51.1424C25.65 55.7171 29.9625 54.4317 31.6875 53.6377C31.95 51.6717 32.7375 50.3484 33.6 49.5923C26.925 48.8361 19.95 46.2274 19.95 34.6582C19.95 31.369 21.1125 28.6468 23.025 26.5296C22.725 25.7734 21.675 22.6732 23.325 18.5144C23.325 18.5144 25.8375 17.7204 31.575 21.6146C33.975 20.934 36.525 20.5938 39.075 20.5938C41.625 20.5938 44.175 20.934 46.575 21.6146C52.3125 17.6826 54.825 18.5144 54.825 18.5144C56.475 22.6732 55.425 25.7734 55.125 26.5296C57.0375 28.6468 58.2 31.3312 58.2 34.6582C58.2 46.2652 51.1875 48.8361 44.5125 49.5923C45.6 50.5375 46.5375 52.3523 46.5375 55.1878C46.5375 59.2333 46.5 62.4847 46.5 63.5055C46.5 64.2995 47.0625 65.2447 48.5625 64.9422C60.774 60.7858 68.9967 49.2408 69 36.2462C69 19.5352 55.575 6 39 6Z" fill="#5D536B"/>
<g filter="url(#filter1_d_402_359)">
<path d="M19.772 91.127V90.711H18.979V88.319H22.736V93.532C21.5053 94 20.227 94.234 18.901 94.234C17.991 94.234 17.237 94.1257 16.639 93.909C16.0497 93.6923 15.5817 93.3717 15.235 92.947C14.8883 92.5137 14.6457 91.9807 14.507 91.348C14.377 90.7067 14.312 89.9613 14.312 89.112C14.312 88.2107 14.3943 87.4393 14.559 86.798C14.7237 86.148 14.9967 85.6193 15.378 85.212C15.7593 84.796 16.2663 84.4927 16.899 84.302C17.5317 84.1113 18.316 84.016 19.252 84.016C19.46 84.016 19.7027 84.029 19.98 84.055C20.266 84.0723 20.552 84.1027 20.838 84.146C21.124 84.1807 21.3927 84.224 21.644 84.276C21.904 84.3193 22.112 84.367 22.268 84.419L21.8 86.811C21.3753 86.7417 20.9723 86.6897 20.591 86.655C20.2097 86.6117 19.8543 86.59 19.525 86.59C18.8403 86.59 18.3593 86.642 18.082 86.746C17.8047 86.85 17.666 87.058 17.666 87.37V91.79H18.693C19.0743 91.79 19.3473 91.751 19.512 91.673C19.6853 91.5863 19.772 91.4043 19.772 91.127ZM27.2564 94H24.1364V84.25H27.2564V94ZM35.763 84.25V86.746H33.501V94H30.381V86.746H28.119V84.25H35.763ZM45.1959 94H42.0759V90.555H39.7359V94H36.6159V84.25H39.7359V87.695H42.0759V84.25H45.1959V94ZM46.5255 84.25H49.6455V91.569H50.7505C51.1492 91.569 51.4178 91.517 51.5565 91.413C51.7038 91.309 51.7775 91.0837 51.7775 90.737V84.25H54.8975V89.723C54.8975 90.555 54.8412 91.257 54.7285 91.829C54.6245 92.401 54.4165 92.869 54.1045 93.233C53.8012 93.5883 53.3765 93.844 52.8305 94C52.2845 94.156 51.5782 94.234 50.7115 94.234C49.8448 94.234 49.1385 94.156 48.5925 94C48.0465 93.844 47.6175 93.5883 47.3055 93.233C47.0022 92.8777 46.7942 92.414 46.6815 91.842C46.5775 91.2613 46.5255 90.555 46.5255 89.723V84.25ZM61.8205 94H56.2175V84.25H61.2745C62.2105 84.25 62.8778 84.432 63.2765 84.796C63.6752 85.16 63.8745 85.6887 63.8745 86.382C63.8745 87.084 63.7488 87.6257 63.4975 88.007C63.2462 88.3797 62.9038 88.6267 62.4705 88.748V88.839C63.7272 89.0557 64.3555 89.9137 64.3555 91.413C64.3555 92.193 64.1475 92.8213 63.7315 93.298C63.3242 93.766 62.6872 94 61.8205 94ZM60.5595 90.113H59.3375V91.712H60.5335C60.9755 91.712 61.1965 91.4433 61.1965 90.906C61.1965 90.3773 60.9842 90.113 60.5595 90.113ZM60.3255 86.382H59.3375V87.838H60.2995C60.6982 87.838 60.8975 87.5953 60.8975 87.11C60.8975 86.6247 60.7068 86.382 60.3255 86.382Z" fill="#5D536B"/>
</g>
<defs>
<filter id="filter0_d_402_359" x="0" y="0" width="79" height="79" filterUnits="userSpaceOnUse" color-interpolation-filters="sRGB">
<feFlood flood-opacity="0" result="BackgroundImageFix"/>
<feColorMatrix in="SourceAlpha" type="matrix" values="0 0 0 0 0 0 0 0 0 0 0 0 0 0 0 0 0 0 127 0" result="hardAlpha"/>
<feOffset dy="4"/>
<feGaussianBlur stdDeviation="2"/>
<feComposite in2="hardAlpha" operator="out"/>
<feColorMatrix type="matrix" values="0 0 0 0 0 0 0 0 0 0 0 0 0 0 0 0 0 0 0.25 0"/>
<feBlend mode="normal" in2="BackgroundImageFix" result="effect1_dropShadow_402_359"/>
<feBlend mode="normal" in="SourceGraphic" in2="effect1_dropShadow_402_359" result="shape"/>
</filter>
<filter id="filter1_d_402_359" x="10.312" y="84.016" width="58.0435" height="18.218" filterUnits="userSpaceOnUse" color-interpolation-filters="sRGB">
<feFlood flood-opacity="0" result="BackgroundImageFix"/>
<feColorMatrix in="SourceAlpha" type="matrix" values="0 0 0 0 0 0 0 0 0 0 0 0 0 0 0 0 0 0 127 0" result="hardAlpha"/>
<feOffset dy="4"/>
<feGaussianBlur stdDeviation="2"/>
<feComposite in2="hardAlpha" operator="out"/>
<feColorMatrix type="matrix" values="0 0 0 0 0 0 0 0 0 0 0 0 0 0 0 0 0 0 0.25 0"/>
<feBlend mode="normal" in2="BackgroundImageFix" result="effect1_dropShadow_402_359"/>
<feBlend mode="normal" in="SourceGraphic" in2="effect1_dropShadow_402_359" result="shape"/>
</filter>
</defs>
</svg>
