<svg width="79" height="102" viewBox="0 0 79 102" fill="none" xmlns="http://www.w3.org/2000/svg">
<g filter="url(#filter0_d_402_363)">
<path d="M64.4889 60.5038H53.975V44.0287C53.975 40.1 53.8953 35.0444 48.4961 35.0444C43.0145 35.0444 42.1771 39.3194 42.1771 43.7388V60.5038H31.6632V26.625H41.763V31.2428H41.899C43.3104 28.5803 46.742 25.77 51.8686 25.77C62.5218 25.77 64.492 32.7815 64.492 41.9078L64.4889 60.5038ZM19.7886 21.9893C16.4043 21.9893 13.6856 19.2499 13.6856 15.8803C13.6856 12.5137 16.4072 9.77729 19.7886 9.77729C23.1611 9.77729 25.8946 12.5137 25.8946 15.8803C25.8946 19.2499 23.1581 21.9893 19.7886 21.9893ZM25.0604 60.5038H14.5169V26.625H25.0604V60.5038ZM69.7488 0H9.2392C6.343 0 4 2.28975 4 5.11496V65.8852C4 68.713 6.343 71 9.2392 71H69.7401C72.6333 71 75 68.713 75 65.8852V5.11496C75 2.28975 72.6333 0 69.7401 0H69.7488Z" fill="#5D536B"/>
</g>
<g filter="url(#filter1_d_402_363)">
<path d="M13.02 91.504V94H6.78V84.25H9.9V91.504H13.02ZM16.9967 94H13.8767V84.25H16.9967V94ZM27.2193 94H24.2812L21.9023 90.542C21.8589 90.4813 21.8243 90.3903 21.7983 90.269C21.7723 90.1477 21.7549 89.9873 21.7463 89.788H21.6813V94H18.5613V84.25H21.4993L23.8783 87.708C23.9216 87.7687 23.9563 87.8597 23.9823 87.981C24.0083 88.1023 24.0256 88.2627 24.0343 88.462H24.0993V84.25H27.2193V94ZM31.966 89.762H31.901V94H28.781V84.25H31.901V88.228H31.966C31.9746 88.072 31.992 87.9333 32.018 87.812C32.044 87.682 32.0786 87.5693 32.122 87.474L33.643 84.25H37.023L34.683 89.034L37.101 94H33.721L32.122 90.503C32.0786 90.4077 32.044 90.2993 32.018 90.178C31.992 90.0567 31.9746 89.918 31.966 89.762ZM44.2759 88.059V90.321H41.1559V91.504H44.9779V94H38.0359V84.25H44.8999L44.5099 86.746H41.1559V88.059H44.2759ZM50.6685 94H46.3005V84.25H50.6685C51.5438 84.25 52.2762 84.341 52.8655 84.523C53.4548 84.6963 53.9272 84.978 54.2825 85.368C54.6378 85.758 54.8892 86.2607 55.0365 86.876C55.1925 87.4913 55.2705 88.2367 55.2705 89.112C55.2705 89.9873 55.1925 90.737 55.0365 91.361C54.8892 91.9763 54.6378 92.479 54.2825 92.869C53.9272 93.259 53.4548 93.545 52.8655 93.727C52.2762 93.909 51.5438 94 50.6685 94ZM50.7205 86.746H49.4205V91.504H50.7205C51.1538 91.504 51.4615 91.4563 51.6435 91.361C51.8342 91.257 51.9295 91.0273 51.9295 90.672V87.578C51.9295 87.2227 51.8342 86.9973 51.6435 86.902C51.4615 86.798 51.1538 86.746 50.7205 86.746ZM62.6079 91.504V94H56.3679V84.25H59.4879V91.504H62.6079ZM72.1226 94H69.1846L66.8056 90.542C66.7622 90.4813 66.7276 90.3903 66.7016 90.269C66.6756 90.1477 66.6582 89.9873 66.6496 89.788H66.5846V94H63.4646V84.25H66.4026L68.7816 87.708C68.8249 87.7687 68.8596 87.8597 68.8856 87.981C68.9116 88.1023 68.9289 88.2627 68.9376 88.462H69.0026V84.25H72.1226V94Z" fill="#5D536B"/>
</g>
<defs>
<filter id="filter0_d_402_363" x="0" y="0" width="79" height="79" filterUnits="userSpaceOnUse" color-interpolation-filters="sRGB">
<feFlood flood-opacity="0" result="BackgroundImageFix"/>
<feColorMatrix in="SourceAlpha" type="matrix" values="0 0 0 0 0 0 0 0 0 0 0 0 0 0 0 0 0 0 127 0" result="hardAlpha"/>
<feOffset dy="4"/>
<feGaussianBlur stdDeviation="2"/>
<feComposite in2="hardAlpha" operator="out"/>
<feColorMatrix type="matrix" values="0 0 0 0 0 0 0 0 0 0 0 0 0 0 0 0 0 0 0.25 0"/>
<feBlend mode="normal" in2="BackgroundImageFix" result="effect1_dropShadow_402_363"/>
<feBlend mode="normal" in="SourceGraphic" in2="effect1_dropShadow_402_363" result="shape"/>
</filter>
<filter id="filter1_d_402_363" x="2.78003" y="84.25" width="73.3425" height="17.75" filterUnits="userSpaceOnUse" color-interpolation-filters="sRGB">
<feFlood flood-opacity="0" result="BackgroundImageFix"/>
<feColorMatrix in="SourceAlpha" type="matrix" values="0 0 0 0 0 0 0 0 0 0 0 0 0 0 0 0 0 0 127 0" result="hardAlpha"/>
<feOffset dy="4"/>
<feGaussianBlur stdDeviation="2"/>
<feComposite in2="hardAlpha" operator="out"/>
<feColorMatrix type="matrix" values="0 0 0 0 0 0 0 0 0 0 0 0 0 0 0 0 0 0 0.25 0"/>
<feBlend mode="normal" in2="BackgroundImageFix" result="effect1_dropShadow_402_363"/>
<feBlend mode="normal" in="SourceGraphic" in2="effect1_dropShadow_402_363" result="shape"/>
</filter>
</defs>
</svg>
