<svg width="822" height="516" viewBox="0 0 822 516" fill="none" xmlns="http://www.w3.org/2000/svg">
<rect x="96" width="726" height="399" rx="15" fill="#9784B6"/>
<path d="M96 15C96 6.71573 102.716 0 111 0H807C815.284 0 822 6.71573 822 15V67H96V15Z" fill="#5D536B"/>
<rect x="760" y="12" width="42" height="43" rx="5" fill="#A49CA7"/>
<line x1="771.686" y1="24.2729" x2="791.319" y2="42.808" stroke="white" stroke-width="2"/>
<line x1="770.619" y1="43.2795" x2="790.063" y2="24.5461" stroke="white" stroke-width="2"/>
<path d="M126.6 27.416C124.12 27.416 122.88 29.808 122.88 34.592V36.488C122.88 38.76 123.208 40.544 123.864 41.84C124.52 43.12 125.488 43.76 126.768 43.76C128.528 43.76 130.144 42.048 131.616 38.624H132.048L131.88 43.976H131.616C131.52 43.8 131.432 43.68 131.352 43.616C131.272 43.536 131.152 43.496 130.992 43.496C130.848 43.496 130.272 43.624 129.264 43.88C128.256 44.12 127.232 44.24 126.192 44.24C123.584 44.24 121.56 43.536 120.12 42.128C118.696 40.72 117.984 38.608 117.984 35.792C117.984 32.96 118.728 30.776 120.216 29.24C121.72 27.704 123.736 26.936 126.264 26.936C127.24 26.936 128.192 27.064 129.12 27.32C130.064 27.56 130.616 27.68 130.776 27.68C130.936 27.68 131.056 27.648 131.136 27.584C131.216 27.504 131.304 27.376 131.4 27.2H131.664L131.856 32.408H131.424C130.704 30.792 129.96 29.56 129.192 28.712C128.44 27.848 127.576 27.416 126.6 27.416ZM136.714 36.296C136.026 36.296 135.506 36.096 135.154 35.696C134.818 35.28 134.65 34.784 134.65 34.208C134.65 33.616 134.826 33.12 135.178 32.72C135.546 32.32 136.058 32.12 136.714 32.12C137.37 32.12 137.89 32.288 138.274 32.624C138.658 32.96 138.85 33.464 138.85 34.136C138.85 34.808 138.666 35.336 138.298 35.72C137.946 36.104 137.418 36.296 136.714 36.296ZM136.714 44.24C136.026 44.24 135.506 44.04 135.154 43.64C134.818 43.224 134.65 42.728 134.65 42.152C134.65 41.56 134.826 41.064 135.178 40.664C135.546 40.264 136.058 40.064 136.714 40.064C137.37 40.064 137.89 40.232 138.274 40.568C138.658 40.904 138.85 41.408 138.85 42.08C138.85 42.752 138.666 43.28 138.298 43.664C137.946 44.048 137.418 44.24 136.714 44.24ZM146.426 38.888C146.426 40.36 146.674 41.488 147.17 42.272C147.682 43.056 148.594 43.448 149.906 43.448C151.218 43.448 152.226 43.04 152.93 42.224C153.634 41.408 153.986 40.168 153.986 38.504V27.656H152.426V27.2H155.93V27.656H154.61V38.336C154.61 40.32 154.17 41.8 153.29 42.776C152.41 43.752 150.85 44.24 148.61 44.24C146.386 44.24 144.682 43.776 143.498 42.848C142.33 41.92 141.746 40.328 141.746 38.072V27.656H140.426V27.2H147.986V27.656H146.426V38.888ZM156.862 44.24V39.944H157.15C157.566 41.336 158.126 42.312 158.83 42.872C159.534 43.432 160.414 43.712 161.47 43.712C163.102 43.712 163.918 43.192 163.918 42.152C163.918 41.704 163.718 41.368 163.318 41.144C162.694 40.792 161.894 40.52 160.918 40.328C159.83 40.04 158.918 39.656 158.182 39.176C157.302 38.6 156.862 37.688 156.862 36.44C156.862 35.192 157.246 34.2 158.014 33.464C158.782 32.712 159.806 32.336 161.086 32.336C161.87 32.336 162.678 32.52 163.51 32.888C163.814 33.016 164.046 33.08 164.206 33.08C164.366 33.08 164.502 33.024 164.614 32.912C164.726 32.8 164.862 32.592 165.022 32.288H165.286V35.96H164.998C164.182 33.88 162.918 32.84 161.206 32.84C160.454 32.84 159.894 32.976 159.526 33.248C159.158 33.504 158.974 33.832 158.974 34.232C158.974 34.472 159.03 34.664 159.142 34.808C159.254 34.936 159.342 35.032 159.406 35.096C159.47 35.16 159.574 35.232 159.718 35.312C159.862 35.376 159.982 35.432 160.078 35.48C160.174 35.512 160.318 35.56 160.51 35.624C160.718 35.688 160.87 35.728 160.966 35.744C162.054 36.016 162.838 36.256 163.318 36.464C163.798 36.656 164.254 36.896 164.686 37.184C165.566 37.792 166.006 38.776 166.006 40.136C166.006 41.48 165.606 42.504 164.806 43.208C164.006 43.896 162.91 44.24 161.518 44.24C160.526 44.24 159.566 44.008 158.638 43.544C158.446 43.416 158.294 43.352 158.182 43.352C157.83 43.352 157.486 43.648 157.15 44.24H156.862ZM173.029 44.24C170.965 44.24 169.413 43.712 168.373 42.656C167.349 41.584 166.837 40.104 166.837 38.216C166.837 36.312 167.413 34.856 168.565 33.848C169.733 32.84 171.213 32.336 173.005 32.336C176.637 32.336 178.381 34.16 178.237 37.808H171.469V38.744C171.469 40.312 171.669 41.496 172.069 42.296C172.469 43.096 173.165 43.496 174.157 43.496C176.013 43.496 177.229 42.504 177.805 40.52L178.237 40.592C177.933 41.744 177.381 42.64 176.581 43.28C175.797 43.92 174.613 44.24 173.029 44.24ZM171.493 37.328H173.965V36.152C173.965 34.856 173.885 33.976 173.725 33.512C173.581 33.032 173.277 32.792 172.813 32.792C172.365 32.792 172.029 33.048 171.805 33.56C171.597 34.056 171.493 34.92 171.493 36.152V37.328ZM187.108 33.248C186.516 33.248 185.996 33.632 185.548 34.4C185.1 35.168 184.876 36.08 184.876 37.136V43.568H186.58V44H179.092V43.568H180.412V33.008H179.092V32.576H184.876V34.88C185.084 34.064 185.484 33.44 186.076 33.008C186.668 32.56 187.34 32.336 188.092 32.336C188.844 32.336 189.452 32.552 189.916 32.984C190.396 33.4 190.636 34 190.636 34.784C190.636 35.552 190.46 36.144 190.108 36.56C189.756 36.976 189.212 37.184 188.476 37.184C187.756 37.184 187.22 36.944 186.868 36.464C186.532 35.984 186.492 35.32 186.748 34.472H187.612C188.012 33.656 187.844 33.248 187.108 33.248ZM191.245 44.24V39.944H191.533C191.949 41.336 192.509 42.312 193.213 42.872C193.917 43.432 194.797 43.712 195.853 43.712C197.485 43.712 198.301 43.192 198.301 42.152C198.301 41.704 198.101 41.368 197.701 41.144C197.077 40.792 196.277 40.52 195.301 40.328C194.213 40.04 193.301 39.656 192.565 39.176C191.685 38.6 191.245 37.688 191.245 36.44C191.245 35.192 191.629 34.2 192.397 33.464C193.165 32.712 194.189 32.336 195.469 32.336C196.253 32.336 197.061 32.52 197.893 32.888C198.197 33.016 198.429 33.08 198.589 33.08C198.749 33.08 198.885 33.024 198.997 32.912C199.109 32.8 199.245 32.592 199.405 32.288H199.669V35.96H199.381C198.565 33.88 197.301 32.84 195.589 32.84C194.837 32.84 194.277 32.976 193.909 33.248C193.541 33.504 193.357 33.832 193.357 34.232C193.357 34.472 193.413 34.664 193.525 34.808C193.637 34.936 193.725 35.032 193.789 35.096C193.853 35.16 193.957 35.232 194.101 35.312C194.245 35.376 194.365 35.432 194.461 35.48C194.557 35.512 194.701 35.56 194.893 35.624C195.101 35.688 195.253 35.728 195.349 35.744C196.437 36.016 197.221 36.256 197.701 36.464C198.181 36.656 198.637 36.896 199.069 37.184C199.949 37.792 200.389 38.776 200.389 40.136C200.389 41.48 199.989 42.504 199.189 43.208C198.389 43.896 197.293 44.24 195.901 44.24C194.909 44.24 193.949 44.008 193.021 43.544C192.829 43.416 192.677 43.352 192.565 43.352C192.213 43.352 191.869 43.648 191.533 44.24H191.245ZM202.035 24.92L209.115 46.328H208.107L201.051 24.92H202.035ZM209.873 27.2H217.193V27.656H215.873V43.544H217.193V44H209.873V43.544H211.193V27.656H209.873V27.2ZM217.078 33.008V32.576H224.254V33.008H222.742L225.622 40.976L228.214 33.008H226.606V32.576H229.846V33.008H228.79L225.238 44H222.502L218.062 33.008H217.078ZM235.125 38.36H235.821V36.512C235.821 34.992 235.733 33.976 235.557 33.464C235.397 32.936 235.077 32.672 234.597 32.672C234.309 32.672 234.045 32.752 233.805 32.912C233.581 33.056 233.469 33.264 233.469 33.536C233.469 33.792 233.517 34.056 233.613 34.328H234.213C234.341 34.664 234.405 35.072 234.405 35.552C234.405 36.016 234.205 36.424 233.805 36.776C233.405 37.112 232.901 37.28 232.293 37.28C230.917 37.28 230.229 36.616 230.229 35.288C230.229 33.32 231.901 32.336 235.245 32.336C237.149 32.336 238.461 32.664 239.181 33.32C239.917 33.96 240.285 35.144 240.285 36.872V41.744C240.285 42.576 240.517 42.992 240.981 42.992C241.525 42.992 241.845 42.168 241.941 40.52L242.301 40.544C242.237 41.952 241.973 42.92 241.509 43.448C241.045 43.976 240.285 44.24 239.229 44.24C237.309 44.24 236.205 43.648 235.917 42.464C235.709 43.072 235.397 43.52 234.981 43.808C234.565 44.096 233.957 44.24 233.157 44.24C230.789 44.24 229.605 43.272 229.605 41.336C229.605 40.2 230.053 39.424 230.949 39.008C231.861 38.576 233.253 38.36 235.125 38.36ZM234.165 41.312C234.165 42.144 234.205 42.68 234.285 42.92C234.381 43.16 234.549 43.28 234.789 43.28C235.045 43.28 235.277 43.08 235.485 42.68C235.709 42.264 235.821 41.696 235.821 40.976V38.744H235.653C234.661 38.744 234.165 39.472 234.165 40.928V41.312ZM242.585 32.576H248.369V34.784C248.625 34.048 249.017 33.456 249.545 33.008C250.073 32.56 250.873 32.336 251.945 32.336C254.425 32.336 255.665 33.672 255.665 36.344V43.568H257.009V44H250.217V43.568H251.201V35.768C251.201 34.808 251.137 34.192 251.009 33.92C250.881 33.632 250.649 33.488 250.313 33.488C249.801 33.488 249.345 33.824 248.945 34.496C248.561 35.168 248.369 35.984 248.369 36.944V43.568H249.401V44H242.585V43.568H243.905V33.008H242.585V32.576ZM257.374 32.576H263.158V34.784C263.414 34.048 263.806 33.456 264.334 33.008C264.862 32.56 265.662 32.336 266.734 32.336C269.214 32.336 270.454 33.672 270.454 36.344V43.568H271.798V44H265.006V43.568H265.99V35.768C265.99 34.808 265.926 34.192 265.798 33.92C265.67 33.632 265.438 33.488 265.102 33.488C264.59 33.488 264.134 33.824 263.734 34.496C263.35 35.168 263.158 35.984 263.158 36.944V43.568H264.19V44H257.374V43.568H258.694V33.008H257.374V32.576ZM277.875 38.36H278.571V36.512C278.571 34.992 278.483 33.976 278.307 33.464C278.147 32.936 277.827 32.672 277.347 32.672C277.059 32.672 276.795 32.752 276.555 32.912C276.331 33.056 276.219 33.264 276.219 33.536C276.219 33.792 276.267 34.056 276.363 34.328H276.963C277.091 34.664 277.155 35.072 277.155 35.552C277.155 36.016 276.955 36.424 276.555 36.776C276.155 37.112 275.651 37.28 275.043 37.28C273.667 37.28 272.979 36.616 272.979 35.288C272.979 33.32 274.651 32.336 277.995 32.336C279.899 32.336 281.211 32.664 281.931 33.32C282.667 33.96 283.035 35.144 283.035 36.872V41.744C283.035 42.576 283.267 42.992 283.731 42.992C284.275 42.992 284.595 42.168 284.691 40.52L285.051 40.544C284.987 41.952 284.723 42.92 284.259 43.448C283.795 43.976 283.035 44.24 281.979 44.24C280.059 44.24 278.955 43.648 278.667 42.464C278.459 43.072 278.147 43.52 277.731 43.808C277.315 44.096 276.707 44.24 275.907 44.24C273.539 44.24 272.355 43.272 272.355 41.336C272.355 40.2 272.803 39.424 273.699 39.008C274.611 38.576 276.003 38.36 277.875 38.36ZM276.915 41.312C276.915 42.144 276.955 42.68 277.035 42.92C277.131 43.16 277.299 43.28 277.539 43.28C277.795 43.28 278.027 43.08 278.235 42.68C278.459 42.264 278.571 41.696 278.571 40.976V38.744H278.403C277.411 38.744 276.915 39.472 276.915 40.928V41.312ZM284.535 24.92L291.615 46.328H290.607L283.551 24.92H284.535ZM300.028 39.152L302.02 32.24L300.58 27.656H299.212V27.2H306.652V27.656H305.236L308.812 39.008L311.692 27.656H309.268V27.2H314.068V27.656H312.484L308.068 44.24H305.932L302.38 33.392L299.26 44.24H297.172L291.124 27.656H289.996V27.2H297.796V27.656H296.116L300.028 39.152ZM318.833 44.24C316.769 44.24 315.217 43.712 314.177 42.656C313.153 41.584 312.641 40.104 312.641 38.216C312.641 36.312 313.217 34.856 314.369 33.848C315.537 32.84 317.017 32.336 318.809 32.336C322.441 32.336 324.185 34.16 324.041 37.808H317.273V38.744C317.273 40.312 317.473 41.496 317.873 42.296C318.273 43.096 318.969 43.496 319.961 43.496C321.817 43.496 323.033 42.504 323.609 40.52L324.041 40.592C323.737 41.744 323.185 42.64 322.385 43.28C321.601 43.92 320.417 44.24 318.833 44.24ZM317.297 37.328H319.769V36.152C319.769 34.856 319.689 33.976 319.529 33.512C319.385 33.032 319.081 32.792 318.617 32.792C318.169 32.792 317.833 33.048 317.609 33.56C317.401 34.056 317.297 34.92 317.297 36.152V37.328ZM324.8 26H330.68V43.568H332.024V44H324.896V43.568H326.216V26.432H324.8V26ZM339.21 32.768C338.506 32.768 338.002 33.152 337.698 33.92C337.394 34.688 337.242 35.96 337.242 37.736V38.984C337.242 40.568 337.418 41.704 337.77 42.392C338.122 43.08 338.77 43.424 339.714 43.424C340.658 43.424 341.41 43.104 341.97 42.464C342.53 41.824 342.89 41.096 343.05 40.28L343.482 40.328C343.178 41.704 342.618 42.696 341.802 43.304C340.97 43.928 339.826 44.24 338.37 44.24C336.514 44.24 335.09 43.744 334.098 42.752C333.106 41.744 332.61 40.28 332.61 38.36C332.61 36.424 333.17 34.936 334.29 33.896C335.426 32.856 337.002 32.336 339.018 32.336C340.442 32.336 341.53 32.616 342.282 33.176C343.034 33.72 343.41 34.408 343.41 35.24C343.41 36.072 343.226 36.68 342.858 37.064C342.506 37.448 342.01 37.64 341.37 37.64C340.746 37.64 340.242 37.472 339.858 37.136C339.474 36.8 339.282 36.304 339.282 35.648C339.282 35.36 339.322 35.072 339.402 34.784H340.194C340.306 34.464 340.362 34.176 340.362 33.92C340.362 33.152 339.978 32.768 339.21 32.768ZM351.844 39.272V37.232C351.844 35.68 351.756 34.552 351.58 33.848C351.42 33.128 351.036 32.768 350.428 32.768C350.076 32.768 349.788 32.872 349.564 33.08C349.356 33.272 349.204 33.6 349.108 34.064C348.964 34.784 348.892 35.88 348.892 37.352V39.224C348.892 40.968 348.94 42.016 349.036 42.368C349.148 42.72 349.26 43.008 349.372 43.232C349.548 43.616 349.892 43.808 350.404 43.808C351.028 43.808 351.436 43.448 351.628 42.728C351.772 42.216 351.844 41.064 351.844 39.272ZM350.356 44.24C348.356 44.24 346.844 43.728 345.82 42.704C344.796 41.68 344.284 40.216 344.284 38.312C344.284 36.392 344.828 34.92 345.916 33.896C347.02 32.856 348.564 32.336 350.548 32.336C352.532 32.336 354.012 32.816 354.988 33.776C355.964 34.72 356.452 36.168 356.452 38.12C356.452 42.2 354.42 44.24 350.356 44.24ZM357.123 32.576H362.907V34.784C363.435 33.152 364.595 32.336 366.387 32.336C368.195 32.336 369.291 33.2 369.675 34.928C370.235 33.2 371.411 32.336 373.203 32.336C375.555 32.336 376.731 33.672 376.731 36.344V43.568H378.075V44H371.427V43.568H372.267V35.768C372.267 34.552 372.163 33.84 371.955 33.632C371.859 33.536 371.731 33.488 371.571 33.488C371.107 33.488 370.699 33.8 370.347 34.424C369.995 35.048 369.819 35.84 369.819 36.8V43.568H370.683V44H364.515V43.568H365.355V35.768C365.355 34.552 365.251 33.84 365.043 33.632C364.947 33.536 364.819 33.488 364.659 33.488C364.211 33.488 363.803 33.832 363.435 34.52C363.083 35.192 362.907 36 362.907 36.944V43.568H363.771V44H357.123V43.568H358.443V33.008H357.123V32.576ZM384.74 44.24C382.676 44.24 381.124 43.712 380.084 42.656C379.06 41.584 378.548 40.104 378.548 38.216C378.548 36.312 379.124 34.856 380.276 33.848C381.444 32.84 382.924 32.336 384.716 32.336C388.348 32.336 390.092 34.16 389.948 37.808H383.18V38.744C383.18 40.312 383.38 41.496 383.78 42.296C384.18 43.096 384.876 43.496 385.868 43.496C387.724 43.496 388.94 42.504 389.516 40.52L389.948 40.592C389.644 41.744 389.092 42.64 388.292 43.28C387.508 43.92 386.324 44.24 384.74 44.24ZM383.204 37.328H385.676V36.152C385.676 34.856 385.596 33.976 385.436 33.512C385.292 33.032 384.988 32.792 384.523 32.792C384.076 32.792 383.74 33.048 383.516 33.56C383.308 34.056 383.204 34.92 383.204 36.152V37.328ZM394.835 39.728V37.664C394.835 36.288 394.571 34.656 394.043 32.768C393.531 30.864 393.275 29.568 393.275 28.88C393.275 28.192 393.459 27.696 393.827 27.392C394.211 27.088 394.675 26.936 395.219 26.936C396.435 26.936 397.043 27.584 397.043 28.88C397.043 29.632 396.763 30.944 396.203 32.816C395.643 34.688 395.363 36.312 395.363 37.688V39.728H394.835ZM395.003 44.24C394.411 44.24 393.963 44.072 393.659 43.736C393.371 43.384 393.227 42.952 393.227 42.44C393.227 41.912 393.387 41.48 393.707 41.144C394.027 40.792 394.467 40.616 395.027 40.616C395.587 40.616 396.035 40.768 396.371 41.072C396.707 41.36 396.875 41.792 396.875 42.368C396.875 42.944 396.715 43.4 396.395 43.736C396.075 44.072 395.611 44.24 395.003 44.24Z" fill="#A49CA7"/>
<path d="M122.6 92.326C121.153 92.326 120.43 93.7213 120.43 96.512V97.618C120.43 98.9433 120.621 99.984 121.004 100.74C121.387 101.487 121.951 101.86 122.698 101.86C123.725 101.86 124.667 100.861 125.526 98.864H125.778L125.68 101.986H125.526C125.47 101.883 125.419 101.813 125.372 101.776C125.325 101.729 125.255 101.706 125.162 101.706C125.078 101.706 124.742 101.781 124.154 101.93C123.566 102.07 122.969 102.14 122.362 102.14C120.841 102.14 119.66 101.729 118.82 100.908C117.989 100.087 117.574 98.8547 117.574 97.212C117.574 95.56 118.008 94.286 118.876 93.39C119.753 92.494 120.929 92.046 122.404 92.046C122.973 92.046 123.529 92.1207 124.07 92.27C124.621 92.41 124.943 92.48 125.036 92.48C125.129 92.48 125.199 92.4613 125.246 92.424C125.293 92.3773 125.344 92.3027 125.4 92.2H125.554L125.666 95.238H125.414C124.994 94.2953 124.56 93.5767 124.112 93.082C123.673 92.578 123.169 92.326 122.6 92.326ZM128.5 97.506C128.099 97.506 127.795 97.3893 127.59 97.156C127.394 96.9133 127.296 96.624 127.296 96.288C127.296 95.9427 127.399 95.6533 127.604 95.42C127.819 95.1867 128.117 95.07 128.5 95.07C128.883 95.07 129.186 95.168 129.41 95.364C129.634 95.56 129.746 95.854 129.746 96.246C129.746 96.638 129.639 96.946 129.424 97.17C129.219 97.394 128.911 97.506 128.5 97.506ZM128.5 102.14C128.099 102.14 127.795 102.023 127.59 101.79C127.394 101.547 127.296 101.258 127.296 100.922C127.296 100.577 127.399 100.287 127.604 100.054C127.819 99.8207 128.117 99.704 128.5 99.704C128.883 99.704 129.186 99.802 129.41 99.998C129.634 100.194 129.746 100.488 129.746 100.88C129.746 101.272 129.639 101.58 129.424 101.804C129.219 102.028 128.911 102.14 128.5 102.14ZM131.057 90.87L135.187 103.358H134.599L130.483 90.87H131.057ZM139.073 99.018C139.073 99.8767 139.218 100.535 139.507 100.992C139.806 101.449 140.338 101.678 141.103 101.678C141.869 101.678 142.457 101.44 142.867 100.964C143.278 100.488 143.483 99.7647 143.483 98.794V92.466H142.573V92.2H144.617V92.466H143.847V98.696C143.847 99.8533 143.591 100.717 143.077 101.286C142.564 101.855 141.654 102.14 140.347 102.14C139.05 102.14 138.056 101.869 137.365 101.328C136.684 100.787 136.343 99.858 136.343 98.542V92.466H135.573V92.2H139.983V92.466H139.073V99.018ZM145.161 102.14V99.634H145.329C145.572 100.446 145.899 101.015 146.309 101.342C146.72 101.669 147.233 101.832 147.849 101.832C148.801 101.832 149.277 101.529 149.277 100.922C149.277 100.661 149.161 100.465 148.927 100.334C148.563 100.129 148.097 99.97 147.527 99.858C146.893 99.69 146.361 99.466 145.931 99.186C145.418 98.85 145.161 98.318 145.161 97.59C145.161 96.862 145.385 96.2833 145.833 95.854C146.281 95.4153 146.879 95.196 147.625 95.196C148.083 95.196 148.554 95.3033 149.039 95.518C149.217 95.5927 149.352 95.63 149.445 95.63C149.539 95.63 149.618 95.5973 149.683 95.532C149.749 95.4667 149.828 95.3453 149.921 95.168H150.075V97.31H149.907C149.431 96.0967 148.694 95.49 147.695 95.49C147.257 95.49 146.93 95.5693 146.715 95.728C146.501 95.8773 146.393 96.0687 146.393 96.302C146.393 96.442 146.426 96.554 146.491 96.638C146.557 96.7127 146.608 96.7687 146.645 96.806C146.683 96.8433 146.743 96.8853 146.827 96.932C146.911 96.9693 146.981 97.002 147.037 97.03C147.093 97.0487 147.177 97.0767 147.289 97.114C147.411 97.1513 147.499 97.1747 147.555 97.184C148.19 97.3427 148.647 97.4827 148.927 97.604C149.207 97.716 149.473 97.856 149.725 98.024C150.239 98.3787 150.495 98.9527 150.495 99.746C150.495 100.53 150.262 101.127 149.795 101.538C149.329 101.939 148.689 102.14 147.877 102.14C147.299 102.14 146.739 102.005 146.197 101.734C146.085 101.659 145.997 101.622 145.931 101.622C145.726 101.622 145.525 101.795 145.329 102.14H145.161ZM154.592 102.14C153.388 102.14 152.482 101.832 151.876 101.216C151.278 100.591 150.98 99.7273 150.98 98.626C150.98 97.5153 151.316 96.666 151.988 96.078C152.669 95.49 153.532 95.196 154.578 95.196C156.696 95.196 157.714 96.26 157.63 98.388H153.682V98.934C153.682 99.8487 153.798 100.539 154.032 101.006C154.265 101.473 154.671 101.706 155.25 101.706C156.332 101.706 157.042 101.127 157.378 99.97L157.63 100.012C157.452 100.684 157.13 101.207 156.664 101.58C156.206 101.953 155.516 102.14 154.592 102.14ZM153.696 98.108H155.138V97.422C155.138 96.666 155.091 96.1527 154.998 95.882C154.914 95.602 154.736 95.462 154.466 95.462C154.204 95.462 154.008 95.6113 153.878 95.91C153.756 96.1993 153.696 96.7033 153.696 97.422V98.108ZM162.804 95.728C162.459 95.728 162.156 95.952 161.894 96.4C161.633 96.848 161.502 97.38 161.502 97.996V101.748H162.496V102H158.128V101.748H158.898V95.588H158.128V95.336H161.502V96.68C161.624 96.204 161.857 95.84 162.202 95.588C162.548 95.3267 162.94 95.196 163.378 95.196C163.817 95.196 164.172 95.322 164.442 95.574C164.722 95.8167 164.862 96.1667 164.862 96.624C164.862 97.072 164.76 97.4173 164.554 97.66C164.349 97.9027 164.032 98.024 163.602 98.024C163.182 98.024 162.87 97.884 162.664 97.604C162.468 97.324 162.445 96.9367 162.594 96.442H163.098C163.332 95.966 163.234 95.728 162.804 95.728ZM165.218 102.14V99.634H165.386C165.629 100.446 165.955 101.015 166.366 101.342C166.777 101.669 167.29 101.832 167.906 101.832C168.858 101.832 169.334 101.529 169.334 100.922C169.334 100.661 169.217 100.465 168.984 100.334C168.62 100.129 168.153 99.97 167.584 99.858C166.949 99.69 166.417 99.466 165.988 99.186C165.475 98.85 165.218 98.318 165.218 97.59C165.218 96.862 165.442 96.2833 165.89 95.854C166.338 95.4153 166.935 95.196 167.682 95.196C168.139 95.196 168.611 95.3033 169.096 95.518C169.273 95.5927 169.409 95.63 169.502 95.63C169.595 95.63 169.675 95.5973 169.74 95.532C169.805 95.4667 169.885 95.3453 169.978 95.168H170.132V97.31H169.964C169.488 96.0967 168.751 95.49 167.752 95.49C167.313 95.49 166.987 95.5693 166.772 95.728C166.557 95.8773 166.45 96.0687 166.45 96.302C166.45 96.442 166.483 96.554 166.548 96.638C166.613 96.7127 166.665 96.7687 166.702 96.806C166.739 96.8433 166.8 96.8853 166.884 96.932C166.968 96.9693 167.038 97.002 167.094 97.03C167.15 97.0487 167.234 97.0767 167.346 97.114C167.467 97.1513 167.556 97.1747 167.612 97.184C168.247 97.3427 168.704 97.4827 168.984 97.604C169.264 97.716 169.53 97.856 169.782 98.024C170.295 98.3787 170.552 98.9527 170.552 99.746C170.552 100.53 170.319 101.127 169.852 101.538C169.385 101.939 168.746 102.14 167.934 102.14C167.355 102.14 166.795 102.005 166.254 101.734C166.142 101.659 166.053 101.622 165.988 101.622C165.783 101.622 165.582 101.795 165.386 102.14H165.218ZM171.512 90.87L175.642 103.358H175.054L170.938 90.87H171.512ZM176.084 92.2H180.354V92.466H179.584V101.734H180.354V102H176.084V101.734H176.854V92.466H176.084V92.2ZM180.287 95.588V95.336H184.473V95.588H183.591L185.271 100.236L186.783 95.588H185.845V95.336H187.735V95.588H187.119L185.047 102H183.451L180.861 95.588H180.287ZM190.814 98.71H191.22V97.632C191.22 96.7453 191.169 96.1527 191.066 95.854C190.973 95.546 190.786 95.392 190.506 95.392C190.338 95.392 190.184 95.4387 190.044 95.532C189.914 95.616 189.848 95.7373 189.848 95.896C189.848 96.0453 189.876 96.1993 189.932 96.358H190.282C190.357 96.554 190.394 96.792 190.394 97.072C190.394 97.3427 190.278 97.5807 190.044 97.786C189.811 97.982 189.517 98.08 189.162 98.08C188.36 98.08 187.958 97.6927 187.958 96.918C187.958 95.77 188.934 95.196 190.884 95.196C191.995 95.196 192.76 95.3873 193.18 95.77C193.61 96.1433 193.824 96.834 193.824 97.842V100.684C193.824 101.169 193.96 101.412 194.23 101.412C194.548 101.412 194.734 100.931 194.79 99.97L195 99.984C194.963 100.805 194.809 101.37 194.538 101.678C194.268 101.986 193.824 102.14 193.208 102.14C192.088 102.14 191.444 101.795 191.276 101.104C191.155 101.459 190.973 101.72 190.73 101.888C190.488 102.056 190.133 102.14 189.666 102.14C188.285 102.14 187.594 101.575 187.594 100.446C187.594 99.7833 187.856 99.3307 188.378 99.088C188.91 98.836 189.722 98.71 190.814 98.71ZM190.254 100.432C190.254 100.917 190.278 101.23 190.324 101.37C190.38 101.51 190.478 101.58 190.618 101.58C190.768 101.58 190.903 101.463 191.024 101.23C191.155 100.987 191.22 100.656 191.22 100.236V98.934H191.122C190.544 98.934 190.254 99.3587 190.254 100.208V100.432ZM195.166 95.336H198.54V96.624C198.689 96.1947 198.918 95.8493 199.226 95.588C199.534 95.3267 200.001 95.196 200.626 95.196C202.073 95.196 202.796 95.9753 202.796 97.534V101.748H203.58V102H199.618V101.748H200.192V97.198C200.192 96.638 200.155 96.2787 200.08 96.12C200.005 95.952 199.87 95.868 199.674 95.868C199.375 95.868 199.109 96.064 198.876 96.456C198.652 96.848 198.54 97.324 198.54 97.884V101.748H199.142V102H195.166V101.748H195.936V95.588H195.166V95.336ZM203.793 95.336H207.167V96.624C207.316 96.1947 207.545 95.8493 207.853 95.588C208.161 95.3267 208.628 95.196 209.253 95.196C210.7 95.196 211.423 95.9753 211.423 97.534V101.748H212.207V102H208.245V101.748H208.819V97.198C208.819 96.638 208.782 96.2787 208.707 96.12C208.632 95.952 208.497 95.868 208.301 95.868C208.002 95.868 207.736 96.064 207.503 96.456C207.279 96.848 207.167 97.324 207.167 97.884V101.748H207.769V102H203.793V101.748H204.563V95.588H203.793V95.336ZM215.752 98.71H216.158V97.632C216.158 96.7453 216.107 96.1527 216.004 95.854C215.911 95.546 215.724 95.392 215.444 95.392C215.276 95.392 215.122 95.4387 214.982 95.532C214.851 95.616 214.786 95.7373 214.786 95.896C214.786 96.0453 214.814 96.1993 214.87 96.358H215.22C215.295 96.554 215.332 96.792 215.332 97.072C215.332 97.3427 215.215 97.5807 214.982 97.786C214.749 97.982 214.455 98.08 214.1 98.08C213.297 98.08 212.896 97.6927 212.896 96.918C212.896 95.77 213.871 95.196 215.822 95.196C216.933 95.196 217.698 95.3873 218.118 95.77C218.547 96.1433 218.762 96.834 218.762 97.842V100.684C218.762 101.169 218.897 101.412 219.168 101.412C219.485 101.412 219.672 100.931 219.728 99.97L219.938 99.984C219.901 100.805 219.747 101.37 219.476 101.678C219.205 101.986 218.762 102.14 218.146 102.14C217.026 102.14 216.382 101.795 216.214 101.104C216.093 101.459 215.911 101.72 215.668 101.888C215.425 102.056 215.071 102.14 214.604 102.14C213.223 102.14 212.532 101.575 212.532 100.446C212.532 99.7833 212.793 99.3307 213.316 99.088C213.848 98.836 214.66 98.71 215.752 98.71ZM215.192 100.432C215.192 100.917 215.215 101.23 215.262 101.37C215.318 101.51 215.416 101.58 215.556 101.58C215.705 101.58 215.841 101.463 215.962 101.23C216.093 100.987 216.158 100.656 216.158 100.236V98.934H216.06C215.481 98.934 215.192 99.3587 215.192 100.208V100.432ZM219.637 90.87L223.767 103.358H223.179L219.063 90.87H219.637ZM233.855 96.932C233.855 98.8547 233.314 100.194 232.231 100.95C231.233 101.65 229.861 102 228.115 102H224.153V101.734H225.077V92.466H224.153V92.2H228.479C230.271 92.2 231.615 92.5687 232.511 93.306C233.407 94.034 233.855 95.2427 233.855 96.932ZM227.807 101.734H228.339C229.282 101.734 229.954 101.403 230.355 100.74C230.766 100.068 230.971 98.948 230.971 97.38V96.568C230.971 94.468 230.57 93.2033 229.767 92.774C229.385 92.5687 228.843 92.466 228.143 92.466H227.807V101.734ZM238.25 102.14C237.046 102.14 236.14 101.832 235.534 101.216C234.936 100.591 234.638 99.7273 234.638 98.626C234.638 97.5153 234.974 96.666 235.646 96.078C236.327 95.49 237.19 95.196 238.236 95.196C240.354 95.196 241.372 96.26 241.288 98.388H237.34V98.934C237.34 99.8487 237.456 100.539 237.69 101.006C237.923 101.473 238.329 101.706 238.908 101.706C239.99 101.706 240.7 101.127 241.036 99.97L241.288 100.012C241.11 100.684 240.788 101.207 240.322 101.58C239.864 101.953 239.174 102.14 238.25 102.14ZM237.354 98.108H238.796V97.422C238.796 96.666 238.749 96.1527 238.656 95.882C238.572 95.602 238.394 95.462 238.124 95.462C237.862 95.462 237.666 95.6113 237.536 95.91C237.414 96.1993 237.354 96.7033 237.354 97.422V98.108ZM241.972 102.14V99.634H242.14C242.382 100.446 242.709 101.015 243.12 101.342C243.53 101.669 244.044 101.832 244.66 101.832C245.612 101.832 246.088 101.529 246.088 100.922C246.088 100.661 245.971 100.465 245.738 100.334C245.374 100.129 244.907 99.97 244.338 99.858C243.703 99.69 243.171 99.466 242.742 99.186C242.228 98.85 241.972 98.318 241.972 97.59C241.972 96.862 242.196 96.2833 242.644 95.854C243.092 95.4153 243.689 95.196 244.436 95.196C244.893 95.196 245.364 95.3033 245.85 95.518C246.027 95.5927 246.162 95.63 246.256 95.63C246.349 95.63 246.428 95.5973 246.494 95.532C246.559 95.4667 246.638 95.3453 246.732 95.168H246.886V97.31H246.718C246.242 96.0967 245.504 95.49 244.506 95.49C244.067 95.49 243.74 95.5693 243.526 95.728C243.311 95.8773 243.204 96.0687 243.204 96.302C243.204 96.442 243.236 96.554 243.302 96.638C243.367 96.7127 243.418 96.7687 243.456 96.806C243.493 96.8433 243.554 96.8853 243.638 96.932C243.722 96.9693 243.792 97.002 243.848 97.03C243.904 97.0487 243.988 97.0767 244.1 97.114C244.221 97.1513 244.31 97.1747 244.366 97.184C245 97.3427 245.458 97.4827 245.738 97.604C246.018 97.716 246.284 97.856 246.536 98.024C247.049 98.3787 247.306 98.9527 247.306 99.746C247.306 100.53 247.072 101.127 246.606 101.538C246.139 101.939 245.5 102.14 244.688 102.14C244.109 102.14 243.549 102.005 243.008 101.734C242.896 101.659 242.807 101.622 242.742 101.622C242.536 101.622 242.336 101.795 242.14 102.14H241.972ZM252.298 102V101.748H252.942L251.36 98.5L251.094 98.57V101.748H251.738V102H247.72V101.748H248.49V91.752H247.664V91.5H251.094V98.29L251.318 98.206L254.468 95.588H253.152V95.336H255.91V95.588H254.93L253.264 97.002L255.686 101.748H256.19V102H252.298ZM257.102 99.998V95.588H256.332V95.336H257.102V93.53L259.706 92.886V95.336H261.526V95.588H259.706V100.306C259.706 100.745 259.748 101.067 259.832 101.272C259.925 101.477 260.112 101.58 260.392 101.58C260.672 101.58 260.914 101.44 261.12 101.16C261.334 100.88 261.474 100.497 261.54 100.012L261.778 100.04C261.703 100.684 261.498 101.197 261.162 101.58C260.826 101.953 260.27 102.14 259.496 102.14C258.721 102.14 258.128 101.986 257.718 101.678C257.307 101.37 257.102 100.81 257.102 99.998ZM266.433 99.242V98.052C266.433 97.1467 266.382 96.4887 266.279 96.078C266.186 95.658 265.962 95.448 265.607 95.448C265.402 95.448 265.234 95.5087 265.103 95.63C264.982 95.742 264.893 95.9333 264.837 96.204C264.753 96.624 264.711 97.2633 264.711 98.122V99.214C264.711 100.231 264.739 100.843 264.795 101.048C264.861 101.253 264.926 101.421 264.991 101.552C265.094 101.776 265.295 101.888 265.593 101.888C265.957 101.888 266.195 101.678 266.307 101.258C266.391 100.959 266.433 100.287 266.433 99.242ZM265.565 102.14C264.399 102.14 263.517 101.841 262.919 101.244C262.322 100.647 262.023 99.7927 262.023 98.682C262.023 97.562 262.341 96.7033 262.975 96.106C263.619 95.4993 264.52 95.196 265.677 95.196C266.835 95.196 267.698 95.476 268.267 96.036C268.837 96.5867 269.121 97.4313 269.121 98.57C269.121 100.95 267.936 102.14 265.565 102.14ZM274.623 98.234C274.623 97.2727 274.576 96.6287 274.483 96.302C274.39 95.966 274.208 95.798 273.937 95.798C273.666 95.798 273.424 95.9753 273.209 96.33C272.994 96.6753 272.887 97.142 272.887 97.73V100.292C272.887 100.693 272.966 101.034 273.125 101.314C273.284 101.594 273.517 101.734 273.825 101.734C274.133 101.734 274.343 101.529 274.455 101.118C274.567 100.707 274.623 99.9887 274.623 98.962V98.234ZM272.859 95.336V96.442C273.223 95.6113 273.867 95.196 274.791 95.196C275.594 95.196 276.214 95.4853 276.653 96.064C277.101 96.6427 277.325 97.52 277.325 98.696C277.325 99.872 277.082 100.74 276.597 101.3C276.121 101.86 275.402 102.14 274.441 102.14C273.993 102.14 273.657 102.084 273.433 101.972C273.209 101.86 273.027 101.687 272.887 101.454V105.08H274.693V105.332H269.513V105.08H270.283V95.588H269.541V95.336H272.859ZM277.729 90.87L281.859 103.358H281.271L277.155 90.87H277.729ZM282.161 92.2H286.277C287.687 92.2 288.737 92.4053 289.427 92.816C290.118 93.2173 290.463 93.9407 290.463 94.986C290.463 96.1433 290.043 96.9413 289.203 97.38C288.419 97.7813 287.323 97.982 285.913 97.982H285.801V101.734H287.551V102H282.161V101.734H283.071V92.466H282.161V92.2ZM285.801 92.466V97.716H286.095C286.655 97.716 287.043 97.5247 287.257 97.142C287.472 96.7593 287.579 96.1387 287.579 95.28V94.608C287.579 93.8147 287.477 93.2593 287.271 92.942C287.075 92.6247 286.711 92.466 286.179 92.466H285.801ZM295.64 95.728C295.295 95.728 294.992 95.952 294.73 96.4C294.469 96.848 294.338 97.38 294.338 97.996V101.748H295.332V102H290.964V101.748H291.734V95.588H290.964V95.336H294.338V96.68C294.46 96.204 294.693 95.84 295.038 95.588C295.384 95.3267 295.776 95.196 296.214 95.196C296.653 95.196 297.008 95.322 297.278 95.574C297.558 95.8167 297.698 96.1667 297.698 96.624C297.698 97.072 297.596 97.4173 297.39 97.66C297.185 97.9027 296.868 98.024 296.438 98.024C296.018 98.024 295.706 97.884 295.5 97.604C295.304 97.324 295.281 96.9367 295.43 96.442H295.934C296.168 95.966 296.07 95.728 295.64 95.728ZM302.35 99.242V98.052C302.35 97.1467 302.298 96.4887 302.196 96.078C302.102 95.658 301.878 95.448 301.524 95.448C301.318 95.448 301.15 95.5087 301.02 95.63C300.898 95.742 300.81 95.9333 300.754 96.204C300.67 96.624 300.628 97.2633 300.628 98.122V99.214C300.628 100.231 300.656 100.843 300.712 101.048C300.777 101.253 300.842 101.421 300.908 101.552C301.01 101.776 301.211 101.888 301.51 101.888C301.874 101.888 302.112 101.678 302.224 101.258C302.308 100.959 302.35 100.287 302.35 99.242ZM301.482 102.14C300.315 102.14 299.433 101.841 298.836 101.244C298.238 100.647 297.94 99.7927 297.94 98.682C297.94 97.562 298.257 96.7033 298.892 96.106C299.536 95.4993 300.436 95.196 301.594 95.196C302.751 95.196 303.614 95.476 304.184 96.036C304.753 96.5867 305.038 97.4313 305.038 98.57C305.038 100.95 303.852 102.14 301.482 102.14ZM308.803 95.336V100.796C308.803 102.327 308.537 103.493 308.005 104.296C307.482 105.099 306.624 105.5 305.429 105.5C304.654 105.5 304.09 105.346 303.735 105.038C303.371 104.73 303.189 104.371 303.189 103.96C303.189 103.549 303.31 103.232 303.553 103.008C303.796 102.793 304.099 102.686 304.463 102.686C304.827 102.686 305.102 102.784 305.289 102.98C305.466 103.185 305.555 103.409 305.555 103.652C305.555 103.895 305.527 104.128 305.471 104.352H304.939C304.79 104.604 304.771 104.819 304.883 104.996C304.986 105.173 305.177 105.262 305.457 105.262C305.746 105.262 305.942 105.099 306.045 104.772C306.148 104.455 306.199 103.792 306.199 102.784V95.588H305.289V95.336H308.803ZM307.473 94.37C306.978 94.37 306.624 94.244 306.409 93.992C306.204 93.74 306.101 93.4273 306.101 93.054C306.101 92.6807 306.213 92.3727 306.437 92.13C306.67 91.8873 307.02 91.766 307.487 91.766C307.954 91.766 308.308 91.878 308.551 92.102C308.794 92.3167 308.915 92.6293 308.915 93.04C308.915 93.4413 308.798 93.7633 308.565 94.006C308.332 94.2487 307.968 94.37 307.473 94.37ZM313.459 102.14C312.255 102.14 311.349 101.832 310.743 101.216C310.145 100.591 309.847 99.7273 309.847 98.626C309.847 97.5153 310.183 96.666 310.855 96.078C311.536 95.49 312.399 95.196 313.445 95.196C315.563 95.196 316.581 96.26 316.497 98.388H312.549V98.934C312.549 99.8487 312.665 100.539 312.899 101.006C313.132 101.473 313.538 101.706 314.117 101.706C315.199 101.706 315.909 101.127 316.245 99.97L316.497 100.012C316.319 100.684 315.997 101.207 315.531 101.58C315.073 101.953 314.383 102.14 313.459 102.14ZM312.563 98.108H314.005V97.422C314.005 96.666 313.958 96.1527 313.865 95.882C313.781 95.602 313.603 95.462 313.333 95.462C313.071 95.462 312.875 95.6113 312.745 95.91C312.623 96.1993 312.563 96.7033 312.563 97.422V98.108ZM320.915 95.448C320.505 95.448 320.211 95.672 320.033 96.12C319.856 96.568 319.767 97.31 319.767 98.346V99.074C319.767 99.998 319.87 100.661 320.075 101.062C320.281 101.463 320.659 101.664 321.209 101.664C321.76 101.664 322.199 101.477 322.525 101.104C322.852 100.731 323.062 100.306 323.155 99.83L323.407 99.858C323.23 100.661 322.903 101.239 322.427 101.594C321.942 101.958 321.275 102.14 320.425 102.14C319.343 102.14 318.512 101.851 317.933 101.272C317.355 100.684 317.065 99.83 317.065 98.71C317.065 97.5807 317.392 96.7127 318.045 96.106C318.708 95.4993 319.627 95.196 320.803 95.196C321.634 95.196 322.269 95.3593 322.707 95.686C323.146 96.0033 323.365 96.4047 323.365 96.89C323.365 97.3753 323.258 97.73 323.043 97.954C322.838 98.178 322.549 98.29 322.175 98.29C321.811 98.29 321.517 98.192 321.293 97.996C321.069 97.8 320.957 97.5107 320.957 97.128C320.957 96.96 320.981 96.792 321.027 96.624H321.489C321.555 96.4373 321.587 96.2693 321.587 96.12C321.587 95.672 321.363 95.448 320.915 95.448ZM324.463 99.998V95.588H323.693V95.336H324.463V93.53L327.067 92.886V95.336H328.887V95.588H327.067V100.306C327.067 100.745 327.109 101.067 327.193 101.272C327.286 101.477 327.473 101.58 327.753 101.58C328.033 101.58 328.276 101.44 328.481 101.16C328.696 100.88 328.836 100.497 328.901 100.012L329.139 100.04C329.064 100.684 328.859 101.197 328.523 101.58C328.187 101.953 327.632 102.14 326.857 102.14C326.082 102.14 325.49 101.986 325.079 101.678C324.668 101.37 324.463 100.81 324.463 99.998ZM329.595 102.14V99.634H329.763C330.005 100.446 330.332 101.015 330.743 101.342C331.153 101.669 331.667 101.832 332.283 101.832C333.235 101.832 333.711 101.529 333.711 100.922C333.711 100.661 333.594 100.465 333.361 100.334C332.997 100.129 332.53 99.97 331.961 99.858C331.326 99.69 330.794 99.466 330.365 99.186C329.851 98.85 329.595 98.318 329.595 97.59C329.595 96.862 329.819 96.2833 330.267 95.854C330.715 95.4153 331.312 95.196 332.059 95.196C332.516 95.196 332.987 95.3033 333.473 95.518C333.65 95.5927 333.785 95.63 333.879 95.63C333.972 95.63 334.051 95.5973 334.117 95.532C334.182 95.4667 334.261 95.3453 334.355 95.168H334.509V97.31H334.341C333.865 96.0967 333.127 95.49 332.129 95.49C331.69 95.49 331.363 95.5693 331.149 95.728C330.934 95.8773 330.827 96.0687 330.827 96.302C330.827 96.442 330.859 96.554 330.925 96.638C330.99 96.7127 331.041 96.7687 331.079 96.806C331.116 96.8433 331.177 96.8853 331.261 96.932C331.345 96.9693 331.415 97.002 331.471 97.03C331.527 97.0487 331.611 97.0767 331.723 97.114C331.844 97.1513 331.933 97.1747 331.989 97.184C332.623 97.3427 333.081 97.4827 333.361 97.604C333.641 97.716 333.907 97.856 334.159 98.024C334.672 98.3787 334.929 98.9527 334.929 99.746C334.929 100.53 334.695 101.127 334.229 101.538C333.762 101.939 333.123 102.14 332.311 102.14C331.732 102.14 331.172 102.005 330.631 101.734C330.519 101.659 330.43 101.622 330.365 101.622C330.159 101.622 329.959 101.795 329.763 102.14H329.595ZM335.889 90.87L340.019 103.358H339.431L335.315 90.87H335.889ZM340.461 92.2H344.731V92.466H343.961V101.734H344.731V102H340.461V101.734H341.231V92.466H340.461V92.2ZM344.664 95.588V95.336H348.85V95.588H347.968L349.648 100.236L351.16 95.588H350.222V95.336H352.112V95.588H351.496L349.424 102H347.828L345.238 95.588H344.664ZM355.191 98.71H355.597V97.632C355.597 96.7453 355.546 96.1527 355.443 95.854C355.35 95.546 355.163 95.392 354.883 95.392C354.715 95.392 354.561 95.4387 354.421 95.532C354.291 95.616 354.225 95.7373 354.225 95.896C354.225 96.0453 354.253 96.1993 354.309 96.358H354.659C354.734 96.554 354.771 96.792 354.771 97.072C354.771 97.3427 354.655 97.5807 354.421 97.786C354.188 97.982 353.894 98.08 353.539 98.08C352.737 98.08 352.335 97.6927 352.335 96.918C352.335 95.77 353.311 95.196 355.261 95.196C356.372 95.196 357.137 95.3873 357.557 95.77C357.987 96.1433 358.201 96.834 358.201 97.842V100.684C358.201 101.169 358.337 101.412 358.607 101.412C358.925 101.412 359.111 100.931 359.167 99.97L359.377 99.984C359.34 100.805 359.186 101.37 358.915 101.678C358.645 101.986 358.201 102.14 357.585 102.14C356.465 102.14 355.821 101.795 355.653 101.104C355.532 101.459 355.35 101.72 355.107 101.888C354.865 102.056 354.51 102.14 354.043 102.14C352.662 102.14 351.971 101.575 351.971 100.446C351.971 99.7833 352.233 99.3307 352.755 99.088C353.287 98.836 354.099 98.71 355.191 98.71ZM354.631 100.432C354.631 100.917 354.655 101.23 354.701 101.37C354.757 101.51 354.855 101.58 354.995 101.58C355.145 101.58 355.28 101.463 355.401 101.23C355.532 100.987 355.597 100.656 355.597 100.236V98.934H355.499C354.921 98.934 354.631 99.3587 354.631 100.208V100.432ZM359.543 95.336H362.917V96.624C363.066 96.1947 363.295 95.8493 363.603 95.588C363.911 95.3267 364.378 95.196 365.003 95.196C366.45 95.196 367.173 95.9753 367.173 97.534V101.748H367.957V102H363.995V101.748H364.569V97.198C364.569 96.638 364.532 96.2787 364.457 96.12C364.382 95.952 364.247 95.868 364.051 95.868C363.752 95.868 363.486 96.064 363.253 96.456C363.029 96.848 362.917 97.324 362.917 97.884V101.748H363.519V102H359.543V101.748H360.313V95.588H359.543V95.336ZM368.17 95.336H371.544V96.624C371.693 96.1947 371.922 95.8493 372.23 95.588C372.538 95.3267 373.005 95.196 373.63 95.196C375.077 95.196 375.8 95.9753 375.8 97.534V101.748H376.584V102H372.622V101.748H373.196V97.198C373.196 96.638 373.159 96.2787 373.084 96.12C373.009 95.952 372.874 95.868 372.678 95.868C372.379 95.868 372.113 96.064 371.88 96.456C371.656 96.848 371.544 97.324 371.544 97.884V101.748H372.146V102H368.17V101.748H368.94V95.588H368.17V95.336ZM380.129 98.71H380.535V97.632C380.535 96.7453 380.484 96.1527 380.381 95.854C380.288 95.546 380.101 95.392 379.821 95.392C379.653 95.392 379.499 95.4387 379.359 95.532C379.228 95.616 379.163 95.7373 379.163 95.896C379.163 96.0453 379.191 96.1993 379.247 96.358H379.597C379.672 96.554 379.709 96.792 379.709 97.072C379.709 97.3427 379.592 97.5807 379.359 97.786C379.126 97.982 378.832 98.08 378.477 98.08C377.674 98.08 377.273 97.6927 377.273 96.918C377.273 95.77 378.248 95.196 380.199 95.196C381.31 95.196 382.075 95.3873 382.495 95.77C382.924 96.1433 383.139 96.834 383.139 97.842V100.684C383.139 101.169 383.274 101.412 383.545 101.412C383.862 101.412 384.049 100.931 384.105 99.97L384.315 99.984C384.278 100.805 384.124 101.37 383.853 101.678C383.582 101.986 383.139 102.14 382.523 102.14C381.403 102.14 380.759 101.795 380.591 101.104C380.47 101.459 380.288 101.72 380.045 101.888C379.802 102.056 379.448 102.14 378.981 102.14C377.6 102.14 376.909 101.575 376.909 100.446C376.909 99.7833 377.17 99.3307 377.693 99.088C378.225 98.836 379.037 98.71 380.129 98.71ZM379.569 100.432C379.569 100.917 379.592 101.23 379.639 101.37C379.695 101.51 379.793 101.58 379.933 101.58C380.082 101.58 380.218 101.463 380.339 101.23C380.47 100.987 380.535 100.656 380.535 100.236V98.934H380.437C379.858 98.934 379.569 99.3587 379.569 100.208V100.432ZM385.013 98.108V97.688H388.541V98.108H385.013ZM389.444 92.2H393.56C394.97 92.2 396.02 92.4053 396.71 92.816C397.401 93.2173 397.746 93.9407 397.746 94.986C397.746 96.1433 397.326 96.9413 396.486 97.38C395.702 97.7813 394.606 97.982 393.196 97.982H393.084V101.734H394.834V102H389.444V101.734H390.354V92.466H389.444V92.2ZM393.084 92.466V97.716H393.378C393.938 97.716 394.326 97.5247 394.54 97.142C394.755 96.7593 394.862 96.1387 394.862 95.28V94.608C394.862 93.8147 394.76 93.2593 394.554 92.942C394.358 92.6247 393.994 92.466 393.462 92.466H393.084ZM401.506 102.14C400.302 102.14 399.396 101.832 398.79 101.216C398.192 100.591 397.894 99.7273 397.894 98.626C397.894 97.5153 398.23 96.666 398.902 96.078C399.583 95.49 400.446 95.196 401.492 95.196C403.61 95.196 404.628 96.26 404.544 98.388H400.596V98.934C400.596 99.8487 400.712 100.539 400.946 101.006C401.179 101.473 401.585 101.706 402.164 101.706C403.246 101.706 403.956 101.127 404.292 99.97L404.544 100.012C404.366 100.684 404.044 101.207 403.578 101.58C403.12 101.953 402.43 102.14 401.506 102.14ZM400.61 98.108H402.052V97.422C402.052 96.666 402.005 96.1527 401.912 95.882C401.828 95.602 401.65 95.462 401.38 95.462C401.118 95.462 400.922 95.6113 400.792 95.91C400.67 96.1993 400.61 96.7033 400.61 97.422V98.108ZM409.718 95.728C409.373 95.728 409.07 95.952 408.808 96.4C408.547 96.848 408.416 97.38 408.416 97.996V101.748H409.41V102H405.042V101.748H405.812V95.588H405.042V95.336H408.416V96.68C408.538 96.204 408.771 95.84 409.116 95.588C409.462 95.3267 409.854 95.196 410.292 95.196C410.731 95.196 411.086 95.322 411.356 95.574C411.636 95.8167 411.776 96.1667 411.776 96.624C411.776 97.072 411.674 97.4173 411.468 97.66C411.263 97.9027 410.946 98.024 410.516 98.024C410.096 98.024 409.784 97.884 409.578 97.604C409.382 97.324 409.359 96.9367 409.508 96.442H410.012C410.246 95.966 410.148 95.728 409.718 95.728ZM412.132 102.14V99.634H412.3C412.543 100.446 412.869 101.015 413.28 101.342C413.691 101.669 414.204 101.832 414.82 101.832C415.772 101.832 416.248 101.529 416.248 100.922C416.248 100.661 416.131 100.465 415.898 100.334C415.534 100.129 415.067 99.97 414.498 99.858C413.863 99.69 413.331 99.466 412.902 99.186C412.389 98.85 412.132 98.318 412.132 97.59C412.132 96.862 412.356 96.2833 412.804 95.854C413.252 95.4153 413.849 95.196 414.596 95.196C415.053 95.196 415.525 95.3033 416.01 95.518C416.187 95.5927 416.323 95.63 416.416 95.63C416.509 95.63 416.589 95.5973 416.654 95.532C416.719 95.4667 416.799 95.3453 416.892 95.168H417.046V97.31H416.878C416.402 96.0967 415.665 95.49 414.666 95.49C414.227 95.49 413.901 95.5693 413.686 95.728C413.471 95.8773 413.364 96.0687 413.364 96.302C413.364 96.442 413.397 96.554 413.462 96.638C413.527 96.7127 413.579 96.7687 413.616 96.806C413.653 96.8433 413.714 96.8853 413.798 96.932C413.882 96.9693 413.952 97.002 414.008 97.03C414.064 97.0487 414.148 97.0767 414.26 97.114C414.381 97.1513 414.47 97.1747 414.526 97.184C415.161 97.3427 415.618 97.4827 415.898 97.604C416.178 97.716 416.444 97.856 416.696 98.024C417.209 98.3787 417.466 98.9527 417.466 99.746C417.466 100.53 417.233 101.127 416.766 101.538C416.299 101.939 415.66 102.14 414.848 102.14C414.269 102.14 413.709 102.005 413.168 101.734C413.056 101.659 412.967 101.622 412.902 101.622C412.697 101.622 412.496 101.795 412.3 102.14H412.132ZM422.402 99.242V98.052C422.402 97.1467 422.351 96.4887 422.248 96.078C422.155 95.658 421.931 95.448 421.576 95.448C421.371 95.448 421.203 95.5087 421.072 95.63C420.951 95.742 420.862 95.9333 420.806 96.204C420.722 96.624 420.68 97.2633 420.68 98.122V99.214C420.68 100.231 420.708 100.843 420.764 101.048C420.83 101.253 420.895 101.421 420.96 101.552C421.063 101.776 421.264 101.888 421.562 101.888C421.926 101.888 422.164 101.678 422.276 101.258C422.36 100.959 422.402 100.287 422.402 99.242ZM421.534 102.14C420.368 102.14 419.486 101.841 418.888 101.244C418.291 100.647 417.992 99.7927 417.992 98.682C417.992 97.562 418.31 96.7033 418.944 96.106C419.588 95.4993 420.489 95.196 421.646 95.196C422.804 95.196 423.667 95.476 424.236 96.036C424.806 96.5867 425.09 97.4313 425.09 98.57C425.09 100.95 423.905 102.14 421.534 102.14ZM425.51 95.336H428.884V96.624C429.033 96.1947 429.262 95.8493 429.57 95.588C429.878 95.3267 430.344 95.196 430.97 95.196C432.416 95.196 433.14 95.9753 433.14 97.534V101.748H433.924V102H429.962V101.748H430.536V97.198C430.536 96.638 430.498 96.2787 430.424 96.12C430.349 95.952 430.214 95.868 430.018 95.868C429.719 95.868 429.453 96.064 429.22 96.456C428.996 96.848 428.884 97.324 428.884 97.884V101.748H429.486V102H425.51V101.748H426.28V95.588H425.51V95.336ZM437.469 98.71H437.875V97.632C437.875 96.7453 437.823 96.1527 437.721 95.854C437.627 95.546 437.441 95.392 437.161 95.392C436.993 95.392 436.839 95.4387 436.699 95.532C436.568 95.616 436.503 95.7373 436.503 95.896C436.503 96.0453 436.531 96.1993 436.587 96.358H436.937C437.011 96.554 437.049 96.792 437.049 97.072C437.049 97.3427 436.932 97.5807 436.699 97.786C436.465 97.982 436.171 98.08 435.817 98.08C435.014 98.08 434.613 97.6927 434.613 96.918C434.613 95.77 435.588 95.196 437.539 95.196C438.649 95.196 439.415 95.3873 439.835 95.77C440.264 96.1433 440.479 96.834 440.479 97.842V100.684C440.479 101.169 440.614 101.412 440.885 101.412C441.202 101.412 441.389 100.931 441.445 99.97L441.655 99.984C441.617 100.805 441.463 101.37 441.193 101.678C440.922 101.986 440.479 102.14 439.863 102.14C438.743 102.14 438.099 101.795 437.931 101.104C437.809 101.459 437.627 101.72 437.385 101.888C437.142 102.056 436.787 102.14 436.321 102.14C434.939 102.14 434.249 101.575 434.249 100.446C434.249 99.7833 434.51 99.3307 435.033 99.088C435.565 98.836 436.377 98.71 437.469 98.71ZM436.909 100.432C436.909 100.917 436.932 101.23 436.979 101.37C437.035 101.51 437.133 101.58 437.273 101.58C437.422 101.58 437.557 101.463 437.679 101.23C437.809 100.987 437.875 100.656 437.875 100.236V98.934H437.777C437.198 98.934 436.909 99.3587 436.909 100.208V100.432ZM441.736 91.5H445.166V101.748H445.95V102H441.792V101.748H442.562V91.752H441.736V91.5ZM446.782 98.108V97.688H450.31V98.108H446.782ZM456.94 99.172L458.102 95.14L457.262 92.466H456.464V92.2H460.804V92.466H459.978L462.064 99.088L463.744 92.466H462.33V92.2H465.13V92.466H464.206L461.63 102.14H460.384L458.312 95.812L456.492 102.14H455.274L451.746 92.466H451.088V92.2H455.638V92.466H454.658L456.94 99.172ZM467.91 102.14C466.706 102.14 465.801 101.832 465.194 101.216C464.597 100.591 464.298 99.7273 464.298 98.626C464.298 97.5153 464.634 96.666 465.306 96.078C465.987 95.49 466.851 95.196 467.896 95.196C470.015 95.196 471.032 96.26 470.948 98.388H467V98.934C467 99.8487 467.117 100.539 467.35 101.006C467.583 101.473 467.989 101.706 468.568 101.706C469.651 101.706 470.36 101.127 470.696 99.97L470.948 100.012C470.771 100.684 470.449 101.207 469.982 101.58C469.525 101.953 468.834 102.14 467.91 102.14ZM467.014 98.108H468.456V97.422C468.456 96.666 468.409 96.1527 468.316 95.882C468.232 95.602 468.055 95.462 467.784 95.462C467.523 95.462 467.327 95.6113 467.196 95.91C467.075 96.1993 467.014 96.7033 467.014 97.422V98.108ZM476.557 98.234C476.557 97.2727 476.51 96.6287 476.417 96.302C476.323 95.966 476.141 95.798 475.871 95.798C475.6 95.798 475.357 95.966 475.143 96.302C474.928 96.638 474.821 97.1 474.821 97.688V100.292C474.821 100.693 474.9 101.034 475.059 101.314C475.227 101.594 475.46 101.734 475.759 101.734C476.067 101.734 476.277 101.529 476.389 101.118C476.501 100.707 476.557 99.9887 476.557 98.962V98.234ZM474.821 91.5V96.4C475.175 95.5973 475.782 95.196 476.641 95.196C478.386 95.196 479.259 96.358 479.259 98.682C479.259 99.8673 479.016 100.74 478.531 101.3C478.055 101.86 477.336 102.14 476.375 102.14C475.889 102.14 475.516 102.065 475.255 101.916C475.003 101.767 474.83 101.519 474.737 101.174L474.639 102H471.447V101.748H472.217V91.752H471.447V91.5H474.821ZM479.999 102.14V99.634H480.167C480.41 100.446 480.736 101.015 481.147 101.342C481.558 101.669 482.071 101.832 482.687 101.832C483.639 101.832 484.115 101.529 484.115 100.922C484.115 100.661 483.998 100.465 483.765 100.334C483.401 100.129 482.934 99.97 482.365 99.858C481.73 99.69 481.198 99.466 480.769 99.186C480.256 98.85 479.999 98.318 479.999 97.59C479.999 96.862 480.223 96.2833 480.671 95.854C481.119 95.4153 481.716 95.196 482.463 95.196C482.92 95.196 483.392 95.3033 483.877 95.518C484.054 95.5927 484.19 95.63 484.283 95.63C484.376 95.63 484.456 95.5973 484.521 95.532C484.586 95.4667 484.666 95.3453 484.759 95.168H484.913V97.31H484.745C484.269 96.0967 483.532 95.49 482.533 95.49C482.094 95.49 481.768 95.5693 481.553 95.728C481.338 95.8773 481.231 96.0687 481.231 96.302C481.231 96.442 481.264 96.554 481.329 96.638C481.394 96.7127 481.446 96.7687 481.483 96.806C481.52 96.8433 481.581 96.8853 481.665 96.932C481.749 96.9693 481.819 97.002 481.875 97.03C481.931 97.0487 482.015 97.0767 482.127 97.114C482.248 97.1513 482.337 97.1747 482.393 97.184C483.028 97.3427 483.485 97.4827 483.765 97.604C484.045 97.716 484.311 97.856 484.563 98.024C485.076 98.3787 485.333 98.9527 485.333 99.746C485.333 100.53 485.1 101.127 484.633 101.538C484.166 101.939 483.527 102.14 482.715 102.14C482.136 102.14 481.576 102.005 481.035 101.734C480.923 101.659 480.834 101.622 480.769 101.622C480.564 101.622 480.363 101.795 480.167 102.14H479.999ZM487.805 94.37C487.311 94.37 486.956 94.244 486.741 93.992C486.536 93.74 486.433 93.4273 486.433 93.054C486.433 92.6807 486.545 92.3727 486.769 92.13C487.003 91.8873 487.353 91.766 487.819 91.766C488.286 91.766 488.641 91.878 488.883 92.102C489.126 92.3167 489.247 92.6293 489.247 93.04C489.247 93.4413 489.131 93.7633 488.897 94.006C488.664 94.2487 488.3 94.37 487.805 94.37ZM485.691 95.336H489.121V101.748H489.905V102H485.747V101.748H486.517V95.588H485.691V95.336ZM490.891 99.998V95.588H490.121V95.336H490.891V93.53L493.495 92.886V95.336H495.315V95.588H493.495V100.306C493.495 100.745 493.537 101.067 493.621 101.272C493.714 101.477 493.901 101.58 494.181 101.58C494.461 101.58 494.703 101.44 494.909 101.16C495.123 100.88 495.263 100.497 495.329 100.012L495.567 100.04C495.492 100.684 495.287 101.197 494.951 101.58C494.615 101.953 494.059 102.14 493.285 102.14C492.51 102.14 491.917 101.986 491.507 101.678C491.096 101.37 490.891 100.81 490.891 99.998ZM499.383 102.14C498.179 102.14 497.273 101.832 496.667 101.216C496.069 100.591 495.771 99.7273 495.771 98.626C495.771 97.5153 496.107 96.666 496.779 96.078C497.46 95.49 498.323 95.196 499.369 95.196C501.487 95.196 502.505 96.26 502.421 98.388H498.473V98.934C498.473 99.8487 498.589 100.539 498.823 101.006C499.056 101.473 499.462 101.706 500.041 101.706C501.123 101.706 501.833 101.127 502.169 99.97L502.421 100.012C502.243 100.684 501.921 101.207 501.455 101.58C500.997 101.953 500.307 102.14 499.383 102.14ZM498.487 98.108H499.929V97.422C499.929 96.666 499.882 96.1527 499.789 95.882C499.705 95.602 499.527 95.462 499.257 95.462C498.995 95.462 498.799 95.6113 498.669 95.91C498.547 96.1993 498.487 96.7033 498.487 97.422V98.108ZM503.325 95.042L509.653 97.758V98.122L503.325 100.796V100.306L508.897 97.926L503.325 95.56V95.042Z" fill="white"/>
<g filter="url(#filter0_d_440_311)">
<rect y="117" width="726" height="399" rx="15" fill="#9784B6"/>
</g>
<path d="M0 132C0 123.716 6.71573 117 15 117H711C719.284 117 726 123.716 726 132V184H0V132Z" fill="#5D536B"/>
<rect x="664" y="129" width="42" height="43" rx="5" fill="#A49CA7"/>
<line x1="675.686" y1="141.273" x2="695.319" y2="159.808" stroke="white" stroke-width="2"/>
<line x1="674.619" y1="160.279" x2="694.063" y2="141.546" stroke="white" stroke-width="2"/>
<path d="M30.6 144.416C28.12 144.416 26.88 146.808 26.88 151.592V153.488C26.88 155.76 27.208 157.544 27.864 158.84C28.52 160.12 29.488 160.76 30.768 160.76C32.528 160.76 34.144 159.048 35.616 155.624H36.048L35.88 160.976H35.616C35.52 160.8 35.432 160.68 35.352 160.616C35.272 160.536 35.152 160.496 34.992 160.496C34.848 160.496 34.272 160.624 33.264 160.88C32.256 161.12 31.232 161.24 30.192 161.24C27.584 161.24 25.56 160.536 24.12 159.128C22.696 157.72 21.984 155.608 21.984 152.792C21.984 149.96 22.728 147.776 24.216 146.24C25.72 144.704 27.736 143.936 30.264 143.936C31.24 143.936 32.192 144.064 33.12 144.32C34.064 144.56 34.616 144.68 34.776 144.68C34.936 144.68 35.056 144.648 35.136 144.584C35.216 144.504 35.304 144.376 35.4 144.2H35.664L35.856 149.408H35.424C34.704 147.792 33.96 146.56 33.192 145.712C32.44 144.848 31.576 144.416 30.6 144.416ZM40.7143 153.296C40.0263 153.296 39.5063 153.096 39.1543 152.696C38.8183 152.28 38.6503 151.784 38.6503 151.208C38.6503 150.616 38.8263 150.12 39.1783 149.72C39.5463 149.32 40.0583 149.12 40.7143 149.12C41.3703 149.12 41.8903 149.288 42.2743 149.624C42.6583 149.96 42.8503 150.464 42.8503 151.136C42.8503 151.808 42.6663 152.336 42.2983 152.72C41.9463 153.104 41.4183 153.296 40.7143 153.296ZM40.7143 161.24C40.0263 161.24 39.5063 161.04 39.1543 160.64C38.8183 160.224 38.6503 159.728 38.6503 159.152C38.6503 158.56 38.8263 158.064 39.1783 157.664C39.5463 157.264 40.0583 157.064 40.7143 157.064C41.3703 157.064 41.8903 157.232 42.2743 157.568C42.6583 157.904 42.8503 158.408 42.8503 159.08C42.8503 159.752 42.6663 160.28 42.2983 160.664C41.9463 161.048 41.4183 161.24 40.7143 161.24ZM50.4259 155.888C50.4259 157.36 50.6739 158.488 51.1699 159.272C51.6819 160.056 52.5939 160.448 53.9059 160.448C55.2179 160.448 56.2259 160.04 56.9299 159.224C57.6339 158.408 57.9859 157.168 57.9859 155.504V144.656H56.4259V144.2H59.9299V144.656H58.6099V155.336C58.6099 157.32 58.1699 158.8 57.2899 159.776C56.4099 160.752 54.8499 161.24 52.6099 161.24C50.3859 161.24 48.6819 160.776 47.4979 159.848C46.3299 158.92 45.7459 157.328 45.7459 155.072V144.656H44.4259V144.2H51.9859V144.656H50.4259V155.888ZM60.8623 161.24V156.944H61.1503C61.5663 158.336 62.1263 159.312 62.8303 159.872C63.5343 160.432 64.4143 160.712 65.4703 160.712C67.1023 160.712 67.9183 160.192 67.9183 159.152C67.9183 158.704 67.7183 158.368 67.3183 158.144C66.6943 157.792 65.8943 157.52 64.9183 157.328C63.8303 157.04 62.9183 156.656 62.1823 156.176C61.3023 155.6 60.8623 154.688 60.8623 153.44C60.8623 152.192 61.2463 151.2 62.0143 150.464C62.7823 149.712 63.8063 149.336 65.0863 149.336C65.8703 149.336 66.6783 149.52 67.5103 149.888C67.8143 150.016 68.0463 150.08 68.2063 150.08C68.3663 150.08 68.5023 150.024 68.6143 149.912C68.7263 149.8 68.8623 149.592 69.0223 149.288H69.2863V152.96H68.9983C68.1823 150.88 66.9183 149.84 65.2063 149.84C64.4543 149.84 63.8943 149.976 63.5263 150.248C63.1583 150.504 62.9743 150.832 62.9743 151.232C62.9743 151.472 63.0303 151.664 63.1423 151.808C63.2543 151.936 63.3423 152.032 63.4063 152.096C63.4703 152.16 63.5743 152.232 63.7183 152.312C63.8623 152.376 63.9823 152.432 64.0783 152.48C64.1743 152.512 64.3183 152.56 64.5103 152.624C64.7183 152.688 64.8703 152.728 64.9663 152.744C66.0543 153.016 66.8383 153.256 67.3183 153.464C67.7983 153.656 68.2543 153.896 68.6863 154.184C69.5663 154.792 70.0063 155.776 70.0063 157.136C70.0063 158.48 69.6063 159.504 68.8063 160.208C68.0063 160.896 66.9103 161.24 65.5183 161.24C64.5263 161.24 63.5663 161.008 62.6383 160.544C62.4463 160.416 62.2943 160.352 62.1823 160.352C61.8303 160.352 61.4863 160.648 61.1503 161.24H60.8623ZM77.0286 161.24C74.9646 161.24 73.4126 160.712 72.3726 159.656C71.3486 158.584 70.8366 157.104 70.8366 155.216C70.8366 153.312 71.4126 151.856 72.5646 150.848C73.7326 149.84 75.2126 149.336 77.0046 149.336C80.6366 149.336 82.3806 151.16 82.2366 154.808H75.4686V155.744C75.4686 157.312 75.6686 158.496 76.0686 159.296C76.4686 160.096 77.1646 160.496 78.1566 160.496C80.0126 160.496 81.2286 159.504 81.8046 157.52L82.2366 157.592C81.9326 158.744 81.3806 159.64 80.5806 160.28C79.7966 160.92 78.6126 161.24 77.0286 161.24ZM75.4926 154.328H77.9646V153.152C77.9646 151.856 77.8846 150.976 77.7246 150.512C77.5806 150.032 77.2766 149.792 76.8126 149.792C76.3646 149.792 76.0286 150.048 75.8046 150.56C75.5966 151.056 75.4926 151.92 75.4926 153.152V154.328ZM91.1076 150.248C90.5156 150.248 89.9956 150.632 89.5476 151.4C89.0996 152.168 88.8756 153.08 88.8756 154.136V160.568H90.5796V161H83.0916V160.568H84.4116V150.008H83.0916V149.576H88.8756V151.88C89.0836 151.064 89.4836 150.44 90.0756 150.008C90.6676 149.56 91.3396 149.336 92.0916 149.336C92.8436 149.336 93.4516 149.552 93.9156 149.984C94.3956 150.4 94.6356 151 94.6356 151.784C94.6356 152.552 94.4596 153.144 94.1076 153.56C93.7556 153.976 93.2116 154.184 92.4756 154.184C91.7556 154.184 91.2196 153.944 90.8676 153.464C90.5316 152.984 90.4916 152.32 90.7476 151.472H91.6116C92.0116 150.656 91.8436 150.248 91.1076 150.248ZM95.2451 161.24V156.944H95.5331C95.9491 158.336 96.5091 159.312 97.2131 159.872C97.9171 160.432 98.7971 160.712 99.8531 160.712C101.485 160.712 102.301 160.192 102.301 159.152C102.301 158.704 102.101 158.368 101.701 158.144C101.077 157.792 100.277 157.52 99.3011 157.328C98.2131 157.04 97.3011 156.656 96.5651 156.176C95.6851 155.6 95.2451 154.688 95.2451 153.44C95.2451 152.192 95.6291 151.2 96.3971 150.464C97.1651 149.712 98.1891 149.336 99.4691 149.336C100.253 149.336 101.061 149.52 101.893 149.888C102.197 150.016 102.429 150.08 102.589 150.08C102.749 150.08 102.885 150.024 102.997 149.912C103.109 149.8 103.245 149.592 103.405 149.288H103.669V152.96H103.381C102.565 150.88 101.301 149.84 99.5891 149.84C98.8371 149.84 98.2771 149.976 97.9091 150.248C97.5411 150.504 97.3571 150.832 97.3571 151.232C97.3571 151.472 97.4131 151.664 97.5251 151.808C97.6371 151.936 97.7251 152.032 97.7891 152.096C97.8531 152.16 97.9571 152.232 98.1011 152.312C98.2451 152.376 98.3651 152.432 98.4611 152.48C98.5571 152.512 98.7011 152.56 98.8931 152.624C99.1011 152.688 99.2531 152.728 99.3491 152.744C100.437 153.016 101.221 153.256 101.701 153.464C102.181 153.656 102.637 153.896 103.069 154.184C103.949 154.792 104.389 155.776 104.389 157.136C104.389 158.48 103.989 159.504 103.189 160.208C102.389 160.896 101.293 161.24 99.9011 161.24C98.9091 161.24 97.9491 161.008 97.0211 160.544C96.8291 160.416 96.6771 160.352 96.5651 160.352C96.2131 160.352 95.8691 160.648 95.5331 161.24H95.2451ZM106.035 141.92L113.115 163.328H112.107L105.051 141.92H106.035ZM113.873 144.2H121.193V144.656H119.873V160.544H121.193V161H113.873V160.544H115.193V144.656H113.873V144.2ZM121.078 150.008V149.576H128.254V150.008H126.742L129.622 157.976L132.214 150.008H130.606V149.576H133.846V150.008H132.79L129.238 161H126.502L122.062 150.008H121.078ZM139.125 155.36H139.821V153.512C139.821 151.992 139.733 150.976 139.557 150.464C139.397 149.936 139.077 149.672 138.597 149.672C138.309 149.672 138.045 149.752 137.805 149.912C137.581 150.056 137.469 150.264 137.469 150.536C137.469 150.792 137.517 151.056 137.613 151.328H138.213C138.341 151.664 138.405 152.072 138.405 152.552C138.405 153.016 138.205 153.424 137.805 153.776C137.405 154.112 136.901 154.28 136.293 154.28C134.917 154.28 134.229 153.616 134.229 152.288C134.229 150.32 135.901 149.336 139.245 149.336C141.149 149.336 142.461 149.664 143.181 150.32C143.917 150.96 144.285 152.144 144.285 153.872V158.744C144.285 159.576 144.517 159.992 144.981 159.992C145.525 159.992 145.845 159.168 145.941 157.52L146.301 157.544C146.237 158.952 145.973 159.92 145.509 160.448C145.045 160.976 144.285 161.24 143.229 161.24C141.309 161.24 140.205 160.648 139.917 159.464C139.709 160.072 139.397 160.52 138.981 160.808C138.565 161.096 137.957 161.24 137.157 161.24C134.789 161.24 133.605 160.272 133.605 158.336C133.605 157.2 134.053 156.424 134.949 156.008C135.861 155.576 137.253 155.36 139.125 155.36ZM138.165 158.312C138.165 159.144 138.205 159.68 138.285 159.92C138.381 160.16 138.549 160.28 138.789 160.28C139.045 160.28 139.277 160.08 139.485 159.68C139.709 159.264 139.821 158.696 139.821 157.976V155.744H139.653C138.661 155.744 138.165 156.472 138.165 157.928V158.312ZM146.585 149.576H152.369V151.784C152.625 151.048 153.017 150.456 153.545 150.008C154.073 149.56 154.873 149.336 155.945 149.336C158.425 149.336 159.665 150.672 159.665 153.344V160.568H161.009V161H154.217V160.568H155.201V152.768C155.201 151.808 155.137 151.192 155.009 150.92C154.881 150.632 154.649 150.488 154.313 150.488C153.801 150.488 153.345 150.824 152.945 151.496C152.561 152.168 152.369 152.984 152.369 153.944V160.568H153.401V161H146.585V160.568H147.905V150.008H146.585V149.576ZM161.374 149.576H167.158V151.784C167.414 151.048 167.806 150.456 168.334 150.008C168.862 149.56 169.662 149.336 170.734 149.336C173.214 149.336 174.454 150.672 174.454 153.344V160.568H175.798V161H169.006V160.568H169.99V152.768C169.99 151.808 169.926 151.192 169.798 150.92C169.67 150.632 169.438 150.488 169.102 150.488C168.59 150.488 168.134 150.824 167.734 151.496C167.35 152.168 167.158 152.984 167.158 153.944V160.568H168.19V161H161.374V160.568H162.694V150.008H161.374V149.576ZM181.875 155.36H182.571V153.512C182.571 151.992 182.483 150.976 182.307 150.464C182.147 149.936 181.827 149.672 181.347 149.672C181.059 149.672 180.795 149.752 180.555 149.912C180.331 150.056 180.219 150.264 180.219 150.536C180.219 150.792 180.267 151.056 180.363 151.328H180.963C181.091 151.664 181.155 152.072 181.155 152.552C181.155 153.016 180.955 153.424 180.555 153.776C180.155 154.112 179.651 154.28 179.043 154.28C177.667 154.28 176.979 153.616 176.979 152.288C176.979 150.32 178.651 149.336 181.995 149.336C183.899 149.336 185.211 149.664 185.931 150.32C186.667 150.96 187.035 152.144 187.035 153.872V158.744C187.035 159.576 187.267 159.992 187.731 159.992C188.275 159.992 188.595 159.168 188.691 157.52L189.051 157.544C188.987 158.952 188.723 159.92 188.259 160.448C187.795 160.976 187.035 161.24 185.979 161.24C184.059 161.24 182.955 160.648 182.667 159.464C182.459 160.072 182.147 160.52 181.731 160.808C181.315 161.096 180.707 161.24 179.907 161.24C177.539 161.24 176.355 160.272 176.355 158.336C176.355 157.2 176.803 156.424 177.699 156.008C178.611 155.576 180.003 155.36 181.875 155.36ZM180.915 158.312C180.915 159.144 180.955 159.68 181.035 159.92C181.131 160.16 181.299 160.28 181.539 160.28C181.795 160.28 182.027 160.08 182.235 159.68C182.459 159.264 182.571 158.696 182.571 157.976V155.744H182.403C181.411 155.744 180.915 156.472 180.915 157.928V158.312ZM188.535 141.92L195.615 163.328H194.607L187.551 141.92H188.535ZM196.133 144.2H203.189C205.605 144.2 207.405 144.552 208.589 145.256C209.773 145.944 210.365 147.184 210.365 148.976C210.365 150.96 209.645 152.328 208.205 153.08C206.861 153.768 204.981 154.112 202.565 154.112H202.373V160.544H205.373V161H196.133V160.544H197.693V144.656H196.133V144.2ZM202.373 144.656V153.656H202.877C203.837 153.656 204.501 153.328 204.869 152.672C205.237 152.016 205.421 150.952 205.421 149.48V148.328C205.421 146.968 205.245 146.016 204.893 145.472C204.557 144.928 203.933 144.656 203.021 144.656H202.373ZM218.25 156.272V154.232C218.25 152.68 218.162 151.552 217.986 150.848C217.826 150.128 217.442 149.768 216.834 149.768C216.482 149.768 216.194 149.872 215.97 150.08C215.762 150.272 215.61 150.6 215.514 151.064C215.37 151.784 215.298 152.88 215.298 154.352V156.224C215.298 157.968 215.346 159.016 215.442 159.368C215.554 159.72 215.666 160.008 215.778 160.232C215.954 160.616 216.298 160.808 216.81 160.808C217.434 160.808 217.842 160.448 218.034 159.728C218.178 159.216 218.25 158.064 218.25 156.272ZM216.762 161.24C214.762 161.24 213.25 160.728 212.226 159.704C211.202 158.68 210.69 157.216 210.69 155.312C210.69 153.392 211.234 151.92 212.322 150.896C213.426 149.856 214.97 149.336 216.954 149.336C218.938 149.336 220.418 149.816 221.394 150.776C222.37 151.72 222.858 153.168 222.858 155.12C222.858 159.2 220.826 161.24 216.762 161.24ZM231.545 150.248C230.953 150.248 230.433 150.632 229.985 151.4C229.537 152.168 229.313 153.08 229.313 154.136V160.568H231.017V161H223.529V160.568H224.849V150.008H223.529V149.576H229.313V151.88C229.521 151.064 229.921 150.44 230.513 150.008C231.105 149.56 231.777 149.336 232.529 149.336C233.281 149.336 233.889 149.552 234.353 149.984C234.833 150.4 235.073 151 235.073 151.784C235.073 152.552 234.897 153.144 234.545 153.56C234.193 153.976 233.649 154.184 232.913 154.184C232.193 154.184 231.657 153.944 231.305 153.464C230.969 152.984 230.929 152.32 231.185 151.472H232.049C232.449 150.656 232.281 150.248 231.545 150.248ZM236.612 157.568V150.008H235.292V149.576H236.612V146.48L241.076 145.376V149.576H244.196V150.008H241.076V158.096C241.076 158.848 241.148 159.4 241.292 159.752C241.452 160.104 241.772 160.28 242.252 160.28C242.732 160.28 243.148 160.04 243.5 159.56C243.868 159.08 244.108 158.424 244.22 157.592L244.628 157.64C244.5 158.744 244.148 159.624 243.572 160.28C242.996 160.92 242.044 161.24 240.716 161.24C239.388 161.24 238.372 160.976 237.668 160.448C236.964 159.92 236.612 158.96 236.612 157.568ZM252.129 142.856C251.521 142.856 251.121 143.088 250.929 143.552C250.737 144 250.641 144.728 250.641 145.736V149.576H253.809V150.008H250.641V160.568H253.569V161H244.857V160.568H246.177V150.008H244.785V149.576H246.177V149.48C246.177 147.176 246.617 145.432 247.497 144.248C248.377 143.048 249.849 142.448 251.913 142.448C253.273 142.448 254.249 142.72 254.841 143.264C255.433 143.792 255.729 144.408 255.729 145.112C255.729 145.816 255.545 146.344 255.177 146.696C254.809 147.048 254.321 147.224 253.713 147.224C253.105 147.224 252.633 147.072 252.297 146.768C251.977 146.448 251.817 146.088 251.817 145.688C251.817 145.272 251.865 144.872 251.961 144.488H252.873C253.193 143.4 252.945 142.856 252.129 142.856ZM261.328 156.272V154.232C261.328 152.68 261.24 151.552 261.064 150.848C260.904 150.128 260.52 149.768 259.912 149.768C259.56 149.768 259.272 149.872 259.048 150.08C258.84 150.272 258.688 150.6 258.592 151.064C258.448 151.784 258.376 152.88 258.376 154.352V156.224C258.376 157.968 258.424 159.016 258.52 159.368C258.632 159.72 258.744 160.008 258.856 160.232C259.032 160.616 259.376 160.808 259.888 160.808C260.512 160.808 260.92 160.448 261.112 159.728C261.256 159.216 261.328 158.064 261.328 156.272ZM259.84 161.24C257.84 161.24 256.328 160.728 255.304 159.704C254.28 158.68 253.768 157.216 253.768 155.312C253.768 153.392 254.312 151.92 255.4 150.896C256.504 149.856 258.048 149.336 260.032 149.336C262.016 149.336 263.496 149.816 264.472 150.776C265.448 151.72 265.936 153.168 265.936 155.12C265.936 159.2 263.904 161.24 259.84 161.24ZM266.511 143H272.391V160.568H273.735V161H266.607V160.568H267.927V143.432H266.511V143ZM277.729 147.92C276.881 147.92 276.273 147.704 275.905 147.272C275.553 146.84 275.377 146.304 275.377 145.664C275.377 145.024 275.569 144.496 275.953 144.08C276.353 143.664 276.953 143.456 277.753 143.456C278.553 143.456 279.161 143.648 279.577 144.032C279.993 144.4 280.201 144.936 280.201 145.64C280.201 146.328 280.001 146.88 279.601 147.296C279.201 147.712 278.577 147.92 277.729 147.92ZM274.105 149.576H279.985V160.568H281.329V161H274.201V160.568H275.521V150.008H274.105V149.576ZM289.57 156.272V154.232C289.57 152.68 289.482 151.552 289.306 150.848C289.146 150.128 288.762 149.768 288.154 149.768C287.802 149.768 287.514 149.872 287.29 150.08C287.082 150.272 286.93 150.6 286.834 151.064C286.69 151.784 286.618 152.88 286.618 154.352V156.224C286.618 157.968 286.666 159.016 286.762 159.368C286.874 159.72 286.986 160.008 287.098 160.232C287.274 160.616 287.618 160.808 288.13 160.808C288.754 160.808 289.162 160.448 289.354 159.728C289.498 159.216 289.57 158.064 289.57 156.272ZM288.082 161.24C286.082 161.24 284.57 160.728 283.546 159.704C282.522 158.68 282.01 157.216 282.01 155.312C282.01 153.392 282.554 151.92 283.642 150.896C284.746 149.856 286.29 149.336 288.274 149.336C290.258 149.336 291.738 149.816 292.714 150.776C293.69 151.72 294.178 153.168 294.178 155.12C294.178 159.2 292.146 161.24 288.082 161.24Z" fill="#A49CA7"/>
<defs>
<filter id="filter0_d_440_311" x="0" y="103" width="740" height="413" filterUnits="userSpaceOnUse" color-interpolation-filters="sRGB">
<feFlood flood-opacity="0" result="BackgroundImageFix"/>
<feColorMatrix in="SourceAlpha" type="matrix" values="0 0 0 0 0 0 0 0 0 0 0 0 0 0 0 0 0 0 127 0" result="hardAlpha"/>
<feOffset dx="10" dy="-10"/>
<feGaussianBlur stdDeviation="2"/>
<feComposite in2="hardAlpha" operator="out"/>
<feColorMatrix type="matrix" values="0 0 0 0 0 0 0 0 0 0 0 0 0 0 0 0 0 0 0.15 0"/>
<feBlend mode="normal" in2="BackgroundImageFix" result="effect1_dropShadow_440_311"/>
<feBlend mode="normal" in="SourceGraphic" in2="effect1_dropShadow_440_311" result="shape"/>
</filter>
</defs>
</svg>
