<svg width="740" height="413" viewBox="0 0 740 413" fill="none" xmlns="http://www.w3.org/2000/svg">
<g filter="url(#filter0_d_402_377)">
<rect y="14" width="726" height="399" rx="15" fill="#9784B6"/>
</g>
<path d="M0 29C0 20.7157 6.71573 14 15 14H711C719.284 14 726 20.7157 726 29V81H0V29Z" fill="#5D536B"/>
<rect x="664" y="26" width="42" height="43" rx="5" fill="#A49CA7"/>
<line x1="675.686" y1="38.2729" x2="695.319" y2="56.808" stroke="white" stroke-width="2"/>
<line x1="674.619" y1="57.2795" x2="694.063" y2="38.5461" stroke="white" stroke-width="2"/>
<path d="M30.6 41.416C28.12 41.416 26.88 43.808 26.88 48.592V50.488C26.88 52.76 27.208 54.544 27.864 55.84C28.52 57.12 29.488 57.76 30.768 57.76C32.528 57.76 34.144 56.048 35.616 52.624H36.048L35.88 57.976H35.616C35.52 57.8 35.432 57.68 35.352 57.616C35.272 57.536 35.152 57.496 34.992 57.496C34.848 57.496 34.272 57.624 33.264 57.88C32.256 58.12 31.232 58.24 30.192 58.24C27.584 58.24 25.56 57.536 24.12 56.128C22.696 54.72 21.984 52.608 21.984 49.792C21.984 46.96 22.728 44.776 24.216 43.24C25.72 41.704 27.736 40.936 30.264 40.936C31.24 40.936 32.192 41.064 33.12 41.32C34.064 41.56 34.616 41.68 34.776 41.68C34.936 41.68 35.056 41.648 35.136 41.584C35.216 41.504 35.304 41.376 35.4 41.2H35.664L35.856 46.408H35.424C34.704 44.792 33.96 43.56 33.192 42.712C32.44 41.848 31.576 41.416 30.6 41.416ZM40.7143 50.296C40.0263 50.296 39.5063 50.096 39.1543 49.696C38.8183 49.28 38.6503 48.784 38.6503 48.208C38.6503 47.616 38.8263 47.12 39.1783 46.72C39.5463 46.32 40.0583 46.12 40.7143 46.12C41.3703 46.12 41.8903 46.288 42.2743 46.624C42.6583 46.96 42.8503 47.464 42.8503 48.136C42.8503 48.808 42.6663 49.336 42.2983 49.72C41.9463 50.104 41.4183 50.296 40.7143 50.296ZM40.7143 58.24C40.0263 58.24 39.5063 58.04 39.1543 57.64C38.8183 57.224 38.6503 56.728 38.6503 56.152C38.6503 55.56 38.8263 55.064 39.1783 54.664C39.5463 54.264 40.0583 54.064 40.7143 54.064C41.3703 54.064 41.8903 54.232 42.2743 54.568C42.6583 54.904 42.8503 55.408 42.8503 56.08C42.8503 56.752 42.6663 57.28 42.2983 57.664C41.9463 58.048 41.4183 58.24 40.7143 58.24ZM50.4259 52.888C50.4259 54.36 50.6739 55.488 51.1699 56.272C51.6819 57.056 52.5939 57.448 53.9059 57.448C55.2179 57.448 56.2259 57.04 56.9299 56.224C57.6339 55.408 57.9859 54.168 57.9859 52.504V41.656H56.4259V41.2H59.9299V41.656H58.6099V52.336C58.6099 54.32 58.1699 55.8 57.2899 56.776C56.4099 57.752 54.8499 58.24 52.6099 58.24C50.3859 58.24 48.6819 57.776 47.4979 56.848C46.3299 55.92 45.7459 54.328 45.7459 52.072V41.656H44.4259V41.2H51.9859V41.656H50.4259V52.888ZM60.8623 58.24V53.944H61.1503C61.5663 55.336 62.1263 56.312 62.8303 56.872C63.5343 57.432 64.4143 57.712 65.4703 57.712C67.1023 57.712 67.9183 57.192 67.9183 56.152C67.9183 55.704 67.7183 55.368 67.3183 55.144C66.6943 54.792 65.8943 54.52 64.9183 54.328C63.8303 54.04 62.9183 53.656 62.1823 53.176C61.3023 52.6 60.8623 51.688 60.8623 50.44C60.8623 49.192 61.2463 48.2 62.0143 47.464C62.7823 46.712 63.8063 46.336 65.0863 46.336C65.8703 46.336 66.6783 46.52 67.5103 46.888C67.8143 47.016 68.0463 47.08 68.2063 47.08C68.3663 47.08 68.5023 47.024 68.6143 46.912C68.7263 46.8 68.8623 46.592 69.0223 46.288H69.2863V49.96H68.9983C68.1823 47.88 66.9183 46.84 65.2063 46.84C64.4543 46.84 63.8943 46.976 63.5263 47.248C63.1583 47.504 62.9743 47.832 62.9743 48.232C62.9743 48.472 63.0303 48.664 63.1423 48.808C63.2543 48.936 63.3423 49.032 63.4063 49.096C63.4703 49.16 63.5743 49.232 63.7183 49.312C63.8623 49.376 63.9823 49.432 64.0783 49.48C64.1743 49.512 64.3183 49.56 64.5103 49.624C64.7183 49.688 64.8703 49.728 64.9663 49.744C66.0543 50.016 66.8383 50.256 67.3183 50.464C67.7983 50.656 68.2543 50.896 68.6863 51.184C69.5663 51.792 70.0063 52.776 70.0063 54.136C70.0063 55.48 69.6063 56.504 68.8063 57.208C68.0063 57.896 66.9103 58.24 65.5183 58.24C64.5263 58.24 63.5663 58.008 62.6383 57.544C62.4463 57.416 62.2943 57.352 62.1823 57.352C61.8303 57.352 61.4863 57.648 61.1503 58.24H60.8623ZM77.0286 58.24C74.9646 58.24 73.4126 57.712 72.3726 56.656C71.3486 55.584 70.8366 54.104 70.8366 52.216C70.8366 50.312 71.4126 48.856 72.5646 47.848C73.7326 46.84 75.2126 46.336 77.0046 46.336C80.6366 46.336 82.3806 48.16 82.2366 51.808H75.4686V52.744C75.4686 54.312 75.6686 55.496 76.0686 56.296C76.4686 57.096 77.1646 57.496 78.1566 57.496C80.0126 57.496 81.2286 56.504 81.8046 54.52L82.2366 54.592C81.9326 55.744 81.3806 56.64 80.5806 57.28C79.7966 57.92 78.6126 58.24 77.0286 58.24ZM75.4926 51.328H77.9646V50.152C77.9646 48.856 77.8846 47.976 77.7246 47.512C77.5806 47.032 77.2766 46.792 76.8126 46.792C76.3646 46.792 76.0286 47.048 75.8046 47.56C75.5966 48.056 75.4926 48.92 75.4926 50.152V51.328ZM91.1076 47.248C90.5156 47.248 89.9956 47.632 89.5476 48.4C89.0996 49.168 88.8756 50.08 88.8756 51.136V57.568H90.5796V58H83.0916V57.568H84.4116V47.008H83.0916V46.576H88.8756V48.88C89.0836 48.064 89.4836 47.44 90.0756 47.008C90.6676 46.56 91.3396 46.336 92.0916 46.336C92.8436 46.336 93.4516 46.552 93.9156 46.984C94.3956 47.4 94.6356 48 94.6356 48.784C94.6356 49.552 94.4596 50.144 94.1076 50.56C93.7556 50.976 93.2116 51.184 92.4756 51.184C91.7556 51.184 91.2196 50.944 90.8676 50.464C90.5316 49.984 90.4916 49.32 90.7476 48.472H91.6116C92.0116 47.656 91.8436 47.248 91.1076 47.248ZM95.2451 58.24V53.944H95.5331C95.9491 55.336 96.5091 56.312 97.2131 56.872C97.9171 57.432 98.7971 57.712 99.8531 57.712C101.485 57.712 102.301 57.192 102.301 56.152C102.301 55.704 102.101 55.368 101.701 55.144C101.077 54.792 100.277 54.52 99.3011 54.328C98.2131 54.04 97.3011 53.656 96.5651 53.176C95.6851 52.6 95.2451 51.688 95.2451 50.44C95.2451 49.192 95.6291 48.2 96.3971 47.464C97.1651 46.712 98.1891 46.336 99.4691 46.336C100.253 46.336 101.061 46.52 101.893 46.888C102.197 47.016 102.429 47.08 102.589 47.08C102.749 47.08 102.885 47.024 102.997 46.912C103.109 46.8 103.245 46.592 103.405 46.288H103.669V49.96H103.381C102.565 47.88 101.301 46.84 99.5891 46.84C98.8371 46.84 98.2771 46.976 97.9091 47.248C97.5411 47.504 97.3571 47.832 97.3571 48.232C97.3571 48.472 97.4131 48.664 97.5251 48.808C97.6371 48.936 97.7251 49.032 97.7891 49.096C97.8531 49.16 97.9571 49.232 98.1011 49.312C98.2451 49.376 98.3651 49.432 98.4611 49.48C98.5571 49.512 98.7011 49.56 98.8931 49.624C99.1011 49.688 99.2531 49.728 99.3491 49.744C100.437 50.016 101.221 50.256 101.701 50.464C102.181 50.656 102.637 50.896 103.069 51.184C103.949 51.792 104.389 52.776 104.389 54.136C104.389 55.48 103.989 56.504 103.189 57.208C102.389 57.896 101.293 58.24 99.9011 58.24C98.9091 58.24 97.9491 58.008 97.0211 57.544C96.8291 57.416 96.6771 57.352 96.5651 57.352C96.2131 57.352 95.8691 57.648 95.5331 58.24H95.2451ZM106.035 38.92L113.115 60.328H112.107L105.051 38.92H106.035ZM113.873 41.2H121.193V41.656H119.873V57.544H121.193V58H113.873V57.544H115.193V41.656H113.873V41.2ZM121.078 47.008V46.576H128.254V47.008H126.742L129.622 54.976L132.214 47.008H130.606V46.576H133.846V47.008H132.79L129.238 58H126.502L122.062 47.008H121.078ZM139.125 52.36H139.821V50.512C139.821 48.992 139.733 47.976 139.557 47.464C139.397 46.936 139.077 46.672 138.597 46.672C138.309 46.672 138.045 46.752 137.805 46.912C137.581 47.056 137.469 47.264 137.469 47.536C137.469 47.792 137.517 48.056 137.613 48.328H138.213C138.341 48.664 138.405 49.072 138.405 49.552C138.405 50.016 138.205 50.424 137.805 50.776C137.405 51.112 136.901 51.28 136.293 51.28C134.917 51.28 134.229 50.616 134.229 49.288C134.229 47.32 135.901 46.336 139.245 46.336C141.149 46.336 142.461 46.664 143.181 47.32C143.917 47.96 144.285 49.144 144.285 50.872V55.744C144.285 56.576 144.517 56.992 144.981 56.992C145.525 56.992 145.845 56.168 145.941 54.52L146.301 54.544C146.237 55.952 145.973 56.92 145.509 57.448C145.045 57.976 144.285 58.24 143.229 58.24C141.309 58.24 140.205 57.648 139.917 56.464C139.709 57.072 139.397 57.52 138.981 57.808C138.565 58.096 137.957 58.24 137.157 58.24C134.789 58.24 133.605 57.272 133.605 55.336C133.605 54.2 134.053 53.424 134.949 53.008C135.861 52.576 137.253 52.36 139.125 52.36ZM138.165 55.312C138.165 56.144 138.205 56.68 138.285 56.92C138.381 57.16 138.549 57.28 138.789 57.28C139.045 57.28 139.277 57.08 139.485 56.68C139.709 56.264 139.821 55.696 139.821 54.976V52.744H139.653C138.661 52.744 138.165 53.472 138.165 54.928V55.312ZM146.585 46.576H152.369V48.784C152.625 48.048 153.017 47.456 153.545 47.008C154.073 46.56 154.873 46.336 155.945 46.336C158.425 46.336 159.665 47.672 159.665 50.344V57.568H161.009V58H154.217V57.568H155.201V49.768C155.201 48.808 155.137 48.192 155.009 47.92C154.881 47.632 154.649 47.488 154.313 47.488C153.801 47.488 153.345 47.824 152.945 48.496C152.561 49.168 152.369 49.984 152.369 50.944V57.568H153.401V58H146.585V57.568H147.905V47.008H146.585V46.576ZM161.374 46.576H167.158V48.784C167.414 48.048 167.806 47.456 168.334 47.008C168.862 46.56 169.662 46.336 170.734 46.336C173.214 46.336 174.454 47.672 174.454 50.344V57.568H175.798V58H169.006V57.568H169.99V49.768C169.99 48.808 169.926 48.192 169.798 47.92C169.67 47.632 169.438 47.488 169.102 47.488C168.59 47.488 168.134 47.824 167.734 48.496C167.35 49.168 167.158 49.984 167.158 50.944V57.568H168.19V58H161.374V57.568H162.694V47.008H161.374V46.576ZM181.875 52.36H182.571V50.512C182.571 48.992 182.483 47.976 182.307 47.464C182.147 46.936 181.827 46.672 181.347 46.672C181.059 46.672 180.795 46.752 180.555 46.912C180.331 47.056 180.219 47.264 180.219 47.536C180.219 47.792 180.267 48.056 180.363 48.328H180.963C181.091 48.664 181.155 49.072 181.155 49.552C181.155 50.016 180.955 50.424 180.555 50.776C180.155 51.112 179.651 51.28 179.043 51.28C177.667 51.28 176.979 50.616 176.979 49.288C176.979 47.32 178.651 46.336 181.995 46.336C183.899 46.336 185.211 46.664 185.931 47.32C186.667 47.96 187.035 49.144 187.035 50.872V55.744C187.035 56.576 187.267 56.992 187.731 56.992C188.275 56.992 188.595 56.168 188.691 54.52L189.051 54.544C188.987 55.952 188.723 56.92 188.259 57.448C187.795 57.976 187.035 58.24 185.979 58.24C184.059 58.24 182.955 57.648 182.667 56.464C182.459 57.072 182.147 57.52 181.731 57.808C181.315 58.096 180.707 58.24 179.907 58.24C177.539 58.24 176.355 57.272 176.355 55.336C176.355 54.2 176.803 53.424 177.699 53.008C178.611 52.576 180.003 52.36 181.875 52.36ZM180.915 55.312C180.915 56.144 180.955 56.68 181.035 56.92C181.131 57.16 181.299 57.28 181.539 57.28C181.795 57.28 182.027 57.08 182.235 56.68C182.459 56.264 182.571 55.696 182.571 54.976V52.744H182.403C181.411 52.744 180.915 53.472 180.915 54.928V55.312ZM188.535 38.92L195.615 60.328H194.607L187.551 38.92H188.535ZM196.133 41.2H203.189C205.605 41.2 207.405 41.552 208.589 42.256C209.773 42.944 210.365 44.184 210.365 45.976C210.365 47.96 209.645 49.328 208.205 50.08C206.861 50.768 204.981 51.112 202.565 51.112H202.373V57.544H205.373V58H196.133V57.544H197.693V41.656H196.133V41.2ZM202.373 41.656V50.656H202.877C203.837 50.656 204.501 50.328 204.869 49.672C205.237 49.016 205.421 47.952 205.421 46.48V45.328C205.421 43.968 205.245 43.016 204.893 42.472C204.557 41.928 203.933 41.656 203.021 41.656H202.373ZM218.25 53.272V51.232C218.25 49.68 218.162 48.552 217.986 47.848C217.826 47.128 217.442 46.768 216.834 46.768C216.482 46.768 216.194 46.872 215.97 47.08C215.762 47.272 215.61 47.6 215.514 48.064C215.37 48.784 215.298 49.88 215.298 51.352V53.224C215.298 54.968 215.346 56.016 215.442 56.368C215.554 56.72 215.666 57.008 215.778 57.232C215.954 57.616 216.298 57.808 216.81 57.808C217.434 57.808 217.842 57.448 218.034 56.728C218.178 56.216 218.25 55.064 218.25 53.272ZM216.762 58.24C214.762 58.24 213.25 57.728 212.226 56.704C211.202 55.68 210.69 54.216 210.69 52.312C210.69 50.392 211.234 48.92 212.322 47.896C213.426 46.856 214.97 46.336 216.954 46.336C218.938 46.336 220.418 46.816 221.394 47.776C222.37 48.72 222.858 50.168 222.858 52.12C222.858 56.2 220.826 58.24 216.762 58.24ZM231.545 47.248C230.953 47.248 230.433 47.632 229.985 48.4C229.537 49.168 229.313 50.08 229.313 51.136V57.568H231.017V58H223.529V57.568H224.849V47.008H223.529V46.576H229.313V48.88C229.521 48.064 229.921 47.44 230.513 47.008C231.105 46.56 231.777 46.336 232.529 46.336C233.281 46.336 233.889 46.552 234.353 46.984C234.833 47.4 235.073 48 235.073 48.784C235.073 49.552 234.897 50.144 234.545 50.56C234.193 50.976 233.649 51.184 232.913 51.184C232.193 51.184 231.657 50.944 231.305 50.464C230.969 49.984 230.929 49.32 231.185 48.472H232.049C232.449 47.656 232.281 47.248 231.545 47.248ZM236.612 54.568V47.008H235.292V46.576H236.612V43.48L241.076 42.376V46.576H244.196V47.008H241.076V55.096C241.076 55.848 241.148 56.4 241.292 56.752C241.452 57.104 241.772 57.28 242.252 57.28C242.732 57.28 243.148 57.04 243.5 56.56C243.868 56.08 244.108 55.424 244.22 54.592L244.628 54.64C244.5 55.744 244.148 56.624 243.572 57.28C242.996 57.92 242.044 58.24 240.716 58.24C239.388 58.24 238.372 57.976 237.668 57.448C236.964 56.92 236.612 55.96 236.612 54.568ZM252.129 39.856C251.521 39.856 251.121 40.088 250.929 40.552C250.737 41 250.641 41.728 250.641 42.736V46.576H253.809V47.008H250.641V57.568H253.569V58H244.857V57.568H246.177V47.008H244.785V46.576H246.177V46.48C246.177 44.176 246.617 42.432 247.497 41.248C248.377 40.048 249.849 39.448 251.913 39.448C253.273 39.448 254.249 39.72 254.841 40.264C255.433 40.792 255.729 41.408 255.729 42.112C255.729 42.816 255.545 43.344 255.177 43.696C254.809 44.048 254.321 44.224 253.713 44.224C253.105 44.224 252.633 44.072 252.297 43.768C251.977 43.448 251.817 43.088 251.817 42.688C251.817 42.272 251.865 41.872 251.961 41.488H252.873C253.193 40.4 252.945 39.856 252.129 39.856ZM261.328 53.272V51.232C261.328 49.68 261.24 48.552 261.064 47.848C260.904 47.128 260.52 46.768 259.912 46.768C259.56 46.768 259.272 46.872 259.048 47.08C258.84 47.272 258.688 47.6 258.592 48.064C258.448 48.784 258.376 49.88 258.376 51.352V53.224C258.376 54.968 258.424 56.016 258.52 56.368C258.632 56.72 258.744 57.008 258.856 57.232C259.032 57.616 259.376 57.808 259.888 57.808C260.512 57.808 260.92 57.448 261.112 56.728C261.256 56.216 261.328 55.064 261.328 53.272ZM259.84 58.24C257.84 58.24 256.328 57.728 255.304 56.704C254.28 55.68 253.768 54.216 253.768 52.312C253.768 50.392 254.312 48.92 255.4 47.896C256.504 46.856 258.048 46.336 260.032 46.336C262.016 46.336 263.496 46.816 264.472 47.776C265.448 48.72 265.936 50.168 265.936 52.12C265.936 56.2 263.904 58.24 259.84 58.24ZM266.511 40H272.391V57.568H273.735V58H266.607V57.568H267.927V40.432H266.511V40ZM277.729 44.92C276.881 44.92 276.273 44.704 275.905 44.272C275.553 43.84 275.377 43.304 275.377 42.664C275.377 42.024 275.569 41.496 275.953 41.08C276.353 40.664 276.953 40.456 277.753 40.456C278.553 40.456 279.161 40.648 279.577 41.032C279.993 41.4 280.201 41.936 280.201 42.64C280.201 43.328 280.001 43.88 279.601 44.296C279.201 44.712 278.577 44.92 277.729 44.92ZM274.105 46.576H279.985V57.568H281.329V58H274.201V57.568H275.521V47.008H274.105V46.576ZM289.57 53.272V51.232C289.57 49.68 289.482 48.552 289.306 47.848C289.146 47.128 288.762 46.768 288.154 46.768C287.802 46.768 287.514 46.872 287.29 47.08C287.082 47.272 286.93 47.6 286.834 48.064C286.69 48.784 286.618 49.88 286.618 51.352V53.224C286.618 54.968 286.666 56.016 286.762 56.368C286.874 56.72 286.986 57.008 287.098 57.232C287.274 57.616 287.618 57.808 288.13 57.808C288.754 57.808 289.162 57.448 289.354 56.728C289.498 56.216 289.57 55.064 289.57 53.272ZM288.082 58.24C286.082 58.24 284.57 57.728 283.546 56.704C282.522 55.68 282.01 54.216 282.01 52.312C282.01 50.392 282.554 48.92 283.642 47.896C284.746 46.856 286.29 46.336 288.274 46.336C290.258 46.336 291.738 46.816 292.714 47.776C293.69 48.72 294.178 50.168 294.178 52.12C294.178 56.2 292.146 58.24 288.082 58.24Z" fill="#A49CA7"/>
<defs>
<filter id="filter0_d_402_377" x="0" y="0" width="740" height="413" filterUnits="userSpaceOnUse" color-interpolation-filters="sRGB">
<feFlood flood-opacity="0" result="BackgroundImageFix"/>
<feColorMatrix in="SourceAlpha" type="matrix" values="0 0 0 0 0 0 0 0 0 0 0 0 0 0 0 0 0 0 127 0" result="hardAlpha"/>
<feOffset dx="10" dy="-10"/>
<feGaussianBlur stdDeviation="2"/>
<feComposite in2="hardAlpha" operator="out"/>
<feColorMatrix type="matrix" values="0 0 0 0 0 0 0 0 0 0 0 0 0 0 0 0 0 0 0.15 0"/>
<feBlend mode="normal" in2="BackgroundImageFix" result="effect1_dropShadow_402_377"/>
<feBlend mode="normal" in="SourceGraphic" in2="effect1_dropShadow_402_377" result="shape"/>
</filter>
</defs>
</svg>
