<svg width="726" height="399" viewBox="0 0 726 399" fill="none" xmlns="http://www.w3.org/2000/svg">
<rect width="726" height="399" rx="15" fill="#9784B6"/>
<path d="M0 15C0 6.71573 6.71573 0 15 0H711C719.284 0 726 6.71573 726 15V67H0V15Z" fill="#5D536B"/>
<rect x="664" y="12" width="42" height="43" rx="5" fill="#A49CA7"/>
<line x1="675.686" y1="24.2729" x2="695.319" y2="42.808" stroke="white" stroke-width="2"/>
<line x1="674.619" y1="43.2795" x2="694.063" y2="24.5461" stroke="white" stroke-width="2"/>
<path d="M30.6 27.416C28.12 27.416 26.88 29.808 26.88 34.592V36.488C26.88 38.76 27.208 40.544 27.864 41.84C28.52 43.12 29.488 43.76 30.768 43.76C32.528 43.76 34.144 42.048 35.616 38.624H36.048L35.88 43.976H35.616C35.52 43.8 35.432 43.68 35.352 43.616C35.272 43.536 35.152 43.496 34.992 43.496C34.848 43.496 34.272 43.624 33.264 43.88C32.256 44.12 31.232 44.24 30.192 44.24C27.584 44.24 25.56 43.536 24.12 42.128C22.696 40.72 21.984 38.608 21.984 35.792C21.984 32.96 22.728 30.776 24.216 29.24C25.72 27.704 27.736 26.936 30.264 26.936C31.24 26.936 32.192 27.064 33.12 27.32C34.064 27.56 34.616 27.68 34.776 27.68C34.936 27.68 35.056 27.648 35.136 27.584C35.216 27.504 35.304 27.376 35.4 27.2H35.664L35.856 32.408H35.424C34.704 30.792 33.96 29.56 33.192 28.712C32.44 27.848 31.576 27.416 30.6 27.416ZM40.7143 36.296C40.0263 36.296 39.5063 36.096 39.1543 35.696C38.8183 35.28 38.6503 34.784 38.6503 34.208C38.6503 33.616 38.8263 33.12 39.1783 32.72C39.5463 32.32 40.0583 32.12 40.7143 32.12C41.3703 32.12 41.8903 32.288 42.2743 32.624C42.6583 32.96 42.8503 33.464 42.8503 34.136C42.8503 34.808 42.6663 35.336 42.2983 35.72C41.9463 36.104 41.4183 36.296 40.7143 36.296ZM40.7143 44.24C40.0263 44.24 39.5063 44.04 39.1543 43.64C38.8183 43.224 38.6503 42.728 38.6503 42.152C38.6503 41.56 38.8263 41.064 39.1783 40.664C39.5463 40.264 40.0583 40.064 40.7143 40.064C41.3703 40.064 41.8903 40.232 42.2743 40.568C42.6583 40.904 42.8503 41.408 42.8503 42.08C42.8503 42.752 42.6663 43.28 42.2983 43.664C41.9463 44.048 41.4183 44.24 40.7143 44.24ZM50.4259 38.888C50.4259 40.36 50.6739 41.488 51.1699 42.272C51.6819 43.056 52.5939 43.448 53.9059 43.448C55.2179 43.448 56.2259 43.04 56.9299 42.224C57.6339 41.408 57.9859 40.168 57.9859 38.504V27.656H56.4259V27.2H59.9299V27.656H58.6099V38.336C58.6099 40.32 58.1699 41.8 57.2899 42.776C56.4099 43.752 54.8499 44.24 52.6099 44.24C50.3859 44.24 48.6819 43.776 47.4979 42.848C46.3299 41.92 45.7459 40.328 45.7459 38.072V27.656H44.4259V27.2H51.9859V27.656H50.4259V38.888ZM60.8623 44.24V39.944H61.1503C61.5663 41.336 62.1263 42.312 62.8303 42.872C63.5343 43.432 64.4143 43.712 65.4703 43.712C67.1023 43.712 67.9183 43.192 67.9183 42.152C67.9183 41.704 67.7183 41.368 67.3183 41.144C66.6943 40.792 65.8943 40.52 64.9183 40.328C63.8303 40.04 62.9183 39.656 62.1823 39.176C61.3023 38.6 60.8623 37.688 60.8623 36.44C60.8623 35.192 61.2463 34.2 62.0143 33.464C62.7823 32.712 63.8063 32.336 65.0863 32.336C65.8703 32.336 66.6783 32.52 67.5103 32.888C67.8143 33.016 68.0463 33.08 68.2063 33.08C68.3663 33.08 68.5023 33.024 68.6143 32.912C68.7263 32.8 68.8623 32.592 69.0223 32.288H69.2863V35.96H68.9983C68.1823 33.88 66.9183 32.84 65.2063 32.84C64.4543 32.84 63.8943 32.976 63.5263 33.248C63.1583 33.504 62.9743 33.832 62.9743 34.232C62.9743 34.472 63.0303 34.664 63.1423 34.808C63.2543 34.936 63.3423 35.032 63.4063 35.096C63.4703 35.16 63.5743 35.232 63.7183 35.312C63.8623 35.376 63.9823 35.432 64.0783 35.48C64.1743 35.512 64.3183 35.56 64.5103 35.624C64.7183 35.688 64.8703 35.728 64.9663 35.744C66.0543 36.016 66.8383 36.256 67.3183 36.464C67.7983 36.656 68.2543 36.896 68.6863 37.184C69.5663 37.792 70.0063 38.776 70.0063 40.136C70.0063 41.48 69.6063 42.504 68.8063 43.208C68.0063 43.896 66.9103 44.24 65.5183 44.24C64.5263 44.24 63.5663 44.008 62.6383 43.544C62.4463 43.416 62.2943 43.352 62.1823 43.352C61.8303 43.352 61.4863 43.648 61.1503 44.24H60.8623ZM77.0286 44.24C74.9646 44.24 73.4126 43.712 72.3726 42.656C71.3486 41.584 70.8366 40.104 70.8366 38.216C70.8366 36.312 71.4126 34.856 72.5646 33.848C73.7326 32.84 75.2126 32.336 77.0046 32.336C80.6366 32.336 82.3806 34.16 82.2366 37.808H75.4686V38.744C75.4686 40.312 75.6686 41.496 76.0686 42.296C76.4686 43.096 77.1646 43.496 78.1566 43.496C80.0126 43.496 81.2286 42.504 81.8046 40.52L82.2366 40.592C81.9326 41.744 81.3806 42.64 80.5806 43.28C79.7966 43.92 78.6126 44.24 77.0286 44.24ZM75.4926 37.328H77.9646V36.152C77.9646 34.856 77.8846 33.976 77.7246 33.512C77.5806 33.032 77.2766 32.792 76.8126 32.792C76.3646 32.792 76.0286 33.048 75.8046 33.56C75.5966 34.056 75.4926 34.92 75.4926 36.152V37.328ZM91.1076 33.248C90.5156 33.248 89.9956 33.632 89.5476 34.4C89.0996 35.168 88.8756 36.08 88.8756 37.136V43.568H90.5796V44H83.0916V43.568H84.4116V33.008H83.0916V32.576H88.8756V34.88C89.0836 34.064 89.4836 33.44 90.0756 33.008C90.6676 32.56 91.3396 32.336 92.0916 32.336C92.8436 32.336 93.4516 32.552 93.9156 32.984C94.3956 33.4 94.6356 34 94.6356 34.784C94.6356 35.552 94.4596 36.144 94.1076 36.56C93.7556 36.976 93.2116 37.184 92.4756 37.184C91.7556 37.184 91.2196 36.944 90.8676 36.464C90.5316 35.984 90.4916 35.32 90.7476 34.472H91.6116C92.0116 33.656 91.8436 33.248 91.1076 33.248ZM95.2451 44.24V39.944H95.5331C95.9491 41.336 96.5091 42.312 97.2131 42.872C97.9171 43.432 98.7971 43.712 99.8531 43.712C101.485 43.712 102.301 43.192 102.301 42.152C102.301 41.704 102.101 41.368 101.701 41.144C101.077 40.792 100.277 40.52 99.3011 40.328C98.2131 40.04 97.3011 39.656 96.5651 39.176C95.6851 38.6 95.2451 37.688 95.2451 36.44C95.2451 35.192 95.6291 34.2 96.3971 33.464C97.1651 32.712 98.1891 32.336 99.4691 32.336C100.253 32.336 101.061 32.52 101.893 32.888C102.197 33.016 102.429 33.08 102.589 33.08C102.749 33.08 102.885 33.024 102.997 32.912C103.109 32.8 103.245 32.592 103.405 32.288H103.669V35.96H103.381C102.565 33.88 101.301 32.84 99.5891 32.84C98.8371 32.84 98.2771 32.976 97.9091 33.248C97.5411 33.504 97.3571 33.832 97.3571 34.232C97.3571 34.472 97.4131 34.664 97.5251 34.808C97.6371 34.936 97.7251 35.032 97.7891 35.096C97.8531 35.16 97.9571 35.232 98.1011 35.312C98.2451 35.376 98.3651 35.432 98.4611 35.48C98.5571 35.512 98.7011 35.56 98.8931 35.624C99.1011 35.688 99.2531 35.728 99.3491 35.744C100.437 36.016 101.221 36.256 101.701 36.464C102.181 36.656 102.637 36.896 103.069 37.184C103.949 37.792 104.389 38.776 104.389 40.136C104.389 41.48 103.989 42.504 103.189 43.208C102.389 43.896 101.293 44.24 99.9011 44.24C98.9091 44.24 97.9491 44.008 97.0211 43.544C96.8291 43.416 96.6771 43.352 96.5651 43.352C96.2131 43.352 95.8691 43.648 95.5331 44.24H95.2451ZM106.035 24.92L113.115 46.328H112.107L105.051 24.92H106.035ZM113.873 27.2H121.193V27.656H119.873V43.544H121.193V44H113.873V43.544H115.193V27.656H113.873V27.2ZM121.078 33.008V32.576H128.254V33.008H126.742L129.622 40.976L132.214 33.008H130.606V32.576H133.846V33.008H132.79L129.238 44H126.502L122.062 33.008H121.078ZM139.125 38.36H139.821V36.512C139.821 34.992 139.733 33.976 139.557 33.464C139.397 32.936 139.077 32.672 138.597 32.672C138.309 32.672 138.045 32.752 137.805 32.912C137.581 33.056 137.469 33.264 137.469 33.536C137.469 33.792 137.517 34.056 137.613 34.328H138.213C138.341 34.664 138.405 35.072 138.405 35.552C138.405 36.016 138.205 36.424 137.805 36.776C137.405 37.112 136.901 37.28 136.293 37.28C134.917 37.28 134.229 36.616 134.229 35.288C134.229 33.32 135.901 32.336 139.245 32.336C141.149 32.336 142.461 32.664 143.181 33.32C143.917 33.96 144.285 35.144 144.285 36.872V41.744C144.285 42.576 144.517 42.992 144.981 42.992C145.525 42.992 145.845 42.168 145.941 40.52L146.301 40.544C146.237 41.952 145.973 42.92 145.509 43.448C145.045 43.976 144.285 44.24 143.229 44.24C141.309 44.24 140.205 43.648 139.917 42.464C139.709 43.072 139.397 43.52 138.981 43.808C138.565 44.096 137.957 44.24 137.157 44.24C134.789 44.24 133.605 43.272 133.605 41.336C133.605 40.2 134.053 39.424 134.949 39.008C135.861 38.576 137.253 38.36 139.125 38.36ZM138.165 41.312C138.165 42.144 138.205 42.68 138.285 42.92C138.381 43.16 138.549 43.28 138.789 43.28C139.045 43.28 139.277 43.08 139.485 42.68C139.709 42.264 139.821 41.696 139.821 40.976V38.744H139.653C138.661 38.744 138.165 39.472 138.165 40.928V41.312ZM146.585 32.576H152.369V34.784C152.625 34.048 153.017 33.456 153.545 33.008C154.073 32.56 154.873 32.336 155.945 32.336C158.425 32.336 159.665 33.672 159.665 36.344V43.568H161.009V44H154.217V43.568H155.201V35.768C155.201 34.808 155.137 34.192 155.009 33.92C154.881 33.632 154.649 33.488 154.313 33.488C153.801 33.488 153.345 33.824 152.945 34.496C152.561 35.168 152.369 35.984 152.369 36.944V43.568H153.401V44H146.585V43.568H147.905V33.008H146.585V32.576ZM161.374 32.576H167.158V34.784C167.414 34.048 167.806 33.456 168.334 33.008C168.862 32.56 169.662 32.336 170.734 32.336C173.214 32.336 174.454 33.672 174.454 36.344V43.568H175.798V44H169.006V43.568H169.99V35.768C169.99 34.808 169.926 34.192 169.798 33.92C169.67 33.632 169.438 33.488 169.102 33.488C168.59 33.488 168.134 33.824 167.734 34.496C167.35 35.168 167.158 35.984 167.158 36.944V43.568H168.19V44H161.374V43.568H162.694V33.008H161.374V32.576ZM181.875 38.36H182.571V36.512C182.571 34.992 182.483 33.976 182.307 33.464C182.147 32.936 181.827 32.672 181.347 32.672C181.059 32.672 180.795 32.752 180.555 32.912C180.331 33.056 180.219 33.264 180.219 33.536C180.219 33.792 180.267 34.056 180.363 34.328H180.963C181.091 34.664 181.155 35.072 181.155 35.552C181.155 36.016 180.955 36.424 180.555 36.776C180.155 37.112 179.651 37.28 179.043 37.28C177.667 37.28 176.979 36.616 176.979 35.288C176.979 33.32 178.651 32.336 181.995 32.336C183.899 32.336 185.211 32.664 185.931 33.32C186.667 33.96 187.035 35.144 187.035 36.872V41.744C187.035 42.576 187.267 42.992 187.731 42.992C188.275 42.992 188.595 42.168 188.691 40.52L189.051 40.544C188.987 41.952 188.723 42.92 188.259 43.448C187.795 43.976 187.035 44.24 185.979 44.24C184.059 44.24 182.955 43.648 182.667 42.464C182.459 43.072 182.147 43.52 181.731 43.808C181.315 44.096 180.707 44.24 179.907 44.24C177.539 44.24 176.355 43.272 176.355 41.336C176.355 40.2 176.803 39.424 177.699 39.008C178.611 38.576 180.003 38.36 181.875 38.36ZM180.915 41.312C180.915 42.144 180.955 42.68 181.035 42.92C181.131 43.16 181.299 43.28 181.539 43.28C181.795 43.28 182.027 43.08 182.235 42.68C182.459 42.264 182.571 41.696 182.571 40.976V38.744H182.403C181.411 38.744 180.915 39.472 180.915 40.928V41.312ZM188.535 24.92L195.615 46.328H194.607L187.551 24.92H188.535ZM204.028 39.152L206.02 32.24L204.58 27.656H203.212V27.2H210.652V27.656H209.236L212.812 39.008L215.692 27.656H213.268V27.2H218.068V27.656H216.484L212.068 44.24H209.932L206.38 33.392L203.26 44.24H201.172L195.124 27.656H193.996V27.2H201.796V27.656H200.116L204.028 39.152ZM222.833 44.24C220.769 44.24 219.217 43.712 218.177 42.656C217.153 41.584 216.641 40.104 216.641 38.216C216.641 36.312 217.217 34.856 218.369 33.848C219.537 32.84 221.017 32.336 222.809 32.336C226.441 32.336 228.185 34.16 228.041 37.808H221.273V38.744C221.273 40.312 221.473 41.496 221.873 42.296C222.273 43.096 222.969 43.496 223.961 43.496C225.817 43.496 227.033 42.504 227.609 40.52L228.041 40.592C227.737 41.744 227.185 42.64 226.385 43.28C225.601 43.92 224.417 44.24 222.833 44.24ZM221.297 37.328H223.769V36.152C223.769 34.856 223.689 33.976 223.529 33.512C223.385 33.032 223.081 32.792 222.617 32.792C222.169 32.792 221.833 33.048 221.609 33.56C221.401 34.056 221.297 34.92 221.297 36.152V37.328ZM228.8 26H234.68V43.568H236.024V44H228.896V43.568H230.216V26.432H228.8V26ZM243.21 32.768C242.506 32.768 242.002 33.152 241.698 33.92C241.394 34.688 241.242 35.96 241.242 37.736V38.984C241.242 40.568 241.418 41.704 241.77 42.392C242.122 43.08 242.77 43.424 243.714 43.424C244.658 43.424 245.41 43.104 245.97 42.464C246.53 41.824 246.89 41.096 247.05 40.28L247.482 40.328C247.178 41.704 246.618 42.696 245.802 43.304C244.97 43.928 243.826 44.24 242.37 44.24C240.514 44.24 239.09 43.744 238.098 42.752C237.106 41.744 236.61 40.28 236.61 38.36C236.61 36.424 237.17 34.936 238.29 33.896C239.426 32.856 241.002 32.336 243.018 32.336C244.442 32.336 245.53 32.616 246.282 33.176C247.034 33.72 247.41 34.408 247.41 35.24C247.41 36.072 247.226 36.68 246.858 37.064C246.506 37.448 246.01 37.64 245.37 37.64C244.746 37.64 244.242 37.472 243.858 37.136C243.474 36.8 243.282 36.304 243.282 35.648C243.282 35.36 243.322 35.072 243.402 34.784H244.194C244.306 34.464 244.362 34.176 244.362 33.92C244.362 33.152 243.978 32.768 243.21 32.768ZM255.844 39.272V37.232C255.844 35.68 255.756 34.552 255.58 33.848C255.42 33.128 255.036 32.768 254.428 32.768C254.076 32.768 253.788 32.872 253.564 33.08C253.356 33.272 253.204 33.6 253.108 34.064C252.964 34.784 252.892 35.88 252.892 37.352V39.224C252.892 40.968 252.94 42.016 253.036 42.368C253.148 42.72 253.26 43.008 253.372 43.232C253.548 43.616 253.892 43.808 254.404 43.808C255.028 43.808 255.436 43.448 255.628 42.728C255.772 42.216 255.844 41.064 255.844 39.272ZM254.356 44.24C252.356 44.24 250.844 43.728 249.82 42.704C248.796 41.68 248.284 40.216 248.284 38.312C248.284 36.392 248.828 34.92 249.916 33.896C251.02 32.856 252.564 32.336 254.548 32.336C256.532 32.336 258.012 32.816 258.988 33.776C259.964 34.72 260.452 36.168 260.452 38.12C260.452 42.2 258.42 44.24 254.356 44.24ZM261.123 32.576H266.907V34.784C267.435 33.152 268.595 32.336 270.387 32.336C272.195 32.336 273.291 33.2 273.675 34.928C274.235 33.2 275.411 32.336 277.203 32.336C279.555 32.336 280.731 33.672 280.731 36.344V43.568H282.075V44H275.427V43.568H276.267V35.768C276.267 34.552 276.163 33.84 275.955 33.632C275.859 33.536 275.731 33.488 275.571 33.488C275.107 33.488 274.699 33.8 274.347 34.424C273.995 35.048 273.819 35.84 273.819 36.8V43.568H274.683V44H268.515V43.568H269.355V35.768C269.355 34.552 269.251 33.84 269.043 33.632C268.947 33.536 268.819 33.488 268.659 33.488C268.211 33.488 267.803 33.832 267.435 34.52C267.083 35.192 266.907 36 266.907 36.944V43.568H267.771V44H261.123V43.568H262.443V33.008H261.123V32.576ZM288.74 44.24C286.676 44.24 285.124 43.712 284.084 42.656C283.06 41.584 282.548 40.104 282.548 38.216C282.548 36.312 283.124 34.856 284.276 33.848C285.444 32.84 286.924 32.336 288.716 32.336C292.348 32.336 294.092 34.16 293.948 37.808H287.18V38.744C287.18 40.312 287.38 41.496 287.78 42.296C288.18 43.096 288.876 43.496 289.868 43.496C291.724 43.496 292.94 42.504 293.516 40.52L293.948 40.592C293.644 41.744 293.092 42.64 292.292 43.28C291.508 43.92 290.324 44.24 288.74 44.24ZM287.204 37.328H289.676V36.152C289.676 34.856 289.596 33.976 289.436 33.512C289.292 33.032 288.988 32.792 288.523 32.792C288.076 32.792 287.74 33.048 287.516 33.56C287.308 34.056 287.204 34.92 287.204 36.152V37.328ZM298.835 39.728V37.664C298.835 36.288 298.571 34.656 298.043 32.768C297.531 30.864 297.275 29.568 297.275 28.88C297.275 28.192 297.459 27.696 297.827 27.392C298.211 27.088 298.675 26.936 299.219 26.936C300.435 26.936 301.043 27.584 301.043 28.88C301.043 29.632 300.763 30.944 300.203 32.816C299.643 34.688 299.363 36.312 299.363 37.688V39.728H298.835ZM299.003 44.24C298.411 44.24 297.963 44.072 297.659 43.736C297.371 43.384 297.227 42.952 297.227 42.44C297.227 41.912 297.387 41.48 297.707 41.144C298.027 40.792 298.467 40.616 299.027 40.616C299.587 40.616 300.035 40.768 300.371 41.072C300.707 41.36 300.875 41.792 300.875 42.368C300.875 42.944 300.715 43.4 300.395 43.736C300.075 44.072 299.611 44.24 299.003 44.24Z" fill="#A49CA7"/>
<path d="M26.6 92.326C25.1533 92.326 24.43 93.7213 24.43 96.512V97.618C24.43 98.9433 24.6213 99.984 25.004 100.74C25.3867 101.487 25.9513 101.86 26.698 101.86C27.7247 101.86 28.6673 100.861 29.526 98.864H29.778L29.68 101.986H29.526C29.47 101.883 29.4187 101.813 29.372 101.776C29.3253 101.729 29.2553 101.706 29.162 101.706C29.078 101.706 28.742 101.781 28.154 101.93C27.566 102.07 26.9687 102.14 26.362 102.14C24.8407 102.14 23.66 101.729 22.82 100.908C21.9893 100.087 21.574 98.8547 21.574 97.212C21.574 95.56 22.008 94.286 22.876 93.39C23.7533 92.494 24.9293 92.046 26.404 92.046C26.9733 92.046 27.5287 92.1207 28.07 92.27C28.6207 92.41 28.9427 92.48 29.036 92.48C29.1293 92.48 29.1993 92.4613 29.246 92.424C29.2927 92.3773 29.344 92.3027 29.4 92.2H29.554L29.666 95.238H29.414C28.994 94.2953 28.56 93.5767 28.112 93.082C27.6733 92.578 27.1693 92.326 26.6 92.326ZM32.5 97.506C32.0987 97.506 31.7953 97.3893 31.59 97.156C31.394 96.9133 31.296 96.624 31.296 96.288C31.296 95.9427 31.3987 95.6533 31.604 95.42C31.8187 95.1867 32.1173 95.07 32.5 95.07C32.8827 95.07 33.186 95.168 33.41 95.364C33.634 95.56 33.746 95.854 33.746 96.246C33.746 96.638 33.6387 96.946 33.424 97.17C33.2187 97.394 32.9107 97.506 32.5 97.506ZM32.5 102.14C32.0987 102.14 31.7953 102.023 31.59 101.79C31.394 101.547 31.296 101.258 31.296 100.922C31.296 100.577 31.3987 100.287 31.604 100.054C31.8187 99.8207 32.1173 99.704 32.5 99.704C32.8827 99.704 33.186 99.802 33.41 99.998C33.634 100.194 33.746 100.488 33.746 100.88C33.746 101.272 33.6387 101.58 33.424 101.804C33.2187 102.028 32.9107 102.14 32.5 102.14ZM35.0571 90.87L39.1871 103.358H38.5991L34.4831 90.87H35.0571ZM43.0733 99.018C43.0733 99.8767 43.218 100.535 43.5073 100.992C43.806 101.449 44.338 101.678 45.1033 101.678C45.8686 101.678 46.4566 101.44 46.8673 100.964C47.278 100.488 47.4833 99.7647 47.4833 98.794V92.466H46.5733V92.2H48.6173V92.466H47.8473V98.696C47.8473 99.8533 47.5906 100.717 47.0773 101.286C46.564 101.855 45.654 102.14 44.3473 102.14C43.05 102.14 42.056 101.869 41.3653 101.328C40.684 100.787 40.3433 99.858 40.3433 98.542V92.466H39.5733V92.2H43.9833V92.466H43.0733V99.018ZM49.1612 102.14V99.634H49.3292C49.5719 100.446 49.8986 101.015 50.3092 101.342C50.7199 101.669 51.2332 101.832 51.8492 101.832C52.8012 101.832 53.2772 101.529 53.2772 100.922C53.2772 100.661 53.1606 100.465 52.9272 100.334C52.5632 100.129 52.0966 99.97 51.5272 99.858C50.8926 99.69 50.3606 99.466 49.9312 99.186C49.4179 98.85 49.1612 98.318 49.1612 97.59C49.1612 96.862 49.3852 96.2833 49.8332 95.854C50.2812 95.4153 50.8786 95.196 51.6252 95.196C52.0826 95.196 52.5539 95.3033 53.0392 95.518C53.2166 95.5927 53.3519 95.63 53.4452 95.63C53.5386 95.63 53.6179 95.5973 53.6832 95.532C53.7486 95.4667 53.8279 95.3453 53.9212 95.168H54.0752V97.31H53.9072C53.4312 96.0967 52.6939 95.49 51.6952 95.49C51.2566 95.49 50.9299 95.5693 50.7152 95.728C50.5006 95.8773 50.3932 96.0687 50.3932 96.302C50.3932 96.442 50.4259 96.554 50.4912 96.638C50.5566 96.7127 50.6079 96.7687 50.6452 96.806C50.6826 96.8433 50.7432 96.8853 50.8272 96.932C50.9112 96.9693 50.9812 97.002 51.0372 97.03C51.0932 97.0487 51.1772 97.0767 51.2892 97.114C51.4106 97.1513 51.4992 97.1747 51.5552 97.184C52.1899 97.3427 52.6472 97.4827 52.9272 97.604C53.2072 97.716 53.4732 97.856 53.7252 98.024C54.2386 98.3787 54.4952 98.9527 54.4952 99.746C54.4952 100.53 54.2619 101.127 53.7952 101.538C53.3286 101.939 52.6892 102.14 51.8772 102.14C51.2986 102.14 50.7386 102.005 50.1972 101.734C50.0852 101.659 49.9966 101.622 49.9312 101.622C49.7259 101.622 49.5252 101.795 49.3292 102.14H49.1612ZM58.5915 102.14C57.3875 102.14 56.4822 101.832 55.8755 101.216C55.2782 100.591 54.9795 99.7273 54.9795 98.626C54.9795 97.5153 55.3155 96.666 55.9875 96.078C56.6689 95.49 57.5322 95.196 58.5775 95.196C60.6962 95.196 61.7135 96.26 61.6295 98.388H57.6815V98.934C57.6815 99.8487 57.7982 100.539 58.0315 101.006C58.2649 101.473 58.6709 101.706 59.2495 101.706C60.3322 101.706 61.0415 101.127 61.3775 99.97L61.6295 100.012C61.4522 100.684 61.1302 101.207 60.6635 101.58C60.2062 101.953 59.5155 102.14 58.5915 102.14ZM57.6955 98.108H59.1375V97.422C59.1375 96.666 59.0909 96.1527 58.9975 95.882C58.9135 95.602 58.7362 95.462 58.4655 95.462C58.2042 95.462 58.0082 95.6113 57.8775 95.91C57.7562 96.1993 57.6955 96.7033 57.6955 97.422V98.108ZM66.8043 95.728C66.4589 95.728 66.1556 95.952 65.8943 96.4C65.6329 96.848 65.5023 97.38 65.5023 97.996V101.748H66.4963V102H62.1283V101.748H62.8983V95.588H62.1283V95.336H65.5023V96.68C65.6236 96.204 65.8569 95.84 66.2023 95.588C66.5476 95.3267 66.9396 95.196 67.3783 95.196C67.8169 95.196 68.1716 95.322 68.4423 95.574C68.7223 95.8167 68.8623 96.1667 68.8623 96.624C68.8623 97.072 68.7596 97.4173 68.5543 97.66C68.3489 97.9027 68.0316 98.024 67.6023 98.024C67.1823 98.024 66.8696 97.884 66.6643 97.604C66.4683 97.324 66.4449 96.9367 66.5943 96.442H67.0983C67.3316 95.966 67.2336 95.728 66.8043 95.728ZM69.2179 102.14V99.634H69.3859C69.6285 100.446 69.9552 101.015 70.3659 101.342C70.7765 101.669 71.2899 101.832 71.9059 101.832C72.8579 101.832 73.3339 101.529 73.3339 100.922C73.3339 100.661 73.2172 100.465 72.9839 100.334C72.6199 100.129 72.1532 99.97 71.5839 99.858C70.9492 99.69 70.4172 99.466 69.9879 99.186C69.4745 98.85 69.2179 98.318 69.2179 97.59C69.2179 96.862 69.4419 96.2833 69.8899 95.854C70.3379 95.4153 70.9352 95.196 71.6819 95.196C72.1392 95.196 72.6105 95.3033 73.0959 95.518C73.2732 95.5927 73.4085 95.63 73.5019 95.63C73.5952 95.63 73.6745 95.5973 73.7399 95.532C73.8052 95.4667 73.8845 95.3453 73.9779 95.168H74.1319V97.31H73.9639C73.4879 96.0967 72.7505 95.49 71.7519 95.49C71.3132 95.49 70.9865 95.5693 70.7719 95.728C70.5572 95.8773 70.4499 96.0687 70.4499 96.302C70.4499 96.442 70.4825 96.554 70.5479 96.638C70.6132 96.7127 70.6645 96.7687 70.7019 96.806C70.7392 96.8433 70.7999 96.8853 70.8839 96.932C70.9679 96.9693 71.0379 97.002 71.0939 97.03C71.1499 97.0487 71.2339 97.0767 71.3459 97.114C71.4672 97.1513 71.5559 97.1747 71.6119 97.184C72.2465 97.3427 72.7039 97.4827 72.9839 97.604C73.2639 97.716 73.5299 97.856 73.7819 98.024C74.2952 98.3787 74.5519 98.9527 74.5519 99.746C74.5519 100.53 74.3185 101.127 73.8519 101.538C73.3852 101.939 72.7459 102.14 71.9339 102.14C71.3552 102.14 70.7952 102.005 70.2539 101.734C70.1419 101.659 70.0532 101.622 69.9879 101.622C69.7825 101.622 69.5819 101.795 69.3859 102.14H69.2179ZM75.5122 90.87L79.6422 103.358H79.0542L74.9382 90.87H75.5122ZM80.0844 92.2H84.3544V92.466H83.5844V101.734H84.3544V102H80.0844V101.734H80.8544V92.466H80.0844V92.2ZM84.2871 95.588V95.336H88.4731V95.588H87.5911L89.2711 100.236L90.7831 95.588H89.8451V95.336H91.7351V95.588H91.1191L89.0471 102H87.4511L84.8611 95.588H84.2871ZM94.8145 98.71H95.2205V97.632C95.2205 96.7453 95.1691 96.1527 95.0665 95.854C94.9731 95.546 94.7865 95.392 94.5065 95.392C94.3385 95.392 94.1845 95.4387 94.0445 95.532C93.9138 95.616 93.8485 95.7373 93.8485 95.896C93.8485 96.0453 93.8765 96.1993 93.9325 96.358H94.2825C94.3571 96.554 94.3945 96.792 94.3945 97.072C94.3945 97.3427 94.2778 97.5807 94.0445 97.786C93.8111 97.982 93.5171 98.08 93.1625 98.08C92.3598 98.08 91.9585 97.6927 91.9585 96.918C91.9585 95.77 92.9338 95.196 94.8845 95.196C95.9951 95.196 96.7605 95.3873 97.1805 95.77C97.6098 96.1433 97.8245 96.834 97.8245 97.842V100.684C97.8245 101.169 97.9598 101.412 98.2305 101.412C98.5478 101.412 98.7345 100.931 98.7905 99.97L99.0005 99.984C98.9631 100.805 98.8091 101.37 98.5385 101.678C98.2678 101.986 97.8245 102.14 97.2085 102.14C96.0885 102.14 95.4445 101.795 95.2765 101.104C95.1551 101.459 94.9731 101.72 94.7305 101.888C94.4878 102.056 94.1331 102.14 93.6665 102.14C92.2851 102.14 91.5945 101.575 91.5945 100.446C91.5945 99.7833 91.8558 99.3307 92.3785 99.088C92.9105 98.836 93.7225 98.71 94.8145 98.71ZM94.2545 100.432C94.2545 100.917 94.2778 101.23 94.3245 101.37C94.3805 101.51 94.4785 101.58 94.6185 101.58C94.7678 101.58 94.9031 101.463 95.0245 101.23C95.1551 100.987 95.2205 100.656 95.2205 100.236V98.934H95.1225C94.5438 98.934 94.2545 99.3587 94.2545 100.208V100.432ZM99.166 95.336H102.54V96.624C102.689 96.1947 102.918 95.8493 103.226 95.588C103.534 95.3267 104.001 95.196 104.626 95.196C106.073 95.196 106.796 95.9753 106.796 97.534V101.748H107.58V102H103.618V101.748H104.192V97.198C104.192 96.638 104.155 96.2787 104.08 96.12C104.005 95.952 103.87 95.868 103.674 95.868C103.375 95.868 103.109 96.064 102.876 96.456C102.652 96.848 102.54 97.324 102.54 97.884V101.748H103.142V102H99.166V101.748H99.936V95.588H99.166V95.336ZM107.793 95.336H111.167V96.624C111.316 96.1947 111.545 95.8493 111.853 95.588C112.161 95.3267 112.628 95.196 113.253 95.196C114.7 95.196 115.423 95.9753 115.423 97.534V101.748H116.207V102H112.245V101.748H112.819V97.198C112.819 96.638 112.782 96.2787 112.707 96.12C112.632 95.952 112.497 95.868 112.301 95.868C112.002 95.868 111.736 96.064 111.503 96.456C111.279 96.848 111.167 97.324 111.167 97.884V101.748H111.769V102H107.793V101.748H108.563V95.588H107.793V95.336ZM119.752 98.71H120.158V97.632C120.158 96.7453 120.107 96.1527 120.004 95.854C119.911 95.546 119.724 95.392 119.444 95.392C119.276 95.392 119.122 95.4387 118.982 95.532C118.851 95.616 118.786 95.7373 118.786 95.896C118.786 96.0453 118.814 96.1993 118.87 96.358H119.22C119.295 96.554 119.332 96.792 119.332 97.072C119.332 97.3427 119.215 97.5807 118.982 97.786C118.749 97.982 118.455 98.08 118.1 98.08C117.297 98.08 116.896 97.6927 116.896 96.918C116.896 95.77 117.871 95.196 119.822 95.196C120.933 95.196 121.698 95.3873 122.118 95.77C122.547 96.1433 122.762 96.834 122.762 97.842V100.684C122.762 101.169 122.897 101.412 123.168 101.412C123.485 101.412 123.672 100.931 123.728 99.97L123.938 99.984C123.901 100.805 123.747 101.37 123.476 101.678C123.205 101.986 122.762 102.14 122.146 102.14C121.026 102.14 120.382 101.795 120.214 101.104C120.093 101.459 119.911 101.72 119.668 101.888C119.425 102.056 119.071 102.14 118.604 102.14C117.223 102.14 116.532 101.575 116.532 100.446C116.532 99.7833 116.793 99.3307 117.316 99.088C117.848 98.836 118.66 98.71 119.752 98.71ZM119.192 100.432C119.192 100.917 119.215 101.23 119.262 101.37C119.318 101.51 119.416 101.58 119.556 101.58C119.705 101.58 119.841 101.463 119.962 101.23C120.093 100.987 120.158 100.656 120.158 100.236V98.934H120.06C119.481 98.934 119.192 99.3587 119.192 100.208V100.432ZM123.637 90.87L127.767 103.358H127.179L123.063 90.87H123.637ZM137.855 96.932C137.855 98.8547 137.314 100.194 136.231 100.95C135.233 101.65 133.861 102 132.115 102H128.153V101.734H129.077V92.466H128.153V92.2H132.479C134.271 92.2 135.615 92.5687 136.511 93.306C137.407 94.034 137.855 95.2427 137.855 96.932ZM131.807 101.734H132.339C133.282 101.734 133.954 101.403 134.355 100.74C134.766 100.068 134.971 98.948 134.971 97.38V96.568C134.971 94.468 134.57 93.2033 133.767 92.774C133.385 92.5687 132.843 92.466 132.143 92.466H131.807V101.734ZM142.25 102.14C141.046 102.14 140.14 101.832 139.534 101.216C138.936 100.591 138.638 99.7273 138.638 98.626C138.638 97.5153 138.974 96.666 139.646 96.078C140.327 95.49 141.19 95.196 142.236 95.196C144.354 95.196 145.372 96.26 145.288 98.388H141.34V98.934C141.34 99.8487 141.456 100.539 141.69 101.006C141.923 101.473 142.329 101.706 142.908 101.706C143.99 101.706 144.7 101.127 145.036 99.97L145.288 100.012C145.11 100.684 144.788 101.207 144.322 101.58C143.864 101.953 143.174 102.14 142.25 102.14ZM141.354 98.108H142.796V97.422C142.796 96.666 142.749 96.1527 142.656 95.882C142.572 95.602 142.394 95.462 142.124 95.462C141.862 95.462 141.666 95.6113 141.536 95.91C141.414 96.1993 141.354 96.7033 141.354 97.422V98.108ZM145.972 102.14V99.634H146.14C146.382 100.446 146.709 101.015 147.12 101.342C147.53 101.669 148.044 101.832 148.66 101.832C149.612 101.832 150.088 101.529 150.088 100.922C150.088 100.661 149.971 100.465 149.738 100.334C149.374 100.129 148.907 99.97 148.338 99.858C147.703 99.69 147.171 99.466 146.742 99.186C146.228 98.85 145.972 98.318 145.972 97.59C145.972 96.862 146.196 96.2833 146.644 95.854C147.092 95.4153 147.689 95.196 148.436 95.196C148.893 95.196 149.364 95.3033 149.85 95.518C150.027 95.5927 150.162 95.63 150.256 95.63C150.349 95.63 150.428 95.5973 150.494 95.532C150.559 95.4667 150.638 95.3453 150.732 95.168H150.886V97.31H150.718C150.242 96.0967 149.504 95.49 148.506 95.49C148.067 95.49 147.74 95.5693 147.526 95.728C147.311 95.8773 147.204 96.0687 147.204 96.302C147.204 96.442 147.236 96.554 147.302 96.638C147.367 96.7127 147.418 96.7687 147.456 96.806C147.493 96.8433 147.554 96.8853 147.638 96.932C147.722 96.9693 147.792 97.002 147.848 97.03C147.904 97.0487 147.988 97.0767 148.1 97.114C148.221 97.1513 148.31 97.1747 148.366 97.184C149 97.3427 149.458 97.4827 149.738 97.604C150.018 97.716 150.284 97.856 150.536 98.024C151.049 98.3787 151.306 98.9527 151.306 99.746C151.306 100.53 151.072 101.127 150.606 101.538C150.139 101.939 149.5 102.14 148.688 102.14C148.109 102.14 147.549 102.005 147.008 101.734C146.896 101.659 146.807 101.622 146.742 101.622C146.536 101.622 146.336 101.795 146.14 102.14H145.972ZM156.298 102V101.748H156.942L155.36 98.5L155.094 98.57V101.748H155.738V102H151.72V101.748H152.49V91.752H151.664V91.5H155.094V98.29L155.318 98.206L158.468 95.588H157.152V95.336H159.91V95.588H158.93L157.264 97.002L159.686 101.748H160.19V102H156.298ZM161.102 99.998V95.588H160.332V95.336H161.102V93.53L163.706 92.886V95.336H165.526V95.588H163.706V100.306C163.706 100.745 163.748 101.067 163.832 101.272C163.925 101.477 164.112 101.58 164.392 101.58C164.672 101.58 164.914 101.44 165.12 101.16C165.334 100.88 165.474 100.497 165.54 100.012L165.778 100.04C165.703 100.684 165.498 101.197 165.162 101.58C164.826 101.953 164.27 102.14 163.496 102.14C162.721 102.14 162.128 101.986 161.718 101.678C161.307 101.37 161.102 100.81 161.102 99.998ZM170.433 99.242V98.052C170.433 97.1467 170.382 96.4887 170.279 96.078C170.186 95.658 169.962 95.448 169.607 95.448C169.402 95.448 169.234 95.5087 169.103 95.63C168.982 95.742 168.893 95.9333 168.837 96.204C168.753 96.624 168.711 97.2633 168.711 98.122V99.214C168.711 100.231 168.739 100.843 168.795 101.048C168.861 101.253 168.926 101.421 168.991 101.552C169.094 101.776 169.295 101.888 169.593 101.888C169.957 101.888 170.195 101.678 170.307 101.258C170.391 100.959 170.433 100.287 170.433 99.242ZM169.565 102.14C168.399 102.14 167.517 101.841 166.919 101.244C166.322 100.647 166.023 99.7927 166.023 98.682C166.023 97.562 166.341 96.7033 166.975 96.106C167.619 95.4993 168.52 95.196 169.677 95.196C170.835 95.196 171.698 95.476 172.267 96.036C172.837 96.5867 173.121 97.4313 173.121 98.57C173.121 100.95 171.936 102.14 169.565 102.14ZM178.623 98.234C178.623 97.2727 178.576 96.6287 178.483 96.302C178.39 95.966 178.208 95.798 177.937 95.798C177.666 95.798 177.424 95.9753 177.209 96.33C176.994 96.6753 176.887 97.142 176.887 97.73V100.292C176.887 100.693 176.966 101.034 177.125 101.314C177.284 101.594 177.517 101.734 177.825 101.734C178.133 101.734 178.343 101.529 178.455 101.118C178.567 100.707 178.623 99.9887 178.623 98.962V98.234ZM176.859 95.336V96.442C177.223 95.6113 177.867 95.196 178.791 95.196C179.594 95.196 180.214 95.4853 180.653 96.064C181.101 96.6427 181.325 97.52 181.325 98.696C181.325 99.872 181.082 100.74 180.597 101.3C180.121 101.86 179.402 102.14 178.441 102.14C177.993 102.14 177.657 102.084 177.433 101.972C177.209 101.86 177.027 101.687 176.887 101.454V105.08H178.693V105.332H173.513V105.08H174.283V95.588H173.541V95.336H176.859ZM181.729 90.87L185.859 103.358H185.271L181.155 90.87H181.729ZM186.161 92.2H190.277C191.687 92.2 192.737 92.4053 193.427 92.816C194.118 93.2173 194.463 93.9407 194.463 94.986C194.463 96.1433 194.043 96.9413 193.203 97.38C192.419 97.7813 191.323 97.982 189.913 97.982H189.801V101.734H191.551V102H186.161V101.734H187.071V92.466H186.161V92.2ZM189.801 92.466V97.716H190.095C190.655 97.716 191.043 97.5247 191.257 97.142C191.472 96.7593 191.579 96.1387 191.579 95.28V94.608C191.579 93.8147 191.477 93.2593 191.271 92.942C191.075 92.6247 190.711 92.466 190.179 92.466H189.801ZM199.64 95.728C199.295 95.728 198.992 95.952 198.73 96.4C198.469 96.848 198.338 97.38 198.338 97.996V101.748H199.332V102H194.964V101.748H195.734V95.588H194.964V95.336H198.338V96.68C198.46 96.204 198.693 95.84 199.038 95.588C199.384 95.3267 199.776 95.196 200.214 95.196C200.653 95.196 201.008 95.322 201.278 95.574C201.558 95.8167 201.698 96.1667 201.698 96.624C201.698 97.072 201.596 97.4173 201.39 97.66C201.185 97.9027 200.868 98.024 200.438 98.024C200.018 98.024 199.706 97.884 199.5 97.604C199.304 97.324 199.281 96.9367 199.43 96.442H199.934C200.168 95.966 200.07 95.728 199.64 95.728ZM206.35 99.242V98.052C206.35 97.1467 206.298 96.4887 206.196 96.078C206.102 95.658 205.878 95.448 205.524 95.448C205.318 95.448 205.15 95.5087 205.02 95.63C204.898 95.742 204.81 95.9333 204.754 96.204C204.67 96.624 204.628 97.2633 204.628 98.122V99.214C204.628 100.231 204.656 100.843 204.712 101.048C204.777 101.253 204.842 101.421 204.908 101.552C205.01 101.776 205.211 101.888 205.51 101.888C205.874 101.888 206.112 101.678 206.224 101.258C206.308 100.959 206.35 100.287 206.35 99.242ZM205.482 102.14C204.315 102.14 203.433 101.841 202.836 101.244C202.238 100.647 201.94 99.7927 201.94 98.682C201.94 97.562 202.257 96.7033 202.892 96.106C203.536 95.4993 204.436 95.196 205.594 95.196C206.751 95.196 207.614 95.476 208.184 96.036C208.753 96.5867 209.038 97.4313 209.038 98.57C209.038 100.95 207.852 102.14 205.482 102.14ZM212.803 95.336V100.796C212.803 102.327 212.537 103.493 212.005 104.296C211.482 105.099 210.624 105.5 209.429 105.5C208.654 105.5 208.09 105.346 207.735 105.038C207.371 104.73 207.189 104.371 207.189 103.96C207.189 103.549 207.31 103.232 207.553 103.008C207.796 102.793 208.099 102.686 208.463 102.686C208.827 102.686 209.102 102.784 209.289 102.98C209.466 103.185 209.555 103.409 209.555 103.652C209.555 103.895 209.527 104.128 209.471 104.352H208.939C208.79 104.604 208.771 104.819 208.883 104.996C208.986 105.173 209.177 105.262 209.457 105.262C209.746 105.262 209.942 105.099 210.045 104.772C210.148 104.455 210.199 103.792 210.199 102.784V95.588H209.289V95.336H212.803ZM211.473 94.37C210.978 94.37 210.624 94.244 210.409 93.992C210.204 93.74 210.101 93.4273 210.101 93.054C210.101 92.6807 210.213 92.3727 210.437 92.13C210.67 91.8873 211.02 91.766 211.487 91.766C211.954 91.766 212.308 91.878 212.551 92.102C212.794 92.3167 212.915 92.6293 212.915 93.04C212.915 93.4413 212.798 93.7633 212.565 94.006C212.332 94.2487 211.968 94.37 211.473 94.37ZM217.459 102.14C216.255 102.14 215.349 101.832 214.743 101.216C214.145 100.591 213.847 99.7273 213.847 98.626C213.847 97.5153 214.183 96.666 214.855 96.078C215.536 95.49 216.399 95.196 217.445 95.196C219.563 95.196 220.581 96.26 220.497 98.388H216.549V98.934C216.549 99.8487 216.665 100.539 216.899 101.006C217.132 101.473 217.538 101.706 218.117 101.706C219.199 101.706 219.909 101.127 220.245 99.97L220.497 100.012C220.319 100.684 219.997 101.207 219.531 101.58C219.073 101.953 218.383 102.14 217.459 102.14ZM216.563 98.108H218.005V97.422C218.005 96.666 217.958 96.1527 217.865 95.882C217.781 95.602 217.603 95.462 217.333 95.462C217.071 95.462 216.875 95.6113 216.745 95.91C216.623 96.1993 216.563 96.7033 216.563 97.422V98.108ZM224.915 95.448C224.505 95.448 224.211 95.672 224.033 96.12C223.856 96.568 223.767 97.31 223.767 98.346V99.074C223.767 99.998 223.87 100.661 224.075 101.062C224.281 101.463 224.659 101.664 225.209 101.664C225.76 101.664 226.199 101.477 226.525 101.104C226.852 100.731 227.062 100.306 227.155 99.83L227.407 99.858C227.23 100.661 226.903 101.239 226.427 101.594C225.942 101.958 225.275 102.14 224.425 102.14C223.343 102.14 222.512 101.851 221.933 101.272C221.355 100.684 221.065 99.83 221.065 98.71C221.065 97.5807 221.392 96.7127 222.045 96.106C222.708 95.4993 223.627 95.196 224.803 95.196C225.634 95.196 226.269 95.3593 226.707 95.686C227.146 96.0033 227.365 96.4047 227.365 96.89C227.365 97.3753 227.258 97.73 227.043 97.954C226.838 98.178 226.549 98.29 226.175 98.29C225.811 98.29 225.517 98.192 225.293 97.996C225.069 97.8 224.957 97.5107 224.957 97.128C224.957 96.96 224.981 96.792 225.027 96.624H225.489C225.555 96.4373 225.587 96.2693 225.587 96.12C225.587 95.672 225.363 95.448 224.915 95.448ZM228.463 99.998V95.588H227.693V95.336H228.463V93.53L231.067 92.886V95.336H232.887V95.588H231.067V100.306C231.067 100.745 231.109 101.067 231.193 101.272C231.286 101.477 231.473 101.58 231.753 101.58C232.033 101.58 232.276 101.44 232.481 101.16C232.696 100.88 232.836 100.497 232.901 100.012L233.139 100.04C233.064 100.684 232.859 101.197 232.523 101.58C232.187 101.953 231.632 102.14 230.857 102.14C230.082 102.14 229.49 101.986 229.079 101.678C228.668 101.37 228.463 100.81 228.463 99.998ZM233.595 102.14V99.634H233.763C234.005 100.446 234.332 101.015 234.743 101.342C235.153 101.669 235.667 101.832 236.283 101.832C237.235 101.832 237.711 101.529 237.711 100.922C237.711 100.661 237.594 100.465 237.361 100.334C236.997 100.129 236.53 99.97 235.961 99.858C235.326 99.69 234.794 99.466 234.365 99.186C233.851 98.85 233.595 98.318 233.595 97.59C233.595 96.862 233.819 96.2833 234.267 95.854C234.715 95.4153 235.312 95.196 236.059 95.196C236.516 95.196 236.987 95.3033 237.473 95.518C237.65 95.5927 237.785 95.63 237.879 95.63C237.972 95.63 238.051 95.5973 238.117 95.532C238.182 95.4667 238.261 95.3453 238.355 95.168H238.509V97.31H238.341C237.865 96.0967 237.127 95.49 236.129 95.49C235.69 95.49 235.363 95.5693 235.149 95.728C234.934 95.8773 234.827 96.0687 234.827 96.302C234.827 96.442 234.859 96.554 234.925 96.638C234.99 96.7127 235.041 96.7687 235.079 96.806C235.116 96.8433 235.177 96.8853 235.261 96.932C235.345 96.9693 235.415 97.002 235.471 97.03C235.527 97.0487 235.611 97.0767 235.723 97.114C235.844 97.1513 235.933 97.1747 235.989 97.184C236.623 97.3427 237.081 97.4827 237.361 97.604C237.641 97.716 237.907 97.856 238.159 98.024C238.672 98.3787 238.929 98.9527 238.929 99.746C238.929 100.53 238.695 101.127 238.229 101.538C237.762 101.939 237.123 102.14 236.311 102.14C235.732 102.14 235.172 102.005 234.631 101.734C234.519 101.659 234.43 101.622 234.365 101.622C234.159 101.622 233.959 101.795 233.763 102.14H233.595ZM239.889 90.87L244.019 103.358H243.431L239.315 90.87H239.889ZM244.461 92.2H248.731V92.466H247.961V101.734H248.731V102H244.461V101.734H245.231V92.466H244.461V92.2ZM248.664 95.588V95.336H252.85V95.588H251.968L253.648 100.236L255.16 95.588H254.222V95.336H256.112V95.588H255.496L253.424 102H251.828L249.238 95.588H248.664ZM259.191 98.71H259.597V97.632C259.597 96.7453 259.546 96.1527 259.443 95.854C259.35 95.546 259.163 95.392 258.883 95.392C258.715 95.392 258.561 95.4387 258.421 95.532C258.291 95.616 258.225 95.7373 258.225 95.896C258.225 96.0453 258.253 96.1993 258.309 96.358H258.659C258.734 96.554 258.771 96.792 258.771 97.072C258.771 97.3427 258.655 97.5807 258.421 97.786C258.188 97.982 257.894 98.08 257.539 98.08C256.737 98.08 256.335 97.6927 256.335 96.918C256.335 95.77 257.311 95.196 259.261 95.196C260.372 95.196 261.137 95.3873 261.557 95.77C261.987 96.1433 262.201 96.834 262.201 97.842V100.684C262.201 101.169 262.337 101.412 262.607 101.412C262.925 101.412 263.111 100.931 263.167 99.97L263.377 99.984C263.34 100.805 263.186 101.37 262.915 101.678C262.645 101.986 262.201 102.14 261.585 102.14C260.465 102.14 259.821 101.795 259.653 101.104C259.532 101.459 259.35 101.72 259.107 101.888C258.865 102.056 258.51 102.14 258.043 102.14C256.662 102.14 255.971 101.575 255.971 100.446C255.971 99.7833 256.233 99.3307 256.755 99.088C257.287 98.836 258.099 98.71 259.191 98.71ZM258.631 100.432C258.631 100.917 258.655 101.23 258.701 101.37C258.757 101.51 258.855 101.58 258.995 101.58C259.145 101.58 259.28 101.463 259.401 101.23C259.532 100.987 259.597 100.656 259.597 100.236V98.934H259.499C258.921 98.934 258.631 99.3587 258.631 100.208V100.432ZM263.543 95.336H266.917V96.624C267.066 96.1947 267.295 95.8493 267.603 95.588C267.911 95.3267 268.378 95.196 269.003 95.196C270.45 95.196 271.173 95.9753 271.173 97.534V101.748H271.957V102H267.995V101.748H268.569V97.198C268.569 96.638 268.532 96.2787 268.457 96.12C268.382 95.952 268.247 95.868 268.051 95.868C267.752 95.868 267.486 96.064 267.253 96.456C267.029 96.848 266.917 97.324 266.917 97.884V101.748H267.519V102H263.543V101.748H264.313V95.588H263.543V95.336ZM272.17 95.336H275.544V96.624C275.693 96.1947 275.922 95.8493 276.23 95.588C276.538 95.3267 277.005 95.196 277.63 95.196C279.077 95.196 279.8 95.9753 279.8 97.534V101.748H280.584V102H276.622V101.748H277.196V97.198C277.196 96.638 277.159 96.2787 277.084 96.12C277.009 95.952 276.874 95.868 276.678 95.868C276.379 95.868 276.113 96.064 275.88 96.456C275.656 96.848 275.544 97.324 275.544 97.884V101.748H276.146V102H272.17V101.748H272.94V95.588H272.17V95.336ZM284.129 98.71H284.535V97.632C284.535 96.7453 284.484 96.1527 284.381 95.854C284.288 95.546 284.101 95.392 283.821 95.392C283.653 95.392 283.499 95.4387 283.359 95.532C283.228 95.616 283.163 95.7373 283.163 95.896C283.163 96.0453 283.191 96.1993 283.247 96.358H283.597C283.672 96.554 283.709 96.792 283.709 97.072C283.709 97.3427 283.592 97.5807 283.359 97.786C283.126 97.982 282.832 98.08 282.477 98.08C281.674 98.08 281.273 97.6927 281.273 96.918C281.273 95.77 282.248 95.196 284.199 95.196C285.31 95.196 286.075 95.3873 286.495 95.77C286.924 96.1433 287.139 96.834 287.139 97.842V100.684C287.139 101.169 287.274 101.412 287.545 101.412C287.862 101.412 288.049 100.931 288.105 99.97L288.315 99.984C288.278 100.805 288.124 101.37 287.853 101.678C287.582 101.986 287.139 102.14 286.523 102.14C285.403 102.14 284.759 101.795 284.591 101.104C284.47 101.459 284.288 101.72 284.045 101.888C283.802 102.056 283.448 102.14 282.981 102.14C281.6 102.14 280.909 101.575 280.909 100.446C280.909 99.7833 281.17 99.3307 281.693 99.088C282.225 98.836 283.037 98.71 284.129 98.71ZM283.569 100.432C283.569 100.917 283.592 101.23 283.639 101.37C283.695 101.51 283.793 101.58 283.933 101.58C284.082 101.58 284.218 101.463 284.339 101.23C284.47 100.987 284.535 100.656 284.535 100.236V98.934H284.437C283.858 98.934 283.569 99.3587 283.569 100.208V100.432ZM289.013 98.108V97.688H292.541V98.108H289.013ZM293.444 92.2H297.56C298.97 92.2 300.02 92.4053 300.71 92.816C301.401 93.2173 301.746 93.9407 301.746 94.986C301.746 96.1433 301.326 96.9413 300.486 97.38C299.702 97.7813 298.606 97.982 297.196 97.982H297.084V101.734H298.834V102H293.444V101.734H294.354V92.466H293.444V92.2ZM297.084 92.466V97.716H297.378C297.938 97.716 298.326 97.5247 298.54 97.142C298.755 96.7593 298.862 96.1387 298.862 95.28V94.608C298.862 93.8147 298.76 93.2593 298.554 92.942C298.358 92.6247 297.994 92.466 297.462 92.466H297.084ZM305.506 102.14C304.302 102.14 303.396 101.832 302.79 101.216C302.192 100.591 301.894 99.7273 301.894 98.626C301.894 97.5153 302.23 96.666 302.902 96.078C303.583 95.49 304.446 95.196 305.492 95.196C307.61 95.196 308.628 96.26 308.544 98.388H304.596V98.934C304.596 99.8487 304.712 100.539 304.946 101.006C305.179 101.473 305.585 101.706 306.164 101.706C307.246 101.706 307.956 101.127 308.292 99.97L308.544 100.012C308.366 100.684 308.044 101.207 307.578 101.58C307.12 101.953 306.43 102.14 305.506 102.14ZM304.61 98.108H306.052V97.422C306.052 96.666 306.005 96.1527 305.912 95.882C305.828 95.602 305.65 95.462 305.38 95.462C305.118 95.462 304.922 95.6113 304.792 95.91C304.67 96.1993 304.61 96.7033 304.61 97.422V98.108ZM313.718 95.728C313.373 95.728 313.07 95.952 312.808 96.4C312.547 96.848 312.416 97.38 312.416 97.996V101.748H313.41V102H309.042V101.748H309.812V95.588H309.042V95.336H312.416V96.68C312.538 96.204 312.771 95.84 313.116 95.588C313.462 95.3267 313.854 95.196 314.292 95.196C314.731 95.196 315.086 95.322 315.356 95.574C315.636 95.8167 315.776 96.1667 315.776 96.624C315.776 97.072 315.674 97.4173 315.468 97.66C315.263 97.9027 314.946 98.024 314.516 98.024C314.096 98.024 313.784 97.884 313.578 97.604C313.382 97.324 313.359 96.9367 313.508 96.442H314.012C314.246 95.966 314.148 95.728 313.718 95.728ZM316.132 102.14V99.634H316.3C316.543 100.446 316.869 101.015 317.28 101.342C317.691 101.669 318.204 101.832 318.82 101.832C319.772 101.832 320.248 101.529 320.248 100.922C320.248 100.661 320.131 100.465 319.898 100.334C319.534 100.129 319.067 99.97 318.498 99.858C317.863 99.69 317.331 99.466 316.902 99.186C316.389 98.85 316.132 98.318 316.132 97.59C316.132 96.862 316.356 96.2833 316.804 95.854C317.252 95.4153 317.849 95.196 318.596 95.196C319.053 95.196 319.525 95.3033 320.01 95.518C320.187 95.5927 320.323 95.63 320.416 95.63C320.509 95.63 320.589 95.5973 320.654 95.532C320.719 95.4667 320.799 95.3453 320.892 95.168H321.046V97.31H320.878C320.402 96.0967 319.665 95.49 318.666 95.49C318.227 95.49 317.901 95.5693 317.686 95.728C317.471 95.8773 317.364 96.0687 317.364 96.302C317.364 96.442 317.397 96.554 317.462 96.638C317.527 96.7127 317.579 96.7687 317.616 96.806C317.653 96.8433 317.714 96.8853 317.798 96.932C317.882 96.9693 317.952 97.002 318.008 97.03C318.064 97.0487 318.148 97.0767 318.26 97.114C318.381 97.1513 318.47 97.1747 318.526 97.184C319.161 97.3427 319.618 97.4827 319.898 97.604C320.178 97.716 320.444 97.856 320.696 98.024C321.209 98.3787 321.466 98.9527 321.466 99.746C321.466 100.53 321.233 101.127 320.766 101.538C320.299 101.939 319.66 102.14 318.848 102.14C318.269 102.14 317.709 102.005 317.168 101.734C317.056 101.659 316.967 101.622 316.902 101.622C316.697 101.622 316.496 101.795 316.3 102.14H316.132ZM326.402 99.242V98.052C326.402 97.1467 326.351 96.4887 326.248 96.078C326.155 95.658 325.931 95.448 325.576 95.448C325.371 95.448 325.203 95.5087 325.072 95.63C324.951 95.742 324.862 95.9333 324.806 96.204C324.722 96.624 324.68 97.2633 324.68 98.122V99.214C324.68 100.231 324.708 100.843 324.764 101.048C324.83 101.253 324.895 101.421 324.96 101.552C325.063 101.776 325.264 101.888 325.562 101.888C325.926 101.888 326.164 101.678 326.276 101.258C326.36 100.959 326.402 100.287 326.402 99.242ZM325.534 102.14C324.368 102.14 323.486 101.841 322.888 101.244C322.291 100.647 321.992 99.7927 321.992 98.682C321.992 97.562 322.31 96.7033 322.944 96.106C323.588 95.4993 324.489 95.196 325.646 95.196C326.804 95.196 327.667 95.476 328.236 96.036C328.806 96.5867 329.09 97.4313 329.09 98.57C329.09 100.95 327.905 102.14 325.534 102.14ZM329.51 95.336H332.884V96.624C333.033 96.1947 333.262 95.8493 333.57 95.588C333.878 95.3267 334.344 95.196 334.97 95.196C336.416 95.196 337.14 95.9753 337.14 97.534V101.748H337.924V102H333.962V101.748H334.536V97.198C334.536 96.638 334.498 96.2787 334.424 96.12C334.349 95.952 334.214 95.868 334.018 95.868C333.719 95.868 333.453 96.064 333.22 96.456C332.996 96.848 332.884 97.324 332.884 97.884V101.748H333.486V102H329.51V101.748H330.28V95.588H329.51V95.336ZM341.469 98.71H341.875V97.632C341.875 96.7453 341.823 96.1527 341.721 95.854C341.627 95.546 341.441 95.392 341.161 95.392C340.993 95.392 340.839 95.4387 340.699 95.532C340.568 95.616 340.503 95.7373 340.503 95.896C340.503 96.0453 340.531 96.1993 340.587 96.358H340.937C341.011 96.554 341.049 96.792 341.049 97.072C341.049 97.3427 340.932 97.5807 340.699 97.786C340.465 97.982 340.171 98.08 339.817 98.08C339.014 98.08 338.613 97.6927 338.613 96.918C338.613 95.77 339.588 95.196 341.539 95.196C342.649 95.196 343.415 95.3873 343.835 95.77C344.264 96.1433 344.479 96.834 344.479 97.842V100.684C344.479 101.169 344.614 101.412 344.885 101.412C345.202 101.412 345.389 100.931 345.445 99.97L345.655 99.984C345.617 100.805 345.463 101.37 345.193 101.678C344.922 101.986 344.479 102.14 343.863 102.14C342.743 102.14 342.099 101.795 341.931 101.104C341.809 101.459 341.627 101.72 341.385 101.888C341.142 102.056 340.787 102.14 340.321 102.14C338.939 102.14 338.249 101.575 338.249 100.446C338.249 99.7833 338.51 99.3307 339.033 99.088C339.565 98.836 340.377 98.71 341.469 98.71ZM340.909 100.432C340.909 100.917 340.932 101.23 340.979 101.37C341.035 101.51 341.133 101.58 341.273 101.58C341.422 101.58 341.557 101.463 341.679 101.23C341.809 100.987 341.875 100.656 341.875 100.236V98.934H341.777C341.198 98.934 340.909 99.3587 340.909 100.208V100.432ZM345.736 91.5H349.166V101.748H349.95V102H345.792V101.748H346.562V91.752H345.736V91.5ZM350.782 98.108V97.688H354.31V98.108H350.782ZM360.94 99.172L362.102 95.14L361.262 92.466H360.464V92.2H364.804V92.466H363.978L366.064 99.088L367.744 92.466H366.33V92.2H369.13V92.466H368.206L365.63 102.14H364.384L362.312 95.812L360.492 102.14H359.274L355.746 92.466H355.088V92.2H359.638V92.466H358.658L360.94 99.172ZM371.91 102.14C370.706 102.14 369.801 101.832 369.194 101.216C368.597 100.591 368.298 99.7273 368.298 98.626C368.298 97.5153 368.634 96.666 369.306 96.078C369.987 95.49 370.851 95.196 371.896 95.196C374.015 95.196 375.032 96.26 374.948 98.388H371V98.934C371 99.8487 371.117 100.539 371.35 101.006C371.583 101.473 371.989 101.706 372.568 101.706C373.651 101.706 374.36 101.127 374.696 99.97L374.948 100.012C374.771 100.684 374.449 101.207 373.982 101.58C373.525 101.953 372.834 102.14 371.91 102.14ZM371.014 98.108H372.456V97.422C372.456 96.666 372.409 96.1527 372.316 95.882C372.232 95.602 372.055 95.462 371.784 95.462C371.523 95.462 371.327 95.6113 371.196 95.91C371.075 96.1993 371.014 96.7033 371.014 97.422V98.108ZM380.557 98.234C380.557 97.2727 380.51 96.6287 380.417 96.302C380.323 95.966 380.141 95.798 379.871 95.798C379.6 95.798 379.357 95.966 379.143 96.302C378.928 96.638 378.821 97.1 378.821 97.688V100.292C378.821 100.693 378.9 101.034 379.059 101.314C379.227 101.594 379.46 101.734 379.759 101.734C380.067 101.734 380.277 101.529 380.389 101.118C380.501 100.707 380.557 99.9887 380.557 98.962V98.234ZM378.821 91.5V96.4C379.175 95.5973 379.782 95.196 380.641 95.196C382.386 95.196 383.259 96.358 383.259 98.682C383.259 99.8673 383.016 100.74 382.531 101.3C382.055 101.86 381.336 102.14 380.375 102.14C379.889 102.14 379.516 102.065 379.255 101.916C379.003 101.767 378.83 101.519 378.737 101.174L378.639 102H375.447V101.748H376.217V91.752H375.447V91.5H378.821ZM383.999 102.14V99.634H384.167C384.41 100.446 384.736 101.015 385.147 101.342C385.558 101.669 386.071 101.832 386.687 101.832C387.639 101.832 388.115 101.529 388.115 100.922C388.115 100.661 387.998 100.465 387.765 100.334C387.401 100.129 386.934 99.97 386.365 99.858C385.73 99.69 385.198 99.466 384.769 99.186C384.256 98.85 383.999 98.318 383.999 97.59C383.999 96.862 384.223 96.2833 384.671 95.854C385.119 95.4153 385.716 95.196 386.463 95.196C386.92 95.196 387.392 95.3033 387.877 95.518C388.054 95.5927 388.19 95.63 388.283 95.63C388.376 95.63 388.456 95.5973 388.521 95.532C388.586 95.4667 388.666 95.3453 388.759 95.168H388.913V97.31H388.745C388.269 96.0967 387.532 95.49 386.533 95.49C386.094 95.49 385.768 95.5693 385.553 95.728C385.338 95.8773 385.231 96.0687 385.231 96.302C385.231 96.442 385.264 96.554 385.329 96.638C385.394 96.7127 385.446 96.7687 385.483 96.806C385.52 96.8433 385.581 96.8853 385.665 96.932C385.749 96.9693 385.819 97.002 385.875 97.03C385.931 97.0487 386.015 97.0767 386.127 97.114C386.248 97.1513 386.337 97.1747 386.393 97.184C387.028 97.3427 387.485 97.4827 387.765 97.604C388.045 97.716 388.311 97.856 388.563 98.024C389.076 98.3787 389.333 98.9527 389.333 99.746C389.333 100.53 389.1 101.127 388.633 101.538C388.166 101.939 387.527 102.14 386.715 102.14C386.136 102.14 385.576 102.005 385.035 101.734C384.923 101.659 384.834 101.622 384.769 101.622C384.564 101.622 384.363 101.795 384.167 102.14H383.999ZM391.805 94.37C391.311 94.37 390.956 94.244 390.741 93.992C390.536 93.74 390.433 93.4273 390.433 93.054C390.433 92.6807 390.545 92.3727 390.769 92.13C391.003 91.8873 391.353 91.766 391.819 91.766C392.286 91.766 392.641 91.878 392.883 92.102C393.126 92.3167 393.247 92.6293 393.247 93.04C393.247 93.4413 393.131 93.7633 392.897 94.006C392.664 94.2487 392.3 94.37 391.805 94.37ZM389.691 95.336H393.121V101.748H393.905V102H389.747V101.748H390.517V95.588H389.691V95.336ZM394.891 99.998V95.588H394.121V95.336H394.891V93.53L397.495 92.886V95.336H399.315V95.588H397.495V100.306C397.495 100.745 397.537 101.067 397.621 101.272C397.714 101.477 397.901 101.58 398.181 101.58C398.461 101.58 398.703 101.44 398.909 101.16C399.123 100.88 399.263 100.497 399.329 100.012L399.567 100.04C399.492 100.684 399.287 101.197 398.951 101.58C398.615 101.953 398.059 102.14 397.285 102.14C396.51 102.14 395.917 101.986 395.507 101.678C395.096 101.37 394.891 100.81 394.891 99.998ZM403.383 102.14C402.179 102.14 401.273 101.832 400.667 101.216C400.069 100.591 399.771 99.7273 399.771 98.626C399.771 97.5153 400.107 96.666 400.779 96.078C401.46 95.49 402.323 95.196 403.369 95.196C405.487 95.196 406.505 96.26 406.421 98.388H402.473V98.934C402.473 99.8487 402.589 100.539 402.823 101.006C403.056 101.473 403.462 101.706 404.041 101.706C405.123 101.706 405.833 101.127 406.169 99.97L406.421 100.012C406.243 100.684 405.921 101.207 405.455 101.58C404.997 101.953 404.307 102.14 403.383 102.14ZM402.487 98.108H403.929V97.422C403.929 96.666 403.882 96.1527 403.789 95.882C403.705 95.602 403.527 95.462 403.257 95.462C402.995 95.462 402.799 95.6113 402.669 95.91C402.547 96.1993 402.487 96.7033 402.487 97.422V98.108ZM407.325 95.042L413.653 97.758V98.122L407.325 100.796V100.306L412.897 97.926L407.325 95.56V95.042Z" fill="white"/>
</svg>
