<svg width="750" height="427" viewBox="0 0 750 427" fill="none" xmlns="http://www.w3.org/2000/svg">
<g filter="url(#filter0_d_399_295)">
<g filter="url(#filter1_d_399_295)">
<rect x="4" y="20" width="726" height="399" rx="15" fill="#9784B6"/>
</g>
<path d="M4 35C4 26.7157 10.7157 20 19 20H715C723.284 20 730 26.7157 730 35V87H4V35Z" fill="#5D536B"/>
<rect x="668" y="32" width="42" height="43" rx="5" fill="#A49CA7"/>
<line x1="679.686" y1="44.2729" x2="699.319" y2="62.808" stroke="white" stroke-width="2"/>
<line x1="678.619" y1="63.2795" x2="698.063" y2="44.5461" stroke="white" stroke-width="2"/>
<path d="M34.6 47.416C32.12 47.416 30.88 49.808 30.88 54.592V56.488C30.88 58.76 31.208 60.544 31.864 61.84C32.52 63.12 33.488 63.76 34.768 63.76C36.528 63.76 38.144 62.048 39.616 58.624H40.048L39.88 63.976H39.616C39.52 63.8 39.432 63.68 39.352 63.616C39.272 63.536 39.152 63.496 38.992 63.496C38.848 63.496 38.272 63.624 37.264 63.88C36.256 64.12 35.232 64.24 34.192 64.24C31.584 64.24 29.56 63.536 28.12 62.128C26.696 60.72 25.984 58.608 25.984 55.792C25.984 52.96 26.728 50.776 28.216 49.24C29.72 47.704 31.736 46.936 34.264 46.936C35.24 46.936 36.192 47.064 37.12 47.32C38.064 47.56 38.616 47.68 38.776 47.68C38.936 47.68 39.056 47.648 39.136 47.584C39.216 47.504 39.304 47.376 39.4 47.2H39.664L39.856 52.408H39.424C38.704 50.792 37.96 49.56 37.192 48.712C36.44 47.848 35.576 47.416 34.6 47.416ZM44.7143 56.296C44.0263 56.296 43.5063 56.096 43.1543 55.696C42.8183 55.28 42.6503 54.784 42.6503 54.208C42.6503 53.616 42.8263 53.12 43.1783 52.72C43.5463 52.32 44.0583 52.12 44.7143 52.12C45.3703 52.12 45.8903 52.288 46.2743 52.624C46.6583 52.96 46.8503 53.464 46.8503 54.136C46.8503 54.808 46.6663 55.336 46.2983 55.72C45.9463 56.104 45.4183 56.296 44.7143 56.296ZM44.7143 64.24C44.0263 64.24 43.5063 64.04 43.1543 63.64C42.8183 63.224 42.6503 62.728 42.6503 62.152C42.6503 61.56 42.8263 61.064 43.1783 60.664C43.5463 60.264 44.0583 60.064 44.7143 60.064C45.3703 60.064 45.8903 60.232 46.2743 60.568C46.6583 60.904 46.8503 61.408 46.8503 62.08C46.8503 62.752 46.6663 63.28 46.2983 63.664C45.9463 64.048 45.4183 64.24 44.7143 64.24ZM54.4259 58.888C54.4259 60.36 54.6739 61.488 55.1699 62.272C55.6819 63.056 56.5939 63.448 57.9059 63.448C59.2179 63.448 60.2259 63.04 60.9299 62.224C61.6339 61.408 61.9859 60.168 61.9859 58.504V47.656H60.4259V47.2H63.9299V47.656H62.6099V58.336C62.6099 60.32 62.1699 61.8 61.2899 62.776C60.4099 63.752 58.8499 64.24 56.6099 64.24C54.3859 64.24 52.6819 63.776 51.4979 62.848C50.3299 61.92 49.7459 60.328 49.7459 58.072V47.656H48.4259V47.2H55.9859V47.656H54.4259V58.888ZM64.8623 64.24V59.944H65.1503C65.5663 61.336 66.1263 62.312 66.8303 62.872C67.5343 63.432 68.4143 63.712 69.4703 63.712C71.1023 63.712 71.9183 63.192 71.9183 62.152C71.9183 61.704 71.7183 61.368 71.3183 61.144C70.6943 60.792 69.8943 60.52 68.9183 60.328C67.8303 60.04 66.9183 59.656 66.1823 59.176C65.3023 58.6 64.8623 57.688 64.8623 56.44C64.8623 55.192 65.2463 54.2 66.0143 53.464C66.7823 52.712 67.8063 52.336 69.0863 52.336C69.8703 52.336 70.6783 52.52 71.5103 52.888C71.8143 53.016 72.0463 53.08 72.2063 53.08C72.3663 53.08 72.5023 53.024 72.6143 52.912C72.7263 52.8 72.8623 52.592 73.0223 52.288H73.2863V55.96H72.9983C72.1823 53.88 70.9183 52.84 69.2063 52.84C68.4543 52.84 67.8943 52.976 67.5263 53.248C67.1583 53.504 66.9743 53.832 66.9743 54.232C66.9743 54.472 67.0303 54.664 67.1423 54.808C67.2543 54.936 67.3423 55.032 67.4063 55.096C67.4703 55.16 67.5743 55.232 67.7183 55.312C67.8623 55.376 67.9823 55.432 68.0783 55.48C68.1743 55.512 68.3183 55.56 68.5103 55.624C68.7183 55.688 68.8703 55.728 68.9663 55.744C70.0543 56.016 70.8383 56.256 71.3183 56.464C71.7983 56.656 72.2543 56.896 72.6863 57.184C73.5663 57.792 74.0063 58.776 74.0063 60.136C74.0063 61.48 73.6063 62.504 72.8063 63.208C72.0063 63.896 70.9103 64.24 69.5183 64.24C68.5263 64.24 67.5663 64.008 66.6383 63.544C66.4463 63.416 66.2943 63.352 66.1823 63.352C65.8303 63.352 65.4863 63.648 65.1503 64.24H64.8623ZM81.0286 64.24C78.9646 64.24 77.4126 63.712 76.3726 62.656C75.3486 61.584 74.8366 60.104 74.8366 58.216C74.8366 56.312 75.4126 54.856 76.5646 53.848C77.7326 52.84 79.2126 52.336 81.0046 52.336C84.6366 52.336 86.3806 54.16 86.2366 57.808H79.4686V58.744C79.4686 60.312 79.6686 61.496 80.0686 62.296C80.4686 63.096 81.1646 63.496 82.1566 63.496C84.0126 63.496 85.2286 62.504 85.8046 60.52L86.2366 60.592C85.9326 61.744 85.3806 62.64 84.5806 63.28C83.7966 63.92 82.6126 64.24 81.0286 64.24ZM79.4926 57.328H81.9646V56.152C81.9646 54.856 81.8846 53.976 81.7246 53.512C81.5806 53.032 81.2766 52.792 80.8126 52.792C80.3646 52.792 80.0286 53.048 79.8046 53.56C79.5966 54.056 79.4926 54.92 79.4926 56.152V57.328ZM95.1076 53.248C94.5156 53.248 93.9956 53.632 93.5476 54.4C93.0996 55.168 92.8756 56.08 92.8756 57.136V63.568H94.5796V64H87.0916V63.568H88.4116V53.008H87.0916V52.576H92.8756V54.88C93.0836 54.064 93.4836 53.44 94.0756 53.008C94.6676 52.56 95.3396 52.336 96.0916 52.336C96.8436 52.336 97.4516 52.552 97.9156 52.984C98.3956 53.4 98.6356 54 98.6356 54.784C98.6356 55.552 98.4596 56.144 98.1076 56.56C97.7556 56.976 97.2116 57.184 96.4756 57.184C95.7556 57.184 95.2196 56.944 94.8676 56.464C94.5316 55.984 94.4916 55.32 94.7476 54.472H95.6116C96.0116 53.656 95.8436 53.248 95.1076 53.248ZM99.2451 64.24V59.944H99.5331C99.9491 61.336 100.509 62.312 101.213 62.872C101.917 63.432 102.797 63.712 103.853 63.712C105.485 63.712 106.301 63.192 106.301 62.152C106.301 61.704 106.101 61.368 105.701 61.144C105.077 60.792 104.277 60.52 103.301 60.328C102.213 60.04 101.301 59.656 100.565 59.176C99.6851 58.6 99.2451 57.688 99.2451 56.44C99.2451 55.192 99.6291 54.2 100.397 53.464C101.165 52.712 102.189 52.336 103.469 52.336C104.253 52.336 105.061 52.52 105.893 52.888C106.197 53.016 106.429 53.08 106.589 53.08C106.749 53.08 106.885 53.024 106.997 52.912C107.109 52.8 107.245 52.592 107.405 52.288H107.669V55.96H107.381C106.565 53.88 105.301 52.84 103.589 52.84C102.837 52.84 102.277 52.976 101.909 53.248C101.541 53.504 101.357 53.832 101.357 54.232C101.357 54.472 101.413 54.664 101.525 54.808C101.637 54.936 101.725 55.032 101.789 55.096C101.853 55.16 101.957 55.232 102.101 55.312C102.245 55.376 102.365 55.432 102.461 55.48C102.557 55.512 102.701 55.56 102.893 55.624C103.101 55.688 103.253 55.728 103.349 55.744C104.437 56.016 105.221 56.256 105.701 56.464C106.181 56.656 106.637 56.896 107.069 57.184C107.949 57.792 108.389 58.776 108.389 60.136C108.389 61.48 107.989 62.504 107.189 63.208C106.389 63.896 105.293 64.24 103.901 64.24C102.909 64.24 101.949 64.008 101.021 63.544C100.829 63.416 100.677 63.352 100.565 63.352C100.213 63.352 99.8691 63.648 99.5331 64.24H99.2451ZM110.035 44.92L117.115 66.328H116.107L109.051 44.92H110.035ZM117.873 47.2H125.193V47.656H123.873V63.544H125.193V64H117.873V63.544H119.193V47.656H117.873V47.2ZM125.078 53.008V52.576H132.254V53.008H130.742L133.622 60.976L136.214 53.008H134.606V52.576H137.846V53.008H136.79L133.238 64H130.502L126.062 53.008H125.078ZM143.125 58.36H143.821V56.512C143.821 54.992 143.733 53.976 143.557 53.464C143.397 52.936 143.077 52.672 142.597 52.672C142.309 52.672 142.045 52.752 141.805 52.912C141.581 53.056 141.469 53.264 141.469 53.536C141.469 53.792 141.517 54.056 141.613 54.328H142.213C142.341 54.664 142.405 55.072 142.405 55.552C142.405 56.016 142.205 56.424 141.805 56.776C141.405 57.112 140.901 57.28 140.293 57.28C138.917 57.28 138.229 56.616 138.229 55.288C138.229 53.32 139.901 52.336 143.245 52.336C145.149 52.336 146.461 52.664 147.181 53.32C147.917 53.96 148.285 55.144 148.285 56.872V61.744C148.285 62.576 148.517 62.992 148.981 62.992C149.525 62.992 149.845 62.168 149.941 60.52L150.301 60.544C150.237 61.952 149.973 62.92 149.509 63.448C149.045 63.976 148.285 64.24 147.229 64.24C145.309 64.24 144.205 63.648 143.917 62.464C143.709 63.072 143.397 63.52 142.981 63.808C142.565 64.096 141.957 64.24 141.157 64.24C138.789 64.24 137.605 63.272 137.605 61.336C137.605 60.2 138.053 59.424 138.949 59.008C139.861 58.576 141.253 58.36 143.125 58.36ZM142.165 61.312C142.165 62.144 142.205 62.68 142.285 62.92C142.381 63.16 142.549 63.28 142.789 63.28C143.045 63.28 143.277 63.08 143.485 62.68C143.709 62.264 143.821 61.696 143.821 60.976V58.744H143.653C142.661 58.744 142.165 59.472 142.165 60.928V61.312ZM150.585 52.576H156.369V54.784C156.625 54.048 157.017 53.456 157.545 53.008C158.073 52.56 158.873 52.336 159.945 52.336C162.425 52.336 163.665 53.672 163.665 56.344V63.568H165.009V64H158.217V63.568H159.201V55.768C159.201 54.808 159.137 54.192 159.009 53.92C158.881 53.632 158.649 53.488 158.313 53.488C157.801 53.488 157.345 53.824 156.945 54.496C156.561 55.168 156.369 55.984 156.369 56.944V63.568H157.401V64H150.585V63.568H151.905V53.008H150.585V52.576ZM165.374 52.576H171.158V54.784C171.414 54.048 171.806 53.456 172.334 53.008C172.862 52.56 173.662 52.336 174.734 52.336C177.214 52.336 178.454 53.672 178.454 56.344V63.568H179.798V64H173.006V63.568H173.99V55.768C173.99 54.808 173.926 54.192 173.798 53.92C173.67 53.632 173.438 53.488 173.102 53.488C172.59 53.488 172.134 53.824 171.734 54.496C171.35 55.168 171.158 55.984 171.158 56.944V63.568H172.19V64H165.374V63.568H166.694V53.008H165.374V52.576ZM185.875 58.36H186.571V56.512C186.571 54.992 186.483 53.976 186.307 53.464C186.147 52.936 185.827 52.672 185.347 52.672C185.059 52.672 184.795 52.752 184.555 52.912C184.331 53.056 184.219 53.264 184.219 53.536C184.219 53.792 184.267 54.056 184.363 54.328H184.963C185.091 54.664 185.155 55.072 185.155 55.552C185.155 56.016 184.955 56.424 184.555 56.776C184.155 57.112 183.651 57.28 183.043 57.28C181.667 57.28 180.979 56.616 180.979 55.288C180.979 53.32 182.651 52.336 185.995 52.336C187.899 52.336 189.211 52.664 189.931 53.32C190.667 53.96 191.035 55.144 191.035 56.872V61.744C191.035 62.576 191.267 62.992 191.731 62.992C192.275 62.992 192.595 62.168 192.691 60.52L193.051 60.544C192.987 61.952 192.723 62.92 192.259 63.448C191.795 63.976 191.035 64.24 189.979 64.24C188.059 64.24 186.955 63.648 186.667 62.464C186.459 63.072 186.147 63.52 185.731 63.808C185.315 64.096 184.707 64.24 183.907 64.24C181.539 64.24 180.355 63.272 180.355 61.336C180.355 60.2 180.803 59.424 181.699 59.008C182.611 58.576 184.003 58.36 185.875 58.36ZM184.915 61.312C184.915 62.144 184.955 62.68 185.035 62.92C185.131 63.16 185.299 63.28 185.539 63.28C185.795 63.28 186.027 63.08 186.235 62.68C186.459 62.264 186.571 61.696 186.571 60.976V58.744H186.403C185.411 58.744 184.915 59.472 184.915 60.928V61.312ZM192.535 44.92L199.615 66.328H198.607L191.551 44.92H192.535ZM208.028 59.152L210.02 52.24L208.58 47.656H207.212V47.2H214.652V47.656H213.236L216.812 59.008L219.692 47.656H217.268V47.2H222.068V47.656H220.484L216.068 64.24H213.932L210.38 53.392L207.26 64.24H205.172L199.124 47.656H197.996V47.2H205.796V47.656H204.116L208.028 59.152ZM226.833 64.24C224.769 64.24 223.217 63.712 222.177 62.656C221.153 61.584 220.641 60.104 220.641 58.216C220.641 56.312 221.217 54.856 222.369 53.848C223.537 52.84 225.017 52.336 226.809 52.336C230.441 52.336 232.185 54.16 232.041 57.808H225.273V58.744C225.273 60.312 225.473 61.496 225.873 62.296C226.273 63.096 226.969 63.496 227.961 63.496C229.817 63.496 231.033 62.504 231.609 60.52L232.041 60.592C231.737 61.744 231.185 62.64 230.385 63.28C229.601 63.92 228.417 64.24 226.833 64.24ZM225.297 57.328H227.769V56.152C227.769 54.856 227.689 53.976 227.529 53.512C227.385 53.032 227.081 52.792 226.617 52.792C226.169 52.792 225.833 53.048 225.609 53.56C225.401 54.056 225.297 54.92 225.297 56.152V57.328ZM232.8 46H238.68V63.568H240.024V64H232.896V63.568H234.216V46.432H232.8V46ZM247.21 52.768C246.506 52.768 246.002 53.152 245.698 53.92C245.394 54.688 245.242 55.96 245.242 57.736V58.984C245.242 60.568 245.418 61.704 245.77 62.392C246.122 63.08 246.77 63.424 247.714 63.424C248.658 63.424 249.41 63.104 249.97 62.464C250.53 61.824 250.89 61.096 251.05 60.28L251.482 60.328C251.178 61.704 250.618 62.696 249.802 63.304C248.97 63.928 247.826 64.24 246.37 64.24C244.514 64.24 243.09 63.744 242.098 62.752C241.106 61.744 240.61 60.28 240.61 58.36C240.61 56.424 241.17 54.936 242.29 53.896C243.426 52.856 245.002 52.336 247.018 52.336C248.442 52.336 249.53 52.616 250.282 53.176C251.034 53.72 251.41 54.408 251.41 55.24C251.41 56.072 251.226 56.68 250.858 57.064C250.506 57.448 250.01 57.64 249.37 57.64C248.746 57.64 248.242 57.472 247.858 57.136C247.474 56.8 247.282 56.304 247.282 55.648C247.282 55.36 247.322 55.072 247.402 54.784H248.194C248.306 54.464 248.362 54.176 248.362 53.92C248.362 53.152 247.978 52.768 247.21 52.768ZM259.844 59.272V57.232C259.844 55.68 259.756 54.552 259.58 53.848C259.42 53.128 259.036 52.768 258.428 52.768C258.076 52.768 257.788 52.872 257.564 53.08C257.356 53.272 257.204 53.6 257.108 54.064C256.964 54.784 256.892 55.88 256.892 57.352V59.224C256.892 60.968 256.94 62.016 257.036 62.368C257.148 62.72 257.26 63.008 257.372 63.232C257.548 63.616 257.892 63.808 258.404 63.808C259.028 63.808 259.436 63.448 259.628 62.728C259.772 62.216 259.844 61.064 259.844 59.272ZM258.356 64.24C256.356 64.24 254.844 63.728 253.82 62.704C252.796 61.68 252.284 60.216 252.284 58.312C252.284 56.392 252.828 54.92 253.916 53.896C255.02 52.856 256.564 52.336 258.548 52.336C260.532 52.336 262.012 52.816 262.988 53.776C263.964 54.72 264.452 56.168 264.452 58.12C264.452 62.2 262.42 64.24 258.356 64.24ZM265.123 52.576H270.907V54.784C271.435 53.152 272.595 52.336 274.387 52.336C276.195 52.336 277.291 53.2 277.675 54.928C278.235 53.2 279.411 52.336 281.203 52.336C283.555 52.336 284.731 53.672 284.731 56.344V63.568H286.075V64H279.427V63.568H280.267V55.768C280.267 54.552 280.163 53.84 279.955 53.632C279.859 53.536 279.731 53.488 279.571 53.488C279.107 53.488 278.699 53.8 278.347 54.424C277.995 55.048 277.819 55.84 277.819 56.8V63.568H278.683V64H272.515V63.568H273.355V55.768C273.355 54.552 273.251 53.84 273.043 53.632C272.947 53.536 272.819 53.488 272.659 53.488C272.211 53.488 271.803 53.832 271.435 54.52C271.083 55.192 270.907 56 270.907 56.944V63.568H271.771V64H265.123V63.568H266.443V53.008H265.123V52.576ZM292.74 64.24C290.676 64.24 289.124 63.712 288.084 62.656C287.06 61.584 286.548 60.104 286.548 58.216C286.548 56.312 287.124 54.856 288.276 53.848C289.444 52.84 290.924 52.336 292.716 52.336C296.348 52.336 298.092 54.16 297.948 57.808H291.18V58.744C291.18 60.312 291.38 61.496 291.78 62.296C292.18 63.096 292.876 63.496 293.868 63.496C295.724 63.496 296.94 62.504 297.516 60.52L297.948 60.592C297.644 61.744 297.092 62.64 296.292 63.28C295.508 63.92 294.324 64.24 292.74 64.24ZM291.204 57.328H293.676V56.152C293.676 54.856 293.596 53.976 293.436 53.512C293.292 53.032 292.988 52.792 292.523 52.792C292.076 52.792 291.74 53.048 291.516 53.56C291.308 54.056 291.204 54.92 291.204 56.152V57.328ZM302.835 59.728V57.664C302.835 56.288 302.571 54.656 302.043 52.768C301.531 50.864 301.275 49.568 301.275 48.88C301.275 48.192 301.459 47.696 301.827 47.392C302.211 47.088 302.675 46.936 303.219 46.936C304.435 46.936 305.043 47.584 305.043 48.88C305.043 49.632 304.763 50.944 304.203 52.816C303.643 54.688 303.363 56.312 303.363 57.688V59.728H302.835ZM303.003 64.24C302.411 64.24 301.963 64.072 301.659 63.736C301.371 63.384 301.227 62.952 301.227 62.44C301.227 61.912 301.387 61.48 301.707 61.144C302.027 60.792 302.467 60.616 303.027 60.616C303.587 60.616 304.035 60.768 304.371 61.072C304.707 61.36 304.875 61.792 304.875 62.368C304.875 62.944 304.715 63.4 304.395 63.736C304.075 64.072 303.611 64.24 303.003 64.24Z" fill="#A49CA7"/>
<path d="M30.6 112.326C29.1533 112.326 28.43 113.721 28.43 116.512V117.618C28.43 118.943 28.6213 119.984 29.004 120.74C29.3867 121.487 29.9513 121.86 30.698 121.86C31.7247 121.86 32.6673 120.861 33.526 118.864H33.778L33.68 121.986H33.526C33.47 121.883 33.4187 121.813 33.372 121.776C33.3253 121.729 33.2553 121.706 33.162 121.706C33.078 121.706 32.742 121.781 32.154 121.93C31.566 122.07 30.9687 122.14 30.362 122.14C28.8407 122.14 27.66 121.729 26.82 120.908C25.9893 120.087 25.574 118.855 25.574 117.212C25.574 115.56 26.008 114.286 26.876 113.39C27.7533 112.494 28.9293 112.046 30.404 112.046C30.9733 112.046 31.5287 112.121 32.07 112.27C32.6207 112.41 32.9427 112.48 33.036 112.48C33.1293 112.48 33.1993 112.461 33.246 112.424C33.2927 112.377 33.344 112.303 33.4 112.2H33.554L33.666 115.238H33.414C32.994 114.295 32.56 113.577 32.112 113.082C31.6733 112.578 31.1693 112.326 30.6 112.326ZM36.5 117.506C36.0987 117.506 35.7953 117.389 35.59 117.156C35.394 116.913 35.296 116.624 35.296 116.288C35.296 115.943 35.3987 115.653 35.604 115.42C35.8187 115.187 36.1173 115.07 36.5 115.07C36.8827 115.07 37.186 115.168 37.41 115.364C37.634 115.56 37.746 115.854 37.746 116.246C37.746 116.638 37.6387 116.946 37.424 117.17C37.2187 117.394 36.9107 117.506 36.5 117.506ZM36.5 122.14C36.0987 122.14 35.7953 122.023 35.59 121.79C35.394 121.547 35.296 121.258 35.296 120.922C35.296 120.577 35.3987 120.287 35.604 120.054C35.8187 119.821 36.1173 119.704 36.5 119.704C36.8827 119.704 37.186 119.802 37.41 119.998C37.634 120.194 37.746 120.488 37.746 120.88C37.746 121.272 37.6387 121.58 37.424 121.804C37.2187 122.028 36.9107 122.14 36.5 122.14ZM39.0571 110.87L43.1871 123.358H42.5991L38.4831 110.87H39.0571ZM47.0733 119.018C47.0733 119.877 47.218 120.535 47.5073 120.992C47.806 121.449 48.338 121.678 49.1033 121.678C49.8686 121.678 50.4566 121.44 50.8673 120.964C51.278 120.488 51.4833 119.765 51.4833 118.794V112.466H50.5733V112.2H52.6173V112.466H51.8473V118.696C51.8473 119.853 51.5906 120.717 51.0773 121.286C50.564 121.855 49.654 122.14 48.3473 122.14C47.05 122.14 46.056 121.869 45.3653 121.328C44.684 120.787 44.3433 119.858 44.3433 118.542V112.466H43.5733V112.2H47.9833V112.466H47.0733V119.018ZM53.1612 122.14V119.634H53.3292C53.5719 120.446 53.8986 121.015 54.3092 121.342C54.7199 121.669 55.2332 121.832 55.8492 121.832C56.8012 121.832 57.2772 121.529 57.2772 120.922C57.2772 120.661 57.1606 120.465 56.9272 120.334C56.5632 120.129 56.0966 119.97 55.5272 119.858C54.8926 119.69 54.3606 119.466 53.9312 119.186C53.4179 118.85 53.1612 118.318 53.1612 117.59C53.1612 116.862 53.3852 116.283 53.8332 115.854C54.2812 115.415 54.8786 115.196 55.6252 115.196C56.0826 115.196 56.5539 115.303 57.0392 115.518C57.2166 115.593 57.3519 115.63 57.4452 115.63C57.5386 115.63 57.6179 115.597 57.6832 115.532C57.7486 115.467 57.8279 115.345 57.9212 115.168H58.0752V117.31H57.9072C57.4312 116.097 56.6939 115.49 55.6952 115.49C55.2566 115.49 54.9299 115.569 54.7152 115.728C54.5006 115.877 54.3932 116.069 54.3932 116.302C54.3932 116.442 54.4259 116.554 54.4912 116.638C54.5566 116.713 54.6079 116.769 54.6452 116.806C54.6826 116.843 54.7432 116.885 54.8272 116.932C54.9112 116.969 54.9812 117.002 55.0372 117.03C55.0932 117.049 55.1772 117.077 55.2892 117.114C55.4106 117.151 55.4992 117.175 55.5552 117.184C56.1899 117.343 56.6472 117.483 56.9272 117.604C57.2072 117.716 57.4732 117.856 57.7252 118.024C58.2386 118.379 58.4952 118.953 58.4952 119.746C58.4952 120.53 58.2619 121.127 57.7952 121.538C57.3286 121.939 56.6892 122.14 55.8772 122.14C55.2986 122.14 54.7386 122.005 54.1972 121.734C54.0852 121.659 53.9966 121.622 53.9312 121.622C53.7259 121.622 53.5252 121.795 53.3292 122.14H53.1612ZM62.5915 122.14C61.3875 122.14 60.4822 121.832 59.8755 121.216C59.2782 120.591 58.9795 119.727 58.9795 118.626C58.9795 117.515 59.3155 116.666 59.9875 116.078C60.6689 115.49 61.5322 115.196 62.5775 115.196C64.6962 115.196 65.7135 116.26 65.6295 118.388H61.6815V118.934C61.6815 119.849 61.7982 120.539 62.0315 121.006C62.2649 121.473 62.6709 121.706 63.2495 121.706C64.3322 121.706 65.0415 121.127 65.3775 119.97L65.6295 120.012C65.4522 120.684 65.1302 121.207 64.6635 121.58C64.2062 121.953 63.5155 122.14 62.5915 122.14ZM61.6955 118.108H63.1375V117.422C63.1375 116.666 63.0909 116.153 62.9975 115.882C62.9135 115.602 62.7362 115.462 62.4655 115.462C62.2042 115.462 62.0082 115.611 61.8775 115.91C61.7562 116.199 61.6955 116.703 61.6955 117.422V118.108ZM70.8043 115.728C70.4589 115.728 70.1556 115.952 69.8943 116.4C69.6329 116.848 69.5023 117.38 69.5023 117.996V121.748H70.4963V122H66.1283V121.748H66.8983V115.588H66.1283V115.336H69.5023V116.68C69.6236 116.204 69.8569 115.84 70.2023 115.588C70.5476 115.327 70.9396 115.196 71.3783 115.196C71.8169 115.196 72.1716 115.322 72.4423 115.574C72.7223 115.817 72.8623 116.167 72.8623 116.624C72.8623 117.072 72.7596 117.417 72.5543 117.66C72.3489 117.903 72.0316 118.024 71.6023 118.024C71.1823 118.024 70.8696 117.884 70.6643 117.604C70.4683 117.324 70.4449 116.937 70.5943 116.442H71.0983C71.3316 115.966 71.2336 115.728 70.8043 115.728ZM73.2179 122.14V119.634H73.3859C73.6285 120.446 73.9552 121.015 74.3659 121.342C74.7765 121.669 75.2899 121.832 75.9059 121.832C76.8579 121.832 77.3339 121.529 77.3339 120.922C77.3339 120.661 77.2172 120.465 76.9839 120.334C76.6199 120.129 76.1532 119.97 75.5839 119.858C74.9492 119.69 74.4172 119.466 73.9879 119.186C73.4745 118.85 73.2179 118.318 73.2179 117.59C73.2179 116.862 73.4419 116.283 73.8899 115.854C74.3379 115.415 74.9352 115.196 75.6819 115.196C76.1392 115.196 76.6105 115.303 77.0959 115.518C77.2732 115.593 77.4085 115.63 77.5019 115.63C77.5952 115.63 77.6745 115.597 77.7399 115.532C77.8052 115.467 77.8845 115.345 77.9779 115.168H78.1319V117.31H77.9639C77.4879 116.097 76.7505 115.49 75.7519 115.49C75.3132 115.49 74.9865 115.569 74.7719 115.728C74.5572 115.877 74.4499 116.069 74.4499 116.302C74.4499 116.442 74.4825 116.554 74.5479 116.638C74.6132 116.713 74.6645 116.769 74.7019 116.806C74.7392 116.843 74.7999 116.885 74.8839 116.932C74.9679 116.969 75.0379 117.002 75.0939 117.03C75.1499 117.049 75.2339 117.077 75.3459 117.114C75.4672 117.151 75.5559 117.175 75.6119 117.184C76.2465 117.343 76.7039 117.483 76.9839 117.604C77.2639 117.716 77.5299 117.856 77.7819 118.024C78.2952 118.379 78.5519 118.953 78.5519 119.746C78.5519 120.53 78.3185 121.127 77.8519 121.538C77.3852 121.939 76.7459 122.14 75.9339 122.14C75.3552 122.14 74.7952 122.005 74.2539 121.734C74.1419 121.659 74.0532 121.622 73.9879 121.622C73.7825 121.622 73.5819 121.795 73.3859 122.14H73.2179ZM79.5122 110.87L83.6422 123.358H83.0542L78.9382 110.87H79.5122ZM84.0844 112.2H88.3544V112.466H87.5844V121.734H88.3544V122H84.0844V121.734H84.8544V112.466H84.0844V112.2ZM88.2871 115.588V115.336H92.4731V115.588H91.5911L93.2711 120.236L94.7831 115.588H93.8451V115.336H95.7351V115.588H95.1191L93.0471 122H91.4511L88.8611 115.588H88.2871ZM98.8145 118.71H99.2205V117.632C99.2205 116.745 99.1691 116.153 99.0665 115.854C98.9731 115.546 98.7865 115.392 98.5065 115.392C98.3385 115.392 98.1845 115.439 98.0445 115.532C97.9138 115.616 97.8485 115.737 97.8485 115.896C97.8485 116.045 97.8765 116.199 97.9325 116.358H98.2825C98.3571 116.554 98.3945 116.792 98.3945 117.072C98.3945 117.343 98.2778 117.581 98.0445 117.786C97.8111 117.982 97.5171 118.08 97.1625 118.08C96.3598 118.08 95.9585 117.693 95.9585 116.918C95.9585 115.77 96.9338 115.196 98.8845 115.196C99.9951 115.196 100.76 115.387 101.18 115.77C101.61 116.143 101.824 116.834 101.824 117.842V120.684C101.824 121.169 101.96 121.412 102.23 121.412C102.548 121.412 102.734 120.931 102.79 119.97L103 119.984C102.963 120.805 102.809 121.37 102.538 121.678C102.268 121.986 101.824 122.14 101.208 122.14C100.088 122.14 99.4445 121.795 99.2765 121.104C99.1551 121.459 98.9731 121.72 98.7305 121.888C98.4878 122.056 98.1331 122.14 97.6665 122.14C96.2851 122.14 95.5945 121.575 95.5945 120.446C95.5945 119.783 95.8558 119.331 96.3785 119.088C96.9105 118.836 97.7225 118.71 98.8145 118.71ZM98.2545 120.432C98.2545 120.917 98.2778 121.23 98.3245 121.37C98.3805 121.51 98.4785 121.58 98.6185 121.58C98.7678 121.58 98.9031 121.463 99.0245 121.23C99.1551 120.987 99.2205 120.656 99.2205 120.236V118.934H99.1225C98.5438 118.934 98.2545 119.359 98.2545 120.208V120.432ZM103.166 115.336H106.54V116.624C106.689 116.195 106.918 115.849 107.226 115.588C107.534 115.327 108.001 115.196 108.626 115.196C110.073 115.196 110.796 115.975 110.796 117.534V121.748H111.58V122H107.618V121.748H108.192V117.198C108.192 116.638 108.155 116.279 108.08 116.12C108.005 115.952 107.87 115.868 107.674 115.868C107.375 115.868 107.109 116.064 106.876 116.456C106.652 116.848 106.54 117.324 106.54 117.884V121.748H107.142V122H103.166V121.748H103.936V115.588H103.166V115.336ZM111.793 115.336H115.167V116.624C115.316 116.195 115.545 115.849 115.853 115.588C116.161 115.327 116.628 115.196 117.253 115.196C118.7 115.196 119.423 115.975 119.423 117.534V121.748H120.207V122H116.245V121.748H116.819V117.198C116.819 116.638 116.782 116.279 116.707 116.12C116.632 115.952 116.497 115.868 116.301 115.868C116.002 115.868 115.736 116.064 115.503 116.456C115.279 116.848 115.167 117.324 115.167 117.884V121.748H115.769V122H111.793V121.748H112.563V115.588H111.793V115.336ZM123.752 118.71H124.158V117.632C124.158 116.745 124.107 116.153 124.004 115.854C123.911 115.546 123.724 115.392 123.444 115.392C123.276 115.392 123.122 115.439 122.982 115.532C122.851 115.616 122.786 115.737 122.786 115.896C122.786 116.045 122.814 116.199 122.87 116.358H123.22C123.295 116.554 123.332 116.792 123.332 117.072C123.332 117.343 123.215 117.581 122.982 117.786C122.749 117.982 122.455 118.08 122.1 118.08C121.297 118.08 120.896 117.693 120.896 116.918C120.896 115.77 121.871 115.196 123.822 115.196C124.933 115.196 125.698 115.387 126.118 115.77C126.547 116.143 126.762 116.834 126.762 117.842V120.684C126.762 121.169 126.897 121.412 127.168 121.412C127.485 121.412 127.672 120.931 127.728 119.97L127.938 119.984C127.901 120.805 127.747 121.37 127.476 121.678C127.205 121.986 126.762 122.14 126.146 122.14C125.026 122.14 124.382 121.795 124.214 121.104C124.093 121.459 123.911 121.72 123.668 121.888C123.425 122.056 123.071 122.14 122.604 122.14C121.223 122.14 120.532 121.575 120.532 120.446C120.532 119.783 120.793 119.331 121.316 119.088C121.848 118.836 122.66 118.71 123.752 118.71ZM123.192 120.432C123.192 120.917 123.215 121.23 123.262 121.37C123.318 121.51 123.416 121.58 123.556 121.58C123.705 121.58 123.841 121.463 123.962 121.23C124.093 120.987 124.158 120.656 124.158 120.236V118.934H124.06C123.481 118.934 123.192 119.359 123.192 120.208V120.432ZM127.637 110.87L131.767 123.358H131.179L127.063 110.87H127.637ZM141.855 116.932C141.855 118.855 141.314 120.194 140.231 120.95C139.233 121.65 137.861 122 136.115 122H132.153V121.734H133.077V112.466H132.153V112.2H136.479C138.271 112.2 139.615 112.569 140.511 113.306C141.407 114.034 141.855 115.243 141.855 116.932ZM135.807 121.734H136.339C137.282 121.734 137.954 121.403 138.355 120.74C138.766 120.068 138.971 118.948 138.971 117.38V116.568C138.971 114.468 138.57 113.203 137.767 112.774C137.385 112.569 136.843 112.466 136.143 112.466H135.807V121.734ZM146.25 122.14C145.046 122.14 144.14 121.832 143.534 121.216C142.936 120.591 142.638 119.727 142.638 118.626C142.638 117.515 142.974 116.666 143.646 116.078C144.327 115.49 145.19 115.196 146.236 115.196C148.354 115.196 149.372 116.26 149.288 118.388H145.34V118.934C145.34 119.849 145.456 120.539 145.69 121.006C145.923 121.473 146.329 121.706 146.908 121.706C147.99 121.706 148.7 121.127 149.036 119.97L149.288 120.012C149.11 120.684 148.788 121.207 148.322 121.58C147.864 121.953 147.174 122.14 146.25 122.14ZM145.354 118.108H146.796V117.422C146.796 116.666 146.749 116.153 146.656 115.882C146.572 115.602 146.394 115.462 146.124 115.462C145.862 115.462 145.666 115.611 145.536 115.91C145.414 116.199 145.354 116.703 145.354 117.422V118.108ZM149.972 122.14V119.634H150.14C150.382 120.446 150.709 121.015 151.12 121.342C151.53 121.669 152.044 121.832 152.66 121.832C153.612 121.832 154.088 121.529 154.088 120.922C154.088 120.661 153.971 120.465 153.738 120.334C153.374 120.129 152.907 119.97 152.338 119.858C151.703 119.69 151.171 119.466 150.742 119.186C150.228 118.85 149.972 118.318 149.972 117.59C149.972 116.862 150.196 116.283 150.644 115.854C151.092 115.415 151.689 115.196 152.436 115.196C152.893 115.196 153.364 115.303 153.85 115.518C154.027 115.593 154.162 115.63 154.256 115.63C154.349 115.63 154.428 115.597 154.494 115.532C154.559 115.467 154.638 115.345 154.732 115.168H154.886V117.31H154.718C154.242 116.097 153.504 115.49 152.506 115.49C152.067 115.49 151.74 115.569 151.526 115.728C151.311 115.877 151.204 116.069 151.204 116.302C151.204 116.442 151.236 116.554 151.302 116.638C151.367 116.713 151.418 116.769 151.456 116.806C151.493 116.843 151.554 116.885 151.638 116.932C151.722 116.969 151.792 117.002 151.848 117.03C151.904 117.049 151.988 117.077 152.1 117.114C152.221 117.151 152.31 117.175 152.366 117.184C153 117.343 153.458 117.483 153.738 117.604C154.018 117.716 154.284 117.856 154.536 118.024C155.049 118.379 155.306 118.953 155.306 119.746C155.306 120.53 155.072 121.127 154.606 121.538C154.139 121.939 153.5 122.14 152.688 122.14C152.109 122.14 151.549 122.005 151.008 121.734C150.896 121.659 150.807 121.622 150.742 121.622C150.536 121.622 150.336 121.795 150.14 122.14H149.972ZM160.298 122V121.748H160.942L159.36 118.5L159.094 118.57V121.748H159.738V122H155.72V121.748H156.49V111.752H155.664V111.5H159.094V118.29L159.318 118.206L162.468 115.588H161.152V115.336H163.91V115.588H162.93L161.264 117.002L163.686 121.748H164.19V122H160.298ZM165.102 119.998V115.588H164.332V115.336H165.102V113.53L167.706 112.886V115.336H169.526V115.588H167.706V120.306C167.706 120.745 167.748 121.067 167.832 121.272C167.925 121.477 168.112 121.58 168.392 121.58C168.672 121.58 168.914 121.44 169.12 121.16C169.334 120.88 169.474 120.497 169.54 120.012L169.778 120.04C169.703 120.684 169.498 121.197 169.162 121.58C168.826 121.953 168.27 122.14 167.496 122.14C166.721 122.14 166.128 121.986 165.718 121.678C165.307 121.37 165.102 120.81 165.102 119.998ZM174.433 119.242V118.052C174.433 117.147 174.382 116.489 174.279 116.078C174.186 115.658 173.962 115.448 173.607 115.448C173.402 115.448 173.234 115.509 173.103 115.63C172.982 115.742 172.893 115.933 172.837 116.204C172.753 116.624 172.711 117.263 172.711 118.122V119.214C172.711 120.231 172.739 120.843 172.795 121.048C172.861 121.253 172.926 121.421 172.991 121.552C173.094 121.776 173.295 121.888 173.593 121.888C173.957 121.888 174.195 121.678 174.307 121.258C174.391 120.959 174.433 120.287 174.433 119.242ZM173.565 122.14C172.399 122.14 171.517 121.841 170.919 121.244C170.322 120.647 170.023 119.793 170.023 118.682C170.023 117.562 170.341 116.703 170.975 116.106C171.619 115.499 172.52 115.196 173.677 115.196C174.835 115.196 175.698 115.476 176.267 116.036C176.837 116.587 177.121 117.431 177.121 118.57C177.121 120.95 175.936 122.14 173.565 122.14ZM182.623 118.234C182.623 117.273 182.576 116.629 182.483 116.302C182.39 115.966 182.208 115.798 181.937 115.798C181.666 115.798 181.424 115.975 181.209 116.33C180.994 116.675 180.887 117.142 180.887 117.73V120.292C180.887 120.693 180.966 121.034 181.125 121.314C181.284 121.594 181.517 121.734 181.825 121.734C182.133 121.734 182.343 121.529 182.455 121.118C182.567 120.707 182.623 119.989 182.623 118.962V118.234ZM180.859 115.336V116.442C181.223 115.611 181.867 115.196 182.791 115.196C183.594 115.196 184.214 115.485 184.653 116.064C185.101 116.643 185.325 117.52 185.325 118.696C185.325 119.872 185.082 120.74 184.597 121.3C184.121 121.86 183.402 122.14 182.441 122.14C181.993 122.14 181.657 122.084 181.433 121.972C181.209 121.86 181.027 121.687 180.887 121.454V125.08H182.693V125.332H177.513V125.08H178.283V115.588H177.541V115.336H180.859ZM185.729 110.87L189.859 123.358H189.271L185.155 110.87H185.729ZM190.161 112.2H194.277C195.687 112.2 196.737 112.405 197.427 112.816C198.118 113.217 198.463 113.941 198.463 114.986C198.463 116.143 198.043 116.941 197.203 117.38C196.419 117.781 195.323 117.982 193.913 117.982H193.801V121.734H195.551V122H190.161V121.734H191.071V112.466H190.161V112.2ZM193.801 112.466V117.716H194.095C194.655 117.716 195.043 117.525 195.257 117.142C195.472 116.759 195.579 116.139 195.579 115.28V114.608C195.579 113.815 195.477 113.259 195.271 112.942C195.075 112.625 194.711 112.466 194.179 112.466H193.801ZM203.64 115.728C203.295 115.728 202.992 115.952 202.73 116.4C202.469 116.848 202.338 117.38 202.338 117.996V121.748H203.332V122H198.964V121.748H199.734V115.588H198.964V115.336H202.338V116.68C202.46 116.204 202.693 115.84 203.038 115.588C203.384 115.327 203.776 115.196 204.214 115.196C204.653 115.196 205.008 115.322 205.278 115.574C205.558 115.817 205.698 116.167 205.698 116.624C205.698 117.072 205.596 117.417 205.39 117.66C205.185 117.903 204.868 118.024 204.438 118.024C204.018 118.024 203.706 117.884 203.5 117.604C203.304 117.324 203.281 116.937 203.43 116.442H203.934C204.168 115.966 204.07 115.728 203.64 115.728ZM210.35 119.242V118.052C210.35 117.147 210.298 116.489 210.196 116.078C210.102 115.658 209.878 115.448 209.524 115.448C209.318 115.448 209.15 115.509 209.02 115.63C208.898 115.742 208.81 115.933 208.754 116.204C208.67 116.624 208.628 117.263 208.628 118.122V119.214C208.628 120.231 208.656 120.843 208.712 121.048C208.777 121.253 208.842 121.421 208.908 121.552C209.01 121.776 209.211 121.888 209.51 121.888C209.874 121.888 210.112 121.678 210.224 121.258C210.308 120.959 210.35 120.287 210.35 119.242ZM209.482 122.14C208.315 122.14 207.433 121.841 206.836 121.244C206.238 120.647 205.94 119.793 205.94 118.682C205.94 117.562 206.257 116.703 206.892 116.106C207.536 115.499 208.436 115.196 209.594 115.196C210.751 115.196 211.614 115.476 212.184 116.036C212.753 116.587 213.038 117.431 213.038 118.57C213.038 120.95 211.852 122.14 209.482 122.14ZM216.803 115.336V120.796C216.803 122.327 216.537 123.493 216.005 124.296C215.482 125.099 214.624 125.5 213.429 125.5C212.654 125.5 212.09 125.346 211.735 125.038C211.371 124.73 211.189 124.371 211.189 123.96C211.189 123.549 211.31 123.232 211.553 123.008C211.796 122.793 212.099 122.686 212.463 122.686C212.827 122.686 213.102 122.784 213.289 122.98C213.466 123.185 213.555 123.409 213.555 123.652C213.555 123.895 213.527 124.128 213.471 124.352H212.939C212.79 124.604 212.771 124.819 212.883 124.996C212.986 125.173 213.177 125.262 213.457 125.262C213.746 125.262 213.942 125.099 214.045 124.772C214.148 124.455 214.199 123.792 214.199 122.784V115.588H213.289V115.336H216.803ZM215.473 114.37C214.978 114.37 214.624 114.244 214.409 113.992C214.204 113.74 214.101 113.427 214.101 113.054C214.101 112.681 214.213 112.373 214.437 112.13C214.67 111.887 215.02 111.766 215.487 111.766C215.954 111.766 216.308 111.878 216.551 112.102C216.794 112.317 216.915 112.629 216.915 113.04C216.915 113.441 216.798 113.763 216.565 114.006C216.332 114.249 215.968 114.37 215.473 114.37ZM221.459 122.14C220.255 122.14 219.349 121.832 218.743 121.216C218.145 120.591 217.847 119.727 217.847 118.626C217.847 117.515 218.183 116.666 218.855 116.078C219.536 115.49 220.399 115.196 221.445 115.196C223.563 115.196 224.581 116.26 224.497 118.388H220.549V118.934C220.549 119.849 220.665 120.539 220.899 121.006C221.132 121.473 221.538 121.706 222.117 121.706C223.199 121.706 223.909 121.127 224.245 119.97L224.497 120.012C224.319 120.684 223.997 121.207 223.531 121.58C223.073 121.953 222.383 122.14 221.459 122.14ZM220.563 118.108H222.005V117.422C222.005 116.666 221.958 116.153 221.865 115.882C221.781 115.602 221.603 115.462 221.333 115.462C221.071 115.462 220.875 115.611 220.745 115.91C220.623 116.199 220.563 116.703 220.563 117.422V118.108ZM228.915 115.448C228.505 115.448 228.211 115.672 228.033 116.12C227.856 116.568 227.767 117.31 227.767 118.346V119.074C227.767 119.998 227.87 120.661 228.075 121.062C228.281 121.463 228.659 121.664 229.209 121.664C229.76 121.664 230.199 121.477 230.525 121.104C230.852 120.731 231.062 120.306 231.155 119.83L231.407 119.858C231.23 120.661 230.903 121.239 230.427 121.594C229.942 121.958 229.275 122.14 228.425 122.14C227.343 122.14 226.512 121.851 225.933 121.272C225.355 120.684 225.065 119.83 225.065 118.71C225.065 117.581 225.392 116.713 226.045 116.106C226.708 115.499 227.627 115.196 228.803 115.196C229.634 115.196 230.269 115.359 230.707 115.686C231.146 116.003 231.365 116.405 231.365 116.89C231.365 117.375 231.258 117.73 231.043 117.954C230.838 118.178 230.549 118.29 230.175 118.29C229.811 118.29 229.517 118.192 229.293 117.996C229.069 117.8 228.957 117.511 228.957 117.128C228.957 116.96 228.981 116.792 229.027 116.624H229.489C229.555 116.437 229.587 116.269 229.587 116.12C229.587 115.672 229.363 115.448 228.915 115.448ZM232.463 119.998V115.588H231.693V115.336H232.463V113.53L235.067 112.886V115.336H236.887V115.588H235.067V120.306C235.067 120.745 235.109 121.067 235.193 121.272C235.286 121.477 235.473 121.58 235.753 121.58C236.033 121.58 236.276 121.44 236.481 121.16C236.696 120.88 236.836 120.497 236.901 120.012L237.139 120.04C237.064 120.684 236.859 121.197 236.523 121.58C236.187 121.953 235.632 122.14 234.857 122.14C234.082 122.14 233.49 121.986 233.079 121.678C232.668 121.37 232.463 120.81 232.463 119.998ZM237.595 122.14V119.634H237.763C238.005 120.446 238.332 121.015 238.743 121.342C239.153 121.669 239.667 121.832 240.283 121.832C241.235 121.832 241.711 121.529 241.711 120.922C241.711 120.661 241.594 120.465 241.361 120.334C240.997 120.129 240.53 119.97 239.961 119.858C239.326 119.69 238.794 119.466 238.365 119.186C237.851 118.85 237.595 118.318 237.595 117.59C237.595 116.862 237.819 116.283 238.267 115.854C238.715 115.415 239.312 115.196 240.059 115.196C240.516 115.196 240.987 115.303 241.473 115.518C241.65 115.593 241.785 115.63 241.879 115.63C241.972 115.63 242.051 115.597 242.117 115.532C242.182 115.467 242.261 115.345 242.355 115.168H242.509V117.31H242.341C241.865 116.097 241.127 115.49 240.129 115.49C239.69 115.49 239.363 115.569 239.149 115.728C238.934 115.877 238.827 116.069 238.827 116.302C238.827 116.442 238.859 116.554 238.925 116.638C238.99 116.713 239.041 116.769 239.079 116.806C239.116 116.843 239.177 116.885 239.261 116.932C239.345 116.969 239.415 117.002 239.471 117.03C239.527 117.049 239.611 117.077 239.723 117.114C239.844 117.151 239.933 117.175 239.989 117.184C240.623 117.343 241.081 117.483 241.361 117.604C241.641 117.716 241.907 117.856 242.159 118.024C242.672 118.379 242.929 118.953 242.929 119.746C242.929 120.53 242.695 121.127 242.229 121.538C241.762 121.939 241.123 122.14 240.311 122.14C239.732 122.14 239.172 122.005 238.631 121.734C238.519 121.659 238.43 121.622 238.365 121.622C238.159 121.622 237.959 121.795 237.763 122.14H237.595ZM243.889 110.87L248.019 123.358H247.431L243.315 110.87H243.889ZM248.461 112.2H252.731V112.466H251.961V121.734H252.731V122H248.461V121.734H249.231V112.466H248.461V112.2ZM252.664 115.588V115.336H256.85V115.588H255.968L257.648 120.236L259.16 115.588H258.222V115.336H260.112V115.588H259.496L257.424 122H255.828L253.238 115.588H252.664ZM263.191 118.71H263.597V117.632C263.597 116.745 263.546 116.153 263.443 115.854C263.35 115.546 263.163 115.392 262.883 115.392C262.715 115.392 262.561 115.439 262.421 115.532C262.291 115.616 262.225 115.737 262.225 115.896C262.225 116.045 262.253 116.199 262.309 116.358H262.659C262.734 116.554 262.771 116.792 262.771 117.072C262.771 117.343 262.655 117.581 262.421 117.786C262.188 117.982 261.894 118.08 261.539 118.08C260.737 118.08 260.335 117.693 260.335 116.918C260.335 115.77 261.311 115.196 263.261 115.196C264.372 115.196 265.137 115.387 265.557 115.77C265.987 116.143 266.201 116.834 266.201 117.842V120.684C266.201 121.169 266.337 121.412 266.607 121.412C266.925 121.412 267.111 120.931 267.167 119.97L267.377 119.984C267.34 120.805 267.186 121.37 266.915 121.678C266.645 121.986 266.201 122.14 265.585 122.14C264.465 122.14 263.821 121.795 263.653 121.104C263.532 121.459 263.35 121.72 263.107 121.888C262.865 122.056 262.51 122.14 262.043 122.14C260.662 122.14 259.971 121.575 259.971 120.446C259.971 119.783 260.233 119.331 260.755 119.088C261.287 118.836 262.099 118.71 263.191 118.71ZM262.631 120.432C262.631 120.917 262.655 121.23 262.701 121.37C262.757 121.51 262.855 121.58 262.995 121.58C263.145 121.58 263.28 121.463 263.401 121.23C263.532 120.987 263.597 120.656 263.597 120.236V118.934H263.499C262.921 118.934 262.631 119.359 262.631 120.208V120.432ZM267.543 115.336H270.917V116.624C271.066 116.195 271.295 115.849 271.603 115.588C271.911 115.327 272.378 115.196 273.003 115.196C274.45 115.196 275.173 115.975 275.173 117.534V121.748H275.957V122H271.995V121.748H272.569V117.198C272.569 116.638 272.532 116.279 272.457 116.12C272.382 115.952 272.247 115.868 272.051 115.868C271.752 115.868 271.486 116.064 271.253 116.456C271.029 116.848 270.917 117.324 270.917 117.884V121.748H271.519V122H267.543V121.748H268.313V115.588H267.543V115.336ZM276.17 115.336H279.544V116.624C279.693 116.195 279.922 115.849 280.23 115.588C280.538 115.327 281.005 115.196 281.63 115.196C283.077 115.196 283.8 115.975 283.8 117.534V121.748H284.584V122H280.622V121.748H281.196V117.198C281.196 116.638 281.159 116.279 281.084 116.12C281.009 115.952 280.874 115.868 280.678 115.868C280.379 115.868 280.113 116.064 279.88 116.456C279.656 116.848 279.544 117.324 279.544 117.884V121.748H280.146V122H276.17V121.748H276.94V115.588H276.17V115.336ZM288.129 118.71H288.535V117.632C288.535 116.745 288.484 116.153 288.381 115.854C288.288 115.546 288.101 115.392 287.821 115.392C287.653 115.392 287.499 115.439 287.359 115.532C287.228 115.616 287.163 115.737 287.163 115.896C287.163 116.045 287.191 116.199 287.247 116.358H287.597C287.672 116.554 287.709 116.792 287.709 117.072C287.709 117.343 287.592 117.581 287.359 117.786C287.126 117.982 286.832 118.08 286.477 118.08C285.674 118.08 285.273 117.693 285.273 116.918C285.273 115.77 286.248 115.196 288.199 115.196C289.31 115.196 290.075 115.387 290.495 115.77C290.924 116.143 291.139 116.834 291.139 117.842V120.684C291.139 121.169 291.274 121.412 291.545 121.412C291.862 121.412 292.049 120.931 292.105 119.97L292.315 119.984C292.278 120.805 292.124 121.37 291.853 121.678C291.582 121.986 291.139 122.14 290.523 122.14C289.403 122.14 288.759 121.795 288.591 121.104C288.47 121.459 288.288 121.72 288.045 121.888C287.802 122.056 287.448 122.14 286.981 122.14C285.6 122.14 284.909 121.575 284.909 120.446C284.909 119.783 285.17 119.331 285.693 119.088C286.225 118.836 287.037 118.71 288.129 118.71ZM287.569 120.432C287.569 120.917 287.592 121.23 287.639 121.37C287.695 121.51 287.793 121.58 287.933 121.58C288.082 121.58 288.218 121.463 288.339 121.23C288.47 120.987 288.535 120.656 288.535 120.236V118.934H288.437C287.858 118.934 287.569 119.359 287.569 120.208V120.432ZM293.013 118.108V117.688H296.541V118.108H293.013ZM297.444 112.2H301.56C302.97 112.2 304.02 112.405 304.71 112.816C305.401 113.217 305.746 113.941 305.746 114.986C305.746 116.143 305.326 116.941 304.486 117.38C303.702 117.781 302.606 117.982 301.196 117.982H301.084V121.734H302.834V122H297.444V121.734H298.354V112.466H297.444V112.2ZM301.084 112.466V117.716H301.378C301.938 117.716 302.326 117.525 302.54 117.142C302.755 116.759 302.862 116.139 302.862 115.28V114.608C302.862 113.815 302.76 113.259 302.554 112.942C302.358 112.625 301.994 112.466 301.462 112.466H301.084ZM309.506 122.14C308.302 122.14 307.396 121.832 306.79 121.216C306.192 120.591 305.894 119.727 305.894 118.626C305.894 117.515 306.23 116.666 306.902 116.078C307.583 115.49 308.446 115.196 309.492 115.196C311.61 115.196 312.628 116.26 312.544 118.388H308.596V118.934C308.596 119.849 308.712 120.539 308.946 121.006C309.179 121.473 309.585 121.706 310.164 121.706C311.246 121.706 311.956 121.127 312.292 119.97L312.544 120.012C312.366 120.684 312.044 121.207 311.578 121.58C311.12 121.953 310.43 122.14 309.506 122.14ZM308.61 118.108H310.052V117.422C310.052 116.666 310.005 116.153 309.912 115.882C309.828 115.602 309.65 115.462 309.38 115.462C309.118 115.462 308.922 115.611 308.792 115.91C308.67 116.199 308.61 116.703 308.61 117.422V118.108ZM317.718 115.728C317.373 115.728 317.07 115.952 316.808 116.4C316.547 116.848 316.416 117.38 316.416 117.996V121.748H317.41V122H313.042V121.748H313.812V115.588H313.042V115.336H316.416V116.68C316.538 116.204 316.771 115.84 317.116 115.588C317.462 115.327 317.854 115.196 318.292 115.196C318.731 115.196 319.086 115.322 319.356 115.574C319.636 115.817 319.776 116.167 319.776 116.624C319.776 117.072 319.674 117.417 319.468 117.66C319.263 117.903 318.946 118.024 318.516 118.024C318.096 118.024 317.784 117.884 317.578 117.604C317.382 117.324 317.359 116.937 317.508 116.442H318.012C318.246 115.966 318.148 115.728 317.718 115.728ZM320.132 122.14V119.634H320.3C320.543 120.446 320.869 121.015 321.28 121.342C321.691 121.669 322.204 121.832 322.82 121.832C323.772 121.832 324.248 121.529 324.248 120.922C324.248 120.661 324.131 120.465 323.898 120.334C323.534 120.129 323.067 119.97 322.498 119.858C321.863 119.69 321.331 119.466 320.902 119.186C320.389 118.85 320.132 118.318 320.132 117.59C320.132 116.862 320.356 116.283 320.804 115.854C321.252 115.415 321.849 115.196 322.596 115.196C323.053 115.196 323.525 115.303 324.01 115.518C324.187 115.593 324.323 115.63 324.416 115.63C324.509 115.63 324.589 115.597 324.654 115.532C324.719 115.467 324.799 115.345 324.892 115.168H325.046V117.31H324.878C324.402 116.097 323.665 115.49 322.666 115.49C322.227 115.49 321.901 115.569 321.686 115.728C321.471 115.877 321.364 116.069 321.364 116.302C321.364 116.442 321.397 116.554 321.462 116.638C321.527 116.713 321.579 116.769 321.616 116.806C321.653 116.843 321.714 116.885 321.798 116.932C321.882 116.969 321.952 117.002 322.008 117.03C322.064 117.049 322.148 117.077 322.26 117.114C322.381 117.151 322.47 117.175 322.526 117.184C323.161 117.343 323.618 117.483 323.898 117.604C324.178 117.716 324.444 117.856 324.696 118.024C325.209 118.379 325.466 118.953 325.466 119.746C325.466 120.53 325.233 121.127 324.766 121.538C324.299 121.939 323.66 122.14 322.848 122.14C322.269 122.14 321.709 122.005 321.168 121.734C321.056 121.659 320.967 121.622 320.902 121.622C320.697 121.622 320.496 121.795 320.3 122.14H320.132ZM330.402 119.242V118.052C330.402 117.147 330.351 116.489 330.248 116.078C330.155 115.658 329.931 115.448 329.576 115.448C329.371 115.448 329.203 115.509 329.072 115.63C328.951 115.742 328.862 115.933 328.806 116.204C328.722 116.624 328.68 117.263 328.68 118.122V119.214C328.68 120.231 328.708 120.843 328.764 121.048C328.83 121.253 328.895 121.421 328.96 121.552C329.063 121.776 329.264 121.888 329.562 121.888C329.926 121.888 330.164 121.678 330.276 121.258C330.36 120.959 330.402 120.287 330.402 119.242ZM329.534 122.14C328.368 122.14 327.486 121.841 326.888 121.244C326.291 120.647 325.992 119.793 325.992 118.682C325.992 117.562 326.31 116.703 326.944 116.106C327.588 115.499 328.489 115.196 329.646 115.196C330.804 115.196 331.667 115.476 332.236 116.036C332.806 116.587 333.09 117.431 333.09 118.57C333.09 120.95 331.905 122.14 329.534 122.14ZM333.51 115.336H336.884V116.624C337.033 116.195 337.262 115.849 337.57 115.588C337.878 115.327 338.344 115.196 338.97 115.196C340.416 115.196 341.14 115.975 341.14 117.534V121.748H341.924V122H337.962V121.748H338.536V117.198C338.536 116.638 338.498 116.279 338.424 116.12C338.349 115.952 338.214 115.868 338.018 115.868C337.719 115.868 337.453 116.064 337.22 116.456C336.996 116.848 336.884 117.324 336.884 117.884V121.748H337.486V122H333.51V121.748H334.28V115.588H333.51V115.336ZM345.469 118.71H345.875V117.632C345.875 116.745 345.823 116.153 345.721 115.854C345.627 115.546 345.441 115.392 345.161 115.392C344.993 115.392 344.839 115.439 344.699 115.532C344.568 115.616 344.503 115.737 344.503 115.896C344.503 116.045 344.531 116.199 344.587 116.358H344.937C345.011 116.554 345.049 116.792 345.049 117.072C345.049 117.343 344.932 117.581 344.699 117.786C344.465 117.982 344.171 118.08 343.817 118.08C343.014 118.08 342.613 117.693 342.613 116.918C342.613 115.77 343.588 115.196 345.539 115.196C346.649 115.196 347.415 115.387 347.835 115.77C348.264 116.143 348.479 116.834 348.479 117.842V120.684C348.479 121.169 348.614 121.412 348.885 121.412C349.202 121.412 349.389 120.931 349.445 119.97L349.655 119.984C349.617 120.805 349.463 121.37 349.193 121.678C348.922 121.986 348.479 122.14 347.863 122.14C346.743 122.14 346.099 121.795 345.931 121.104C345.809 121.459 345.627 121.72 345.385 121.888C345.142 122.056 344.787 122.14 344.321 122.14C342.939 122.14 342.249 121.575 342.249 120.446C342.249 119.783 342.51 119.331 343.033 119.088C343.565 118.836 344.377 118.71 345.469 118.71ZM344.909 120.432C344.909 120.917 344.932 121.23 344.979 121.37C345.035 121.51 345.133 121.58 345.273 121.58C345.422 121.58 345.557 121.463 345.679 121.23C345.809 120.987 345.875 120.656 345.875 120.236V118.934H345.777C345.198 118.934 344.909 119.359 344.909 120.208V120.432ZM349.736 111.5H353.166V121.748H353.95V122H349.792V121.748H350.562V111.752H349.736V111.5ZM354.782 118.108V117.688H358.31V118.108H354.782ZM364.94 119.172L366.102 115.14L365.262 112.466H364.464V112.2H368.804V112.466H367.978L370.064 119.088L371.744 112.466H370.33V112.2H373.13V112.466H372.206L369.63 122.14H368.384L366.312 115.812L364.492 122.14H363.274L359.746 112.466H359.088V112.2H363.638V112.466H362.658L364.94 119.172ZM375.91 122.14C374.706 122.14 373.801 121.832 373.194 121.216C372.597 120.591 372.298 119.727 372.298 118.626C372.298 117.515 372.634 116.666 373.306 116.078C373.987 115.49 374.851 115.196 375.896 115.196C378.015 115.196 379.032 116.26 378.948 118.388H375V118.934C375 119.849 375.117 120.539 375.35 121.006C375.583 121.473 375.989 121.706 376.568 121.706C377.651 121.706 378.36 121.127 378.696 119.97L378.948 120.012C378.771 120.684 378.449 121.207 377.982 121.58C377.525 121.953 376.834 122.14 375.91 122.14ZM375.014 118.108H376.456V117.422C376.456 116.666 376.409 116.153 376.316 115.882C376.232 115.602 376.055 115.462 375.784 115.462C375.523 115.462 375.327 115.611 375.196 115.91C375.075 116.199 375.014 116.703 375.014 117.422V118.108ZM384.557 118.234C384.557 117.273 384.51 116.629 384.417 116.302C384.323 115.966 384.141 115.798 383.871 115.798C383.6 115.798 383.357 115.966 383.143 116.302C382.928 116.638 382.821 117.1 382.821 117.688V120.292C382.821 120.693 382.9 121.034 383.059 121.314C383.227 121.594 383.46 121.734 383.759 121.734C384.067 121.734 384.277 121.529 384.389 121.118C384.501 120.707 384.557 119.989 384.557 118.962V118.234ZM382.821 111.5V116.4C383.175 115.597 383.782 115.196 384.641 115.196C386.386 115.196 387.259 116.358 387.259 118.682C387.259 119.867 387.016 120.74 386.531 121.3C386.055 121.86 385.336 122.14 384.375 122.14C383.889 122.14 383.516 122.065 383.255 121.916C383.003 121.767 382.83 121.519 382.737 121.174L382.639 122H379.447V121.748H380.217V111.752H379.447V111.5H382.821ZM387.999 122.14V119.634H388.167C388.41 120.446 388.736 121.015 389.147 121.342C389.558 121.669 390.071 121.832 390.687 121.832C391.639 121.832 392.115 121.529 392.115 120.922C392.115 120.661 391.998 120.465 391.765 120.334C391.401 120.129 390.934 119.97 390.365 119.858C389.73 119.69 389.198 119.466 388.769 119.186C388.256 118.85 387.999 118.318 387.999 117.59C387.999 116.862 388.223 116.283 388.671 115.854C389.119 115.415 389.716 115.196 390.463 115.196C390.92 115.196 391.392 115.303 391.877 115.518C392.054 115.593 392.19 115.63 392.283 115.63C392.376 115.63 392.456 115.597 392.521 115.532C392.586 115.467 392.666 115.345 392.759 115.168H392.913V117.31H392.745C392.269 116.097 391.532 115.49 390.533 115.49C390.094 115.49 389.768 115.569 389.553 115.728C389.338 115.877 389.231 116.069 389.231 116.302C389.231 116.442 389.264 116.554 389.329 116.638C389.394 116.713 389.446 116.769 389.483 116.806C389.52 116.843 389.581 116.885 389.665 116.932C389.749 116.969 389.819 117.002 389.875 117.03C389.931 117.049 390.015 117.077 390.127 117.114C390.248 117.151 390.337 117.175 390.393 117.184C391.028 117.343 391.485 117.483 391.765 117.604C392.045 117.716 392.311 117.856 392.563 118.024C393.076 118.379 393.333 118.953 393.333 119.746C393.333 120.53 393.1 121.127 392.633 121.538C392.166 121.939 391.527 122.14 390.715 122.14C390.136 122.14 389.576 122.005 389.035 121.734C388.923 121.659 388.834 121.622 388.769 121.622C388.564 121.622 388.363 121.795 388.167 122.14H387.999ZM395.805 114.37C395.311 114.37 394.956 114.244 394.741 113.992C394.536 113.74 394.433 113.427 394.433 113.054C394.433 112.681 394.545 112.373 394.769 112.13C395.003 111.887 395.353 111.766 395.819 111.766C396.286 111.766 396.641 111.878 396.883 112.102C397.126 112.317 397.247 112.629 397.247 113.04C397.247 113.441 397.131 113.763 396.897 114.006C396.664 114.249 396.3 114.37 395.805 114.37ZM393.691 115.336H397.121V121.748H397.905V122H393.747V121.748H394.517V115.588H393.691V115.336ZM398.891 119.998V115.588H398.121V115.336H398.891V113.53L401.495 112.886V115.336H403.315V115.588H401.495V120.306C401.495 120.745 401.537 121.067 401.621 121.272C401.714 121.477 401.901 121.58 402.181 121.58C402.461 121.58 402.703 121.44 402.909 121.16C403.123 120.88 403.263 120.497 403.329 120.012L403.567 120.04C403.492 120.684 403.287 121.197 402.951 121.58C402.615 121.953 402.059 122.14 401.285 122.14C400.51 122.14 399.917 121.986 399.507 121.678C399.096 121.37 398.891 120.81 398.891 119.998ZM407.383 122.14C406.179 122.14 405.273 121.832 404.667 121.216C404.069 120.591 403.771 119.727 403.771 118.626C403.771 117.515 404.107 116.666 404.779 116.078C405.46 115.49 406.323 115.196 407.369 115.196C409.487 115.196 410.505 116.26 410.421 118.388H406.473V118.934C406.473 119.849 406.589 120.539 406.823 121.006C407.056 121.473 407.462 121.706 408.041 121.706C409.123 121.706 409.833 121.127 410.169 119.97L410.421 120.012C410.243 120.684 409.921 121.207 409.455 121.58C408.997 121.953 408.307 122.14 407.383 122.14ZM406.487 118.108H407.929V117.422C407.929 116.666 407.882 116.153 407.789 115.882C407.705 115.602 407.527 115.462 407.257 115.462C406.995 115.462 406.799 115.611 406.669 115.91C406.547 116.199 406.487 116.703 406.487 117.422V118.108ZM411.325 115.042L417.653 117.758V118.122L411.325 120.796V120.306L416.897 117.926L411.325 115.56V115.042ZM428.12 126.018V112.018H432.334V126.018H428.12Z" fill="white"/>
</g>
<defs>
<filter id="filter0_d_399_295" x="0" y="20" width="734" height="407" filterUnits="userSpaceOnUse" color-interpolation-filters="sRGB">
<feFlood flood-opacity="0" result="BackgroundImageFix"/>
<feColorMatrix in="SourceAlpha" type="matrix" values="0 0 0 0 0 0 0 0 0 0 0 0 0 0 0 0 0 0 127 0" result="hardAlpha"/>
<feOffset dy="4"/>
<feGaussianBlur stdDeviation="2"/>
<feComposite in2="hardAlpha" operator="out"/>
<feColorMatrix type="matrix" values="0 0 0 0 0 0 0 0 0 0 0 0 0 0 0 0 0 0 0.25 0"/>
<feBlend mode="normal" in2="BackgroundImageFix" result="effect1_dropShadow_399_295"/>
<feBlend mode="normal" in="SourceGraphic" in2="effect1_dropShadow_399_295" result="shape"/>
</filter>
<filter id="filter1_d_399_295" x="4" y="0" width="746" height="419" filterUnits="userSpaceOnUse" color-interpolation-filters="sRGB">
<feFlood flood-opacity="0" result="BackgroundImageFix"/>
<feColorMatrix in="SourceAlpha" type="matrix" values="0 0 0 0 0 0 0 0 0 0 0 0 0 0 0 0 0 0 127 0" result="hardAlpha"/>
<feOffset dx="10" dy="-10"/>
<feGaussianBlur stdDeviation="5"/>
<feComposite in2="hardAlpha" operator="out"/>
<feColorMatrix type="matrix" values="0 0 0 0 0 0 0 0 0 0 0 0 0 0 0 0 0 0 0.15 0"/>
<feBlend mode="normal" in2="BackgroundImageFix" result="effect1_dropShadow_399_295"/>
<feBlend mode="normal" in="SourceGraphic" in2="effect1_dropShadow_399_295" result="shape"/>
</filter>
</defs>
</svg>
