<svg width="61" height="57" viewBox="0 0 61 57" fill="none" xmlns="http://www.w3.org/2000/svg">
<path d="M30.5 0C13.6487 0 0 13.0737 0 29.2149C0 42.1425 8.73062 53.0615 20.8544 56.9325C22.3794 57.1881 22.9512 56.3117 22.9512 55.5448C22.9512 54.8509 22.9131 52.5503 22.9131 50.1035C15.25 51.4547 13.2675 48.3141 12.6575 46.6708C12.3144 45.8308 10.8275 43.238 9.53124 42.5442C8.46374 41.9964 6.93874 40.6452 9.49312 40.6087C11.895 40.5722 13.6106 42.7268 14.1825 43.6032C16.9275 48.0219 21.3119 46.7803 23.0656 46.0134C23.3325 44.1145 24.1331 42.8363 25.01 42.1059C18.2237 41.3756 11.1325 38.8558 11.1325 27.6811C11.1325 24.504 12.3144 21.8746 14.2587 19.8296C13.9537 19.0992 12.8862 16.1047 14.5637 12.0877C14.5637 12.0877 17.1181 11.3208 22.9512 15.0822C25.3913 14.4248 27.9838 14.0962 30.5763 14.0962C33.1688 14.0962 35.7613 14.4248 38.2013 15.0822C44.0344 11.2842 46.5888 12.0877 46.5888 12.0877C48.2663 16.1047 47.1988 19.0992 46.8938 19.8296C48.8381 21.8746 50.02 24.4675 50.02 27.6811C50.02 38.8923 42.8906 41.3756 36.1044 42.1059C37.21 43.0189 38.1632 44.7718 38.1632 47.5107C38.1632 51.4182 38.125 54.5588 38.125 55.5448C38.125 56.3117 38.6969 57.2246 40.2219 56.9325C52.6369 52.9178 60.9966 41.7665 61 29.2149C61 13.0737 47.3513 0 30.5 0Z" fill="#A49CA7"/>
</svg>
