<svg width="51" height="49" viewBox="0 0 51 49" fill="none" xmlns="http://www.w3.org/2000/svg">
<path d="M43.4497 41.7476H35.8975V30.3798C35.8975 27.669 35.8403 24.1806 31.962 24.1806C28.0245 24.1806 27.423 27.1304 27.423 30.1797V41.7476H19.8708V18.3712H27.1255V21.5575H27.2233C28.237 19.7204 30.702 17.7813 34.3845 17.7813C42.0368 17.7813 43.452 22.6192 43.452 28.9163L43.4497 41.7476ZM11.3411 15.1726C8.91012 15.1726 6.95724 13.2824 6.95724 10.9574C6.95724 8.63448 8.91224 6.74632 11.3411 6.74632C13.7636 6.74632 15.7271 8.63448 15.7271 10.9574C15.7271 13.2824 13.7615 15.1726 11.3411 15.1726ZM15.1279 41.7476H7.55437V18.3712H15.1279V41.7476ZM47.228 0H3.76337C1.683 0 0 1.57993 0 3.52932V45.4608C0 47.4119 1.683 48.9899 3.76337 48.9899H47.2218C49.3 48.9899 51 47.4119 51 45.4608V3.52932C51 1.57993 49.3 0 47.2218 0H47.228Z" fill="#A49CA7"/>
</svg>
