<svg width="45" height="46" viewBox="0 0 45 46" fill="none" xmlns="http://www.w3.org/2000/svg">
<path d="M45 21.75V43.5C45 44.8347 43.9927 45.9167 42.75 45.9167H40.5C39.2573 45.9167 38.25 44.8347 38.25 43.5V41.0833H6.75V43.5C6.75 44.8347 5.74263 45.9167 4.5 45.9167H2.25C1.00737 45.9167 0 44.8347 0 43.5V21.75L5.58113 7.76272C6.29024 5.98558 7.91716 4.83333 9.71728 4.83333H15.75V0H29.25V4.83333H35.2827C37.0829 4.83333 38.7097 5.98558 39.4189 7.76272L45 21.75ZM4.89586 21.75H40.1042L35.2827 9.66667H9.71728L4.89586 21.75ZM10.125 33.8333C11.989 33.8333 13.5 32.2103 13.5 30.2083C13.5 28.2064 11.989 26.5833 10.125 26.5833C8.26103 26.5833 6.75 28.2064 6.75 30.2083C6.75 32.2103 8.26103 33.8333 10.125 33.8333ZM34.875 33.8333C36.7389 33.8333 38.25 32.2103 38.25 30.2083C38.25 28.2064 36.7389 26.5833 34.875 26.5833C33.0111 26.5833 31.5 28.2064 31.5 30.2083C31.5 32.2103 33.0111 33.8333 34.875 33.8333Z" fill="#A49CA7"/>
</svg>
