<svg width="42" height="45" viewBox="0 0 42 45" fill="none" xmlns="http://www.w3.org/2000/svg">
<path d="M2.27923 12.3956C5.80519 5.04207 13.0518 0 21.4286 0C27.2044 0 32.055 2.22964 35.7662 5.86024L29.6201 12.3137C27.3994 10.0842 24.5745 8.94886 21.4286 8.94886C15.8473 8.94886 11.1232 12.9068 9.43832 18.225C9.00964 19.575 8.76613 21.017 8.76613 22.5C8.76613 23.983 9.00964 25.425 9.43832 26.775C11.1232 32.0931 15.8473 36.0511 21.4286 36.0511C24.3116 36.0511 26.7662 35.2534 28.6851 33.9035C30.9544 32.308 32.4643 29.925 32.961 27.1125H21.4286V18.409H41.6102C41.8637 19.8817 42 21.4159 42 23.0114C42 29.8636 39.6624 35.6317 35.6102 39.5489C32.0649 42.9853 27.2143 45 21.4286 45C13.0518 45 5.80519 39.958 2.27923 32.6045C0.827957 29.567 0 26.1306 0 22.5C0 18.8694 0.827957 15.433 2.27923 12.3956Z" fill="#A49CA7"/>
</svg>
