<svg width="53" height="55" viewBox="0 0 53 55" fill="none" xmlns="http://www.w3.org/2000/svg">
<path d="M14.7222 5.5C14.7222 8.53757 12.0857 11 8.83333 11C5.58099 11 2.94444 8.53757 2.94444 5.5C2.94444 2.46243 5.58099 0 8.83333 0C12.0857 0 14.7222 2.46243 14.7222 5.5ZM5.88889 38.5V55H0V22C0 17.4437 3.95483 13.75 8.83333 13.75C11.2495 13.75 13.4391 14.656 15.0339 16.1242L22.0253 22.2907L28.8352 15.9304L32.9993 19.8196L22.1425 29.9593L17.6667 26.0114V55H11.7778V38.5H5.88889ZM20.6111 8.25H47.1111V33H20.6111V38.5H33.4648L41.7784 55H48.2868L39.9732 38.5H50.0556C51.6818 38.5 53 37.2688 53 35.75V5.5C53 3.98123 51.6818 2.75 50.0556 2.75H20.6111V8.25Z" fill="#A49CA7"/>
</svg>
